<svg xmlns="http://www.w3.org/2000/svg" width="359.454" height="117.727" viewBox="0 0 359.454 117.727">
  <g id="グループ_617" data-name="グループ 617" transform="translate(-11.273 -688.273)">
    <g id="グループ_615" data-name="グループ 615">
      <circle id="楕円形_121" data-name="楕円形 121" cx="6" cy="6" r="6" transform="translate(322 742)" fill="#fff"/>
      <circle id="楕円形_128" data-name="楕円形 128" cx="6" cy="6" r="6" transform="translate(242 784)" fill="#fff"/>
      <circle id="楕円形_125" data-name="楕円形 125" cx="4" cy="4" r="4" transform="translate(285 784)" fill="#fff"/>
      <circle id="楕円形_126" data-name="楕円形 126" cx="2" cy="2" r="2" transform="translate(271 794)" fill="#fff"/>
      <circle id="楕円形_132" data-name="楕円形 132" cx="2" cy="2" r="2" transform="translate(210 774)" fill="#fff"/>
      <circle id="楕円形_123" data-name="楕円形 123" cx="17" cy="17" r="17" transform="translate(330 695)" fill="#fff"/>
      <circle id="楕円形_120" data-name="楕円形 120" cx="3" cy="3" r="3" transform="translate(347 780)" fill="#fff"/>
      <circle id="楕円形_127" data-name="楕円形 127" cx="1" cy="1" r="1" transform="translate(254 804)" fill="#fff"/>
      <circle id="楕円形_124" data-name="楕円形 124" cx="1" cy="1" r="1" transform="translate(318 788)" fill="#fff"/>
      <circle id="楕円形_122" data-name="楕円形 122" cx="2" cy="2" r="2" transform="translate(354 746)" fill="#fff"/>
    </g>
    <g id="グループ_616" data-name="グループ 616" transform="translate(18 691)">
      <circle id="楕円形_121-2" data-name="楕円形 121" cx="6" cy="6" r="6" transform="translate(30 51)" fill="#fff"/>
      <circle id="楕円形_128-2" data-name="楕円形 128" cx="6" cy="6" r="6" transform="translate(110 93)" fill="#fff"/>
      <circle id="楕円形_125-2" data-name="楕円形 125" cx="4" cy="4" r="4" transform="translate(71 93)" fill="#fff"/>
      <circle id="楕円形_126-2" data-name="楕円形 126" cx="2" cy="2" r="2" transform="translate(89 103)" fill="#fff"/>
      <circle id="楕円形_132-2" data-name="楕円形 132" cx="2" cy="2" r="2" transform="translate(150 83)" fill="#fff"/>
      <circle id="楕円形_123-2" data-name="楕円形 123" cx="17" cy="17" r="17" transform="translate(0 4)" fill="#fff"/>
      <circle id="楕円形_120-2" data-name="楕円形 120" cx="3" cy="3" r="3" transform="translate(11 89)" fill="#fff"/>
      <circle id="楕円形_127-2" data-name="楕円形 127" cx="1" cy="1" r="1" transform="translate(108 113)" fill="#fff"/>
      <circle id="楕円形_124-2" data-name="楕円形 124" cx="1" cy="1" r="1" transform="translate(44 97)" fill="#fff"/>
      <circle id="楕円形_122-2" data-name="楕円形 122" cx="2" cy="2" r="2" transform="translate(6 55)" fill="#fff"/>
    </g>
  </g>
</svg>
