<svg xmlns="http://www.w3.org/2000/svg" width="57.388" height="64.451" viewBox="0 0 57.388 64.451">
  <g id="グループ_699" data-name="グループ 699" transform="translate(-165.806 -702.784)">
    <g id="グループ_645" data-name="グループ 645" transform="translate(165.806 708.764)">
      <path id="パス_1301" data-name="パス 1301" d="M29.694,59.471C13.885,59.471,1,46.369,1,30.235a23.551,23.551,0,0,1,.108-2.707v-.217h0v-.325A28.717,28.717,0,0,1,28.286,1H31.1c14.185.65,25.554,11.586,27.178,25.987v.325h0v.217a22.633,22.633,0,0,1,.108,2.707C58.388,46.369,45.5,59.471,29.694,59.471Z" transform="translate(-1 -1)" fill="#d6bcaa"/>
    </g>
    <g id="グループ_624" data-name="グループ 624" transform="translate(167 704)">
      <g id="グループ_620" data-name="グループ 620" transform="translate(-1.194 -1.216)">
        <g id="グループ_618" data-name="グループ 618" transform="translate(1.043 1.043)">
          <path id="パス_1301-2" data-name="パス 1301" d="M28.651,57.345C13.417,57.345,1,44.719,1,29.172a22.7,22.7,0,0,1,.1-2.609v-.209h0v-.313A27.672,27.672,0,0,1,27.294,1h2.713c13.669.626,24.625,11.165,26.19,25.042v.313h0v.209a21.809,21.809,0,0,1,.1,2.609C56.3,44.719,43.885,57.345,28.651,57.345Z" transform="translate(-1 -1)" fill="#ce8928"/>
        </g>
        <g id="グループ_619" data-name="グループ 619">
          <path id="パス_1302" data-name="パス 1302" d="M28.694,2.087h1.252a26.741,26.741,0,0,1,25.146,24.1v.522h0a10.16,10.16,0,0,1,.209,2.5A26.834,26.834,0,0,1,28.694,56.345,26.834,26.834,0,0,1,2.087,29.216a20.105,20.105,0,0,1,.1-2.5h0V26.19a26.928,26.928,0,0,1,25.251-24.1h1.252m0-2.087H27.338A28.773,28.773,0,0,0,.209,25.981l-.1.626h0A22.7,22.7,0,0,0,0,29.216C0,45.285,12.834,58.432,28.694,58.432S57.388,45.285,57.388,29.216a22.7,22.7,0,0,0-.1-2.609h0l-.1-.626A29.22,29.22,0,0,0,48.31,7.93,28.335,28.335,0,0,0,29.946,0Z" fill="#60250b"/>
        </g>
      </g>
      <g id="グループ_621" data-name="グループ 621" transform="translate(0.997 0.871)">
        <path id="パス_1303" data-name="パス 1303" d="M55.106,26.625h0c0,14.086-11.9,25.459-26.5,25.459S2.1,40.711,2.1,26.625h0V26.1A26.928,26.928,0,0,1,27.351,2h2.5A26.741,26.741,0,0,1,55,26.1v.1A.627.627,0,0,1,55.106,26.625Z" transform="translate(-2.1 -2)" fill="#ffb857"/>
      </g>
      <g id="グループ_622" data-name="グループ 622">
        <path id="パス_1304" data-name="パス 1304" d="M27.5,11.5h0c-6.6,0-12,4.6-12,12.1s9.9,19.6,12,19.6,12-12.1,12-19.6S34.1,11.5,27.5,11.5Z" fill="#ffb246"/>
        <path id="パス_1305" data-name="パス 1305" d="M27.5,44.7c-2.6,0-7.1-6.4-8-7.7-2-3-5.5-8.7-5.5-13.4C14,15.8,19.6,10,27.5,10h0C35.3,10,41,15.7,41,23.6c0,4.8-3.4,10.5-5.5,13.4C34.6,38.3,30.1,44.7,27.5,44.7Zm.2-3ZM27.5,13C21.3,13,17,17.4,17,23.6c0,6.5,8.3,16.8,10.5,18C29.7,40.3,38,30.1,38,23.6,38,17.4,33.7,13,27.5,13Z" fill="#fff"/>
      </g>
      <g id="グループ_623" data-name="グループ 623">
        <path id="前面オブジェクトで型抜き_7" data-name="前面オブジェクトで型抜き 7" d="M-499-3871.1a5.907,5.907,0,0,1-5.9-5.9,5.883,5.883,0,0,1,1.7-4.2,5.613,5.613,0,0,1,4.2-1.8,5.837,5.837,0,0,1,5.9,5.9,6.023,6.023,0,0,1-1.712,4.237A5.809,5.809,0,0,1-499-3871.1Z" transform="translate(526.4 3900.598)" fill="#fff"/>
      </g>
    </g>
  </g>
</svg>
