<svg xmlns="http://www.w3.org/2000/svg" width="42" height="45" viewBox="0 0 42 45">
  <g id="グループ_725" data-name="グループ 725" transform="translate(-316 -39)">
    <path id="パス_1639" data-name="パス 1639" d="M21,0A21,21,0,1,1,0,21,21,21,0,0,1,21,0Z" transform="translate(316 42)" fill="#f08c7e"/>
    <path id="パス_1626" data-name="パス 1626" d="M21,0A21,21,0,1,1,0,21,21,21,0,0,1,21,0Z" transform="translate(316 39)" fill="#fff9e5"/>
    <path id="パス_203" data-name="パス 203" d="M25.447,15.546l-1.98-1.564a1.309,1.309,0,0,1-.492-1.031v-.015a1.3,1.3,0,0,1,.492-1.036l1.98-1.564a1.291,1.291,0,0,0,.391-1.508l-.868-2.1a1.291,1.291,0,0,0-1.345-.787l-2.508.294a1.321,1.321,0,0,1-1.081-.386l-.01-.01a1.316,1.316,0,0,1-.386-1.076l.294-2.508A1.3,1.3,0,0,0,19.146.908L17.054.04a1.291,1.291,0,0,0-1.508.391l-1.564,1.98a1.309,1.309,0,0,1-1.031.492h-.015A1.3,1.3,0,0,1,11.9,2.411L10.337.431A1.291,1.291,0,0,0,8.829.04l-2.1.868A1.291,1.291,0,0,0,5.94,2.254l.294,2.508a1.321,1.321,0,0,1-.386,1.081l-.01.01a1.316,1.316,0,0,1-1.076.386L2.254,5.945a1.3,1.3,0,0,0-1.345.787L.04,8.829a1.291,1.291,0,0,0,.391,1.508L2.411,11.9A1.309,1.309,0,0,1,2.9,12.931v.015a1.3,1.3,0,0,1-.492,1.036L.431,15.546A1.291,1.291,0,0,0,.04,17.054l.868,2.1a1.291,1.291,0,0,0,1.345.787l2.508-.294a1.321,1.321,0,0,1,1.081.386l.01.01a1.316,1.316,0,0,1,.386,1.076l-.294,2.508a1.3,1.3,0,0,0,.787,1.345l2.1.868a1.291,1.291,0,0,0,1.508-.391l1.564-1.98a1.309,1.309,0,0,1,1.031-.492h.015a1.3,1.3,0,0,1,1.036.492l1.564,1.98a1.291,1.291,0,0,0,1.508.391l2.1-.868a1.291,1.291,0,0,0,.787-1.345l-.294-2.508a1.321,1.321,0,0,1,.386-1.081l.01-.01a1.316,1.316,0,0,1,1.076-.386l2.508.294a1.3,1.3,0,0,0,1.345-.787l.868-2.1A1.3,1.3,0,0,0,25.447,15.546ZM14.226,16.683a3.948,3.948,0,1,1,2.138-5.158A3.948,3.948,0,0,1,14.226,16.683Z" transform="translate(324.112 47.118)" fill="#f27f70"/>
  </g>
</svg>
