<svg xmlns="http://www.w3.org/2000/svg" width="57.388" height="64.451" viewBox="0 0 57.388 64.451">
  <g id="グループ_700" data-name="グループ 700" transform="translate(-57.806 -702.784)">
    <g id="グループ_646" data-name="グループ 646" transform="translate(57.806 708.764)">
      <path id="パス_1301" data-name="パス 1301" d="M29.694,59.471C13.885,59.471,1,46.369,1,30.235a23.551,23.551,0,0,1,.108-2.707v-.217h0v-.325A28.717,28.717,0,0,1,28.286,1H31.1c14.185.65,25.554,11.586,27.178,25.987v.325h0v.217a22.633,22.633,0,0,1,.108,2.707C58.388,46.369,45.5,59.471,29.694,59.471Z" transform="translate(-1 -1)" fill="#d6bbaa"/>
    </g>
    <g id="グループ_620" data-name="グループ 620" transform="translate(57.806 702.784)">
      <g id="グループ_618" data-name="グループ 618" transform="translate(1.043 1.043)">
        <path id="パス_1301-2" data-name="パス 1301" d="M28.651,57.345C13.417,57.345,1,44.719,1,29.172a22.7,22.7,0,0,1,.1-2.609v-.209h0v-.313A27.672,27.672,0,0,1,27.294,1h2.713c13.669.626,24.625,11.165,26.19,25.042v.313h0v.209a21.809,21.809,0,0,1,.1,2.609C56.3,44.719,43.885,57.345,28.651,57.345Z" transform="translate(-1 -1)" fill="#d6454f"/>
      </g>
      <g id="グループ_619" data-name="グループ 619">
        <path id="パス_1302" data-name="パス 1302" d="M28.694,2.087h1.252a26.741,26.741,0,0,1,25.146,24.1v.522h0a10.16,10.16,0,0,1,.209,2.5A26.834,26.834,0,0,1,28.694,56.345,26.834,26.834,0,0,1,2.087,29.216a20.105,20.105,0,0,1,.1-2.5h0V26.19a26.928,26.928,0,0,1,25.251-24.1h1.252m0-2.087H27.338A28.773,28.773,0,0,0,.209,25.981l-.1.626h0A22.7,22.7,0,0,0,0,29.216C0,45.285,12.834,58.432,28.694,58.432S57.388,45.285,57.388,29.216a22.7,22.7,0,0,0-.1-2.609h0l-.1-.626A29.22,29.22,0,0,0,48.31,7.93,28.335,28.335,0,0,0,29.946,0Z" fill="#60250b"/>
      </g>
    </g>
    <g id="グループ_621" data-name="グループ 621" transform="translate(59.997 704.871)">
      <path id="パス_1303" data-name="パス 1303" d="M55.106,26.625h0c0,14.086-11.9,25.459-26.5,25.459S2.1,40.711,2.1,26.625h0V26.1A26.928,26.928,0,0,1,27.351,2h2.5A26.741,26.741,0,0,1,55,26.1v.1A.627.627,0,0,1,55.106,26.625Z" transform="translate(-2.1 -2)" fill="#ff6974"/>
    </g>
    <g id="グループ_637" data-name="グループ 637" transform="translate(-0.974 3.023)">
      <path id="パス_227" data-name="パス 227" d="M33.558,34.006H32.248a.444.444,0,0,1-.448-.448V32.248a.444.444,0,0,1,.448-.448h1.309a.444.444,0,0,1,.448.448v1.309A.456.456,0,0,1,33.558,34.006Z" transform="translate(47.674 687.726)" fill="#fff"/>
      <path id="パス_228" data-name="パス 228" d="M33.558,110.506H32.248a.444.444,0,0,1-.448-.448v-1.309a.444.444,0,0,1,.448-.448h1.309a.444.444,0,0,1,.448.448v1.309A.444.444,0,0,1,33.558,110.506Z" transform="translate(47.674 624.948)" fill="#fff"/>
      <path id="パス_229" data-name="パス 229" d="M110.358,110.506h-1.309a.444.444,0,0,1-.448-.448v-1.309a.444.444,0,0,1,.448-.448h1.309a.444.444,0,0,1,.448.448v1.309A.444.444,0,0,1,110.358,110.506Z" transform="translate(-15.35 624.948)" fill="#fff"/>
      <path id="パス_230" data-name="パス 230" d="M110.358,34.006h-1.309a.444.444,0,0,1-.448-.448V32.248a.444.444,0,0,1,.448-.448h1.309a.444.444,0,0,1,.448.448v1.309A.456.456,0,0,1,110.358,34.006Z" transform="translate(-15.35 687.726)" fill="#fff"/>
      <path id="パス_231" data-name="パス 231" d="M.717,7.354A.72.72,0,0,1,0,6.637V.717A.72.72,0,0,1,.717,0H6.583a.717.717,0,0,1,0,1.435H1.435v5.2A.72.72,0,0,1,.717,7.354Z" transform="translate(73.77 713.822)" fill="#fff"/>
      <path id="パス_232" data-name="パス 232" d="M118.537,7.482a.72.72,0,0,1-.717-.717V1.635h-5.2a.717.717,0,1,1,0-1.435h5.919a.72.72,0,0,1,.717.717V6.783A.7.7,0,0,1,118.537,7.482Z" transform="translate(-18.058 713.658)" fill="#fff"/>
      <path id="パス_233" data-name="パス 233" d="M6.583,119.654H.717A.72.72,0,0,1,0,118.937v-5.919a.717.717,0,1,1,1.435,0v5.2H6.583a.717.717,0,1,1,0,1.435Z" transform="translate(73.77 621.665)" fill="#fff"/>
      <path id="パス_234" data-name="パス 234" d="M118.537,119.7h-5.919a.717.717,0,1,1,0-1.435h5.2v-5.148a.717.717,0,1,1,1.435,0v5.865A.72.72,0,0,1,118.537,119.7Z" transform="translate(-18.058 621.583)" fill="#fff"/>
      <path id="パス_235" data-name="パス 235" d="M24.409,25.826H19.117a.72.72,0,0,1-.717-.717V19.817a.72.72,0,0,1,.717-.717h5.291a.72.72,0,0,1,.717.717v5.291A.72.72,0,0,1,24.409,25.826Zm-4.574-1.435h3.856V20.535H19.835Z" transform="translate(58.671 698.148)" fill="#fff"/>
      <path id="パス_236" data-name="パス 236" d="M24.409,102.426H19.117a.72.72,0,0,1-.717-.717V96.417a.72.72,0,0,1,.717-.717h5.291a.72.72,0,0,1,.717.717v5.291A.72.72,0,0,1,24.409,102.426Zm-4.574-1.435h3.856V97.135H19.835Z" transform="translate(58.671 635.288)" fill="#fff"/>
      <path id="パス_237" data-name="パス 237" d="M101.291,102.426H96.017a.72.72,0,0,1-.717-.717V96.417a.72.72,0,0,1,.717-.717h5.291a.72.72,0,0,1,.717.717v5.291A.747.747,0,0,1,101.291,102.426Zm-4.556-1.435h3.856V97.135H96.735Z" transform="translate(-4.436 635.288)" fill="#fff"/>
      <path id="パス_238" data-name="パス 238" d="M101.291,25.826H96.017a.72.72,0,0,1-.717-.717V19.817a.72.72,0,0,1,.717-.717h5.291a.72.72,0,0,1,.717.717v5.291A.747.747,0,0,1,101.291,25.826Zm-4.556-1.435h3.856V20.535H96.735Z" transform="translate(-4.436 698.148)" fill="#fff"/>
      <path id="パス_239" data-name="パス 239" d="M26.991,68.035H17.017a.717.717,0,1,1,0-1.435h9.973a.717.717,0,0,1,0,1.435Z" transform="translate(60.394 659.168)" fill="#fff"/>
      <path id="パス_240" data-name="パス 240" d="M21.041,79.535h-4.1a.723.723,0,0,1,0-1.435h4.1a.723.723,0,0,1,0,1.435Z" transform="translate(60.394 649.731)" fill="#fff"/>
      <path id="パス_241" data-name="パス 241" d="M52.461,79.535H50.442c-.3,0-.542-.323-.542-.717s.244-.717.542-.717h2.005c.3,0,.542.323.542.717S52.759,79.535,52.461,79.535Z" transform="translate(32.821 649.731)" fill="#fff"/>
      <path id="パス_242" data-name="パス 242" d="M100.683,79.535H95.517a.717.717,0,1,1,0-1.435h5.166a.717.717,0,1,1,0,1.435Z" transform="translate(-4.025 649.731)" fill="#fff"/>
      <path id="パス_243" data-name="パス 243" d="M91.985,53.264H84.917a.72.72,0,0,1-.717-.717V49.317a.717.717,0,1,1,1.435,0v2.511h6.35a.717.717,0,1,1,0,1.435Z" transform="translate(4.673 673.939)" fill="#fff"/>
      <path id="パス_244" data-name="パス 244" d="M71.961,79.535h-.144a.717.717,0,1,1,0-1.435h.144a.717.717,0,1,1,0,1.435Z" transform="translate(15.424 649.731)" fill="#fff"/>
      <path id="パス_245" data-name="パス 245" d="M84.761,79.535h-.143a.717.717,0,1,1,0-1.435h.143a.717.717,0,1,1,0,1.435Z" transform="translate(4.919 649.731)" fill="#fff"/>
      <path id="パス_246" data-name="パス 246" d="M62.872,25.826H60.217a.72.72,0,0,1-.717-.717V19.817a.717.717,0,0,1,1.435,0v4.574h1.937a.717.717,0,1,1,0,1.435Z" transform="translate(24.943 698.148)" fill="#fff"/>
      <path id="パス_247" data-name="パス 247" d="M60.217,97.443a.72.72,0,0,1-.717-.717v-3.5a.72.72,0,0,1,.717-.717h3.8V90.017a.717.717,0,0,1,1.435,0V93.21a.72.72,0,0,1-.717.717h-3.8v2.78A.724.724,0,0,1,60.217,97.443Z" transform="translate(24.943 640.54)" fill="#fff"/>
    </g>
  </g>
</svg>
