<svg id="コンポーネント_1_9" data-name="コンポーネント 1 – 9" xmlns="http://www.w3.org/2000/svg" width="197.742" height="60.753" viewBox="0 0 197.742 60.753">
  <g id="グループ_639" data-name="グループ 639" transform="translate(-91.079 -711.874)">
    <path id="パス_895" data-name="パス 895" d="M28.254,59.188C14.383,59.188,3.2,47.36,3.2,32.844a23.388,23.388,0,0,1,.108-2.688c0-.323.108-.753.108-1.075v-.108a26.054,26.054,0,0,1,7.1-14.731A24.527,24.527,0,0,1,28.254,6.5H170.3c12.366,0,23.011,9.677,24.839,22.473v.215c0,.323.108.645.108.968a23.387,23.387,0,0,1,.108,2.688,26.819,26.819,0,0,1-7.312,18.6A24.527,24.527,0,0,1,170.3,59.188Z" transform="translate(91.32 713.438)" fill="#efa59e"/>
    <path id="パス_896" data-name="パス 896" d="M25.806,51.613A25.882,25.882,0,0,1,0,25.806a20.719,20.719,0,0,1,.108-2.581c0-.323.108-.645.108-1.075v-.108A26.084,26.084,0,0,1,7.527,7.527,25.787,25.787,0,0,1,25.806,0H172.043a25.887,25.887,0,0,1,25.484,22.043v.108c0,.323.108.645.108.968a21.6,21.6,0,0,1,.108,2.581,25.7,25.7,0,0,1-25.806,25.806H25.806Z" transform="translate(91.079 711.874)" fill="#60250b"/>
    <path id="パス_897" data-name="パス 897" d="M195.548,25.641a24.012,24.012,0,0,1-6.882,16.774A23.557,23.557,0,0,1,171.893,49.3H25.656A23.725,23.725,0,0,1,2,25.641a16.648,16.648,0,0,1,.108-2.366c0-.323.108-.645.108-.968h0A23.564,23.564,0,0,1,25.656,2.2H171.893a23.739,23.739,0,0,1,23.441,20.215h0c0,.323.108.645.108.968A14.435,14.435,0,0,1,195.548,25.641Z" transform="translate(91.23 712.039)" fill="#d53f4a"/>
    <path id="パス_898" data-name="パス 898" d="M195.318,23.245h0a26.041,26.041,0,0,1-6.667,14.021A22.984,22.984,0,0,1,171.878,44.5H25.641C13.705,44.5,3.92,35.23,2.2,23.245h0A25.321,25.321,0,0,1,8.867,9.337,22.984,22.984,0,0,1,25.641,2.1H171.878C183.813,1.987,193.6,11.259,195.318,23.245Z" transform="translate(91.245 712.032)" fill="#f75460"/>
  </g>
  <path id="パス_899" data-name="パス 899" d="M3.866,6.876l1.828.538C4.941,9.349,4.081,11.177,3.328,12.9L1.5,12.145C2.36,10.317,3.113,8.6,3.866,6.876ZM2.038,3.543H7.414V1.5H9.457V3.543h5.054V5.371H9.457v6.667a3.887,3.887,0,0,1-.323,1.935c-.215.323-.86.43-1.828.43-.645,0-1.4-.108-2.366-.215l.108-1.828a14.036,14.036,0,0,0,1.828.108c.323,0,.43,0,.538-.108a2.344,2.344,0,0,0,.108-.645V5.263H2.038Zm8.71,3.871,1.828-.753c.86,1.828,1.613,3.656,2.366,5.484l-1.828.645C12.468,11.285,11.608,9.457,10.747,7.414Z" transform="translate(60.866 16.242)"/>
  <path id="パス_900" data-name="パス 900" d="M16.5,8.735V6.8H28.973V8.843H16.5Z" transform="translate(61.995 16.641)"/>
  <path id="パス_901" data-name="パス 901" d="M39.087,7.491l1.828-.86c1.075,2.151,2.043,4.409,3.118,6.667l-1.935.753a8.7,8.7,0,0,0-.645-1.4A97.276,97.276,0,0,1,30.7,13.62V11.792a8.785,8.785,0,0,0,1.505-.108,68.966,68.966,0,0,0,2.9-9.785l2.043.323a85.545,85.545,0,0,1-2.688,9.355c1.935-.108,3.978-.43,6.237-.753C40.162,9.749,39.625,8.567,39.087,7.491Z" transform="translate(63.063 16.272)"/>
  <path id="パス_905" data-name="パス 905" d="M3.866,6.876l1.828.538C4.941,9.349,4.081,11.177,3.328,12.9L1.5,12.145C2.36,10.317,3.113,8.6,3.866,6.876ZM2.038,3.543H7.414V1.5H9.457V3.543h5.054V5.371H9.457v6.667a3.887,3.887,0,0,1-.323,1.935c-.215.323-.86.43-1.828.43-.645,0-1.4-.108-2.366-.215l.108-1.828a14.036,14.036,0,0,0,1.828.108c.323,0,.43,0,.538-.108a2.344,2.344,0,0,0,.108-.645V5.263H2.038Zm8.71,3.871,1.828-.753c.86,1.828,1.613,3.656,2.366,5.484l-1.828.645C12.468,11.285,11.608,9.457,10.747,7.414Z" transform="translate(60.866 16.242)" fill="none" stroke="#fff" stroke-linecap="round" stroke-linejoin="round" stroke-width="3"/>
  <path id="パス_906" data-name="パス 906" d="M16.5,8.735V6.8H28.973V8.843H16.5Z" transform="translate(61.995 16.641)" fill="none" stroke="#fff" stroke-linecap="round" stroke-linejoin="round" stroke-width="3"/>
  <path id="パス_907" data-name="パス 907" d="M39.087,7.491l1.828-.86c1.075,2.151,2.043,4.409,3.118,6.667l-1.935.753a8.7,8.7,0,0,0-.645-1.4A97.276,97.276,0,0,1,30.7,13.62V11.792a8.785,8.785,0,0,0,1.505-.108,68.966,68.966,0,0,0,2.9-9.785l2.043.323a85.545,85.545,0,0,1-2.688,9.355c1.935-.108,3.978-.43,6.237-.753C40.162,9.749,39.625,8.567,39.087,7.491Z" transform="translate(64.064 16.272)" fill="none" stroke="#fff" stroke-linecap="round" stroke-linejoin="round" stroke-width="3"/>
  <path id="パス_908" data-name="パス 908" d="M48.688,2.115a26.355,26.355,0,0,0-.753,6.022,21.491,21.491,0,0,0,.753,6.022l-1.935.215A23.066,23.066,0,0,1,46,8.137,23.066,23.066,0,0,1,46.753,1.9Zm8.925,9.462.323,1.72a13.358,13.358,0,0,1-3.548.43,5.859,5.859,0,0,1-3.333-.86,2.376,2.376,0,0,1-1.183-2.151,3.2,3.2,0,0,1,.538-1.505,5.2,5.2,0,0,1,1.4-1.72l1.4,1.075a4.688,4.688,0,0,0-.968,1.183,2.147,2.147,0,0,0-.323.86q0,1.29,2.581,1.29A16.172,16.172,0,0,0,57.613,11.577ZM51.054,4.8V3.083h6.452V4.8Z" transform="translate(65.921 16.272)" fill="none" stroke="#fff" stroke-linecap="round" stroke-linejoin="round" stroke-width="3"/>
  <path id="パス_909" data-name="パス 909" d="M61.666,13.528a8.97,8.97,0,0,1-.86,1.29L59.3,13.528a5.894,5.894,0,0,0,1.183-2.473,17.436,17.436,0,0,0,.323-3.763V4.173H72.418V8.259H68.44v.968h4.516V10.84h-4.3c.645,1.075,2.151,1.935,4.624,2.473l-.753,1.613a9.831,9.831,0,0,1-5.054-2.688,8.834,8.834,0,0,1-5.054,2.688ZM59.838,3.313V1.7H73.063V3.313ZM61.881,13.1c2.258-.538,3.656-1.29,4.194-2.366H62.526A8.543,8.543,0,0,1,61.881,13.1Zm.86-4.839v.968H66.4V8.259Zm0-1.505h7.742V5.571H62.741Z" transform="translate(68.216 16.257)" fill="none" stroke="#fff" stroke-linecap="round" stroke-linejoin="round" stroke-width="3"/>
  <path id="パス_910" data-name="パス 910" d="M83.08,12.415a2.328,2.328,0,0,0,1.613-2.366,1.935,1.935,0,0,0-.753-1.613A4.519,4.519,0,0,0,81.574,7.9a13.6,13.6,0,0,0-3.011.323A16.413,16.413,0,0,0,75.445,9.4l-.645-1.4,6.989-4.3H75.768V2.2h9.57V3.92L80.391,6.609h0a11.974,11.974,0,0,1,1.828-.215,5.485,5.485,0,0,1,3.226.86A2.923,2.923,0,0,1,86.52,9.834a4.1,4.1,0,0,1-1.505,3.333,7.413,7.413,0,0,1-4.409,1.183,6.764,6.764,0,0,1-3.333-.645A2.048,2.048,0,0,1,76.2,11.77a2.214,2.214,0,0,1,.968-1.72A4.586,4.586,0,0,1,79.746,9.4a4.68,4.68,0,0,1,2.473.538,1.885,1.885,0,0,1,.753,1.72A.662.662,0,0,1,83.08,12.415Zm-1.828.323a1.6,1.6,0,0,0,.215-.968.976.976,0,0,0-.323-.753c-.215-.215-.645-.215-1.29-.215a3.319,3.319,0,0,0-1.183.215.59.59,0,0,0-.43.645c0,.753.86,1.075,2.581,1.075h.43Z" transform="translate(70.383 16.295)" fill="none" stroke="#fff" stroke-linecap="round" stroke-linejoin="round" stroke-width="3"/>
  <g id="グループ_713" data-name="グループ 713">
    <path id="パス_911" data-name="パス 911" d="M3.866,6.876l1.828.538C4.941,9.349,4.081,11.177,3.328,12.9L1.5,12.145C2.36,10.317,3.113,8.6,3.866,6.876ZM2.038,3.543H7.414V1.5H9.457V3.543h5.054V5.371H9.457v6.667a3.887,3.887,0,0,1-.323,1.935c-.215.323-.86.43-1.828.43-.645,0-1.4-.108-2.366-.215l.108-1.828a14.036,14.036,0,0,0,1.828.108c.323,0,.43,0,.538-.108a2.344,2.344,0,0,0,.108-.645V5.263H2.038Zm8.71,3.871,1.828-.753c.86,1.828,1.613,3.656,2.366,5.484l-1.828.645C12.468,11.285,11.608,9.457,10.747,7.414Z" transform="translate(60.866 16.242)" fill="#f75460"/>
    <path id="パス_912" data-name="パス 912" d="M16.5,8.735V6.8H28.973V8.843H16.5Z" transform="translate(61.995 16.641)" fill="#f75460"/>
    <path id="パス_913" data-name="パス 913" d="M39.087,7.491l1.828-.86c1.075,2.151,2.043,4.409,3.118,6.667l-1.935.753a8.7,8.7,0,0,0-.645-1.4A97.276,97.276,0,0,1,30.7,13.62V11.792a8.785,8.785,0,0,0,1.505-.108,68.966,68.966,0,0,0,2.9-9.785l2.043.323a85.545,85.545,0,0,1-2.688,9.355c1.935-.108,3.978-.43,6.237-.753C40.162,9.749,39.625,8.567,39.087,7.491Z" transform="translate(64.063 16.272)" fill="#f75460"/>
    <path id="パス_914" data-name="パス 914" d="M48.688,2.115a26.355,26.355,0,0,0-.753,6.022,21.491,21.491,0,0,0,.753,6.022l-1.935.215A23.066,23.066,0,0,1,46,8.137,23.066,23.066,0,0,1,46.753,1.9Zm8.925,9.462.323,1.72a13.358,13.358,0,0,1-3.548.43,5.859,5.859,0,0,1-3.333-.86,2.376,2.376,0,0,1-1.183-2.151,3.2,3.2,0,0,1,.538-1.505,5.2,5.2,0,0,1,1.4-1.72l1.4,1.075a4.688,4.688,0,0,0-.968,1.183,2.147,2.147,0,0,0-.323.86q0,1.29,2.581,1.29A16.172,16.172,0,0,0,57.613,11.577ZM51.054,4.8V3.083h6.452V4.8Z" transform="translate(65.921 16.272)" fill="#f75460"/>
    <path id="パス_915" data-name="パス 915" d="M61.666,13.528a8.97,8.97,0,0,1-.86,1.29L59.3,13.528a5.894,5.894,0,0,0,1.183-2.473,17.436,17.436,0,0,0,.323-3.763V4.173H72.418V8.259H68.44v.968h4.516V10.84h-4.3c.645,1.075,2.151,1.935,4.624,2.473l-.753,1.613a9.831,9.831,0,0,1-5.054-2.688,8.834,8.834,0,0,1-5.054,2.688ZM59.838,3.313V1.7H73.063V3.313ZM61.881,13.1c2.258-.538,3.656-1.29,4.194-2.366H62.526A8.543,8.543,0,0,1,61.881,13.1Zm.86-4.839v.968H66.4V8.259Zm0-1.505h7.742V5.571H62.741Z" transform="translate(68.216 16.257)" fill="#f75460"/>
    <path id="パス_916" data-name="パス 916" d="M83.08,12.415a2.328,2.328,0,0,0,1.613-2.366,1.935,1.935,0,0,0-.753-1.613A4.519,4.519,0,0,0,81.574,7.9a13.6,13.6,0,0,0-3.011.323A16.413,16.413,0,0,0,75.445,9.4l-.645-1.4,6.989-4.3H75.768V2.2h9.57V3.92L80.391,6.609h0a11.974,11.974,0,0,1,1.828-.215,5.485,5.485,0,0,1,3.226.86A2.923,2.923,0,0,1,86.52,9.834a4.1,4.1,0,0,1-1.505,3.333,7.413,7.413,0,0,1-4.409,1.183,6.764,6.764,0,0,1-3.333-.645A2.048,2.048,0,0,1,76.2,11.77a2.214,2.214,0,0,1,.968-1.72A4.586,4.586,0,0,1,79.746,9.4a4.68,4.68,0,0,1,2.473.538,1.885,1.885,0,0,1,.753,1.72A.662.662,0,0,1,83.08,12.415Zm-1.828.323a1.6,1.6,0,0,0,.215-.968.976.976,0,0,0-.323-.753c-.215-.215-.645-.215-1.29-.215a3.319,3.319,0,0,0-1.183.215.59.59,0,0,0-.43.645c0,.753.86,1.075,2.581,1.075h.43Z" transform="translate(70.383 16.295)" fill="#f75460"/>
    <path id="パス_917" data-name="パス 917" d="M13.05,18.134c-1.428,0-1.517-.982-1.517-1.16v-1.7a.61.61,0,0,0-.625-.625H8.766a.61.61,0,0,0-.625.625v1.785c0,.178-.089,1.16-1.606,1.16a3.58,3.58,0,0,1-3.569-3.569V11.708H2.431a1.272,1.272,0,0,1-1.071-.535,2.737,2.737,0,0,1-.178-2.231c.535-1.517,6.336-6.871,7.407-7.585A1.987,1.987,0,0,1,9.748,1h.178a2.58,2.58,0,0,1,1.249.357,13.641,13.641,0,0,1,1.517,1.249,1.45,1.45,0,0,1,1.339-.982h1.16a1.41,1.41,0,0,1,1.428,1.428V6.443a7.28,7.28,0,0,1,1.874,2.5,2.737,2.737,0,0,1-.178,2.231,1.272,1.272,0,0,1-1.071.535h-.625v2.945a3.45,3.45,0,0,1-3.569,3.48Z" transform="translate(35.771 14.162)" fill="#f75460"/>
  </g>
  <path id="パス_918" data-name="パス 918" d="M9.818,1.785a2.131,2.131,0,0,1,.8.178c.446.357,1.517,1.339,2.766,2.5V2.945a.576.576,0,0,1,.535-.535h1.16a.576.576,0,0,1,.535.535V6.693A13.359,13.359,0,0,1,17.582,9.1c.268.892,0,1.606-.446,1.606H15.618v3.837a2.685,2.685,0,0,1-2.677,2.677h-.089c-.178,0-.625,0-.625-.268v-1.7a1.564,1.564,0,0,0-1.517-1.517H8.658A1.564,1.564,0,0,0,7.141,15.26v1.7c0,.268-.714.268-.714.268A2.685,2.685,0,0,1,3.75,14.546V10.708H2.322c-.446,0-.714-.714-.446-1.606.357-1.16,5.89-6.336,7.05-7.139a2.1,2.1,0,0,1,.714-.178h.178M9.818,0H9.639A3.143,3.143,0,0,0,8.033.446C6.962,1.16.8,6.6.27,8.478a3.242,3.242,0,0,0,.268,3.034,2.082,2.082,0,0,0,1.517.892v2.052a4.475,4.475,0,0,0,4.462,4.462c1.963,0,2.5-1.249,2.5-2.052V15.438h1.517v1.517a2.16,2.16,0,0,0,2.409,2.052h.089A4.4,4.4,0,0,0,17.4,14.546V12.493A2.411,2.411,0,0,0,18.92,11.6a3.362,3.362,0,0,0,.357-2.945A8.769,8.769,0,0,0,17.4,6.068V2.945a2.363,2.363,0,0,0-2.32-2.32h-1.16a2.423,2.423,0,0,0-1.517.535c-.357-.268-.625-.535-.892-.714A3.54,3.54,0,0,0,9.818,0Z" transform="translate(35.88 14.27)" fill="#fff"/>
</svg>
