<svg xmlns="http://www.w3.org/2000/svg" width="25.477" height="25.544" viewBox="0 0 25.477 25.544">
  <g id="グループ_409" data-name="グループ 409" transform="translate(-88.77 -730.822)">
    <path id="パス_256" data-name="パス 256" d="M24.061,25.677H1.416A1.415,1.415,0,0,1,0,24.261V1.616A1.415,1.415,0,0,1,1.416.2H24.044a1.415,1.415,0,0,1,1.416,1.416V24.244A1.4,1.4,0,0,1,24.061,25.677Z" transform="translate(88.77 730.655)" fill="rgba(206,78,81,0.15)"/>
    <g id="グループ_217" data-name="グループ 217" transform="translate(88.77 730.822)">
      <g id="グループ_256" data-name="グループ 256">
        <path id="パス_227" data-name="パス 227" d="M33.433,33.85H32.217a.413.413,0,0,1-.417-.417V32.217a.413.413,0,0,1,.417-.417h1.216a.413.413,0,0,1,.417.417v1.216A.423.423,0,0,1,33.433,33.85Z" transform="translate(-26.501 -26.501)" fill="#ce4e51"/>
        <path id="パス_228" data-name="パス 228" d="M33.433,110.35H32.217a.413.413,0,0,1-.417-.417v-1.216a.413.413,0,0,1,.417-.417h1.216a.413.413,0,0,1,.417.417v1.216A.413.413,0,0,1,33.433,110.35Z" transform="translate(-26.501 -90.254)" fill="#ce4e51"/>
        <path id="パス_229" data-name="パス 229" d="M110.233,110.35h-1.216a.413.413,0,0,1-.417-.417v-1.216a.413.413,0,0,1,.417-.417h1.216a.413.413,0,0,1,.417.417v1.216A.413.413,0,0,1,110.233,110.35Z" transform="translate(-90.504 -90.254)" fill="#ce4e51"/>
        <path id="パス_230" data-name="パス 230" d="M110.233,33.85h-1.216a.413.413,0,0,1-.417-.417V32.217a.413.413,0,0,1,.417-.417h1.216a.413.413,0,0,1,.417.417v1.216A.423.423,0,0,1,110.233,33.85Z" transform="translate(-90.504 -26.501)" fill="#ce4e51"/>
      </g>
      <g id="グループ_253" data-name="グループ 253">
        <g id="グループ_236" data-name="グループ 236">
          <path id="パス_231" data-name="パス 231" d="M.667,6.832A.668.668,0,0,1,0,6.165V.667A.668.668,0,0,1,.667,0H6.115a.667.667,0,0,1,0,1.333H1.333V6.165A.668.668,0,0,1,.667,6.832Z" fill="#ce4e51"/>
        </g>
        <g id="グループ_237" data-name="グループ 237" transform="translate(18.646 0.033)">
          <path id="パス_232" data-name="パス 232" d="M118.065,6.965A.668.668,0,0,1,117.4,6.3V1.533h-4.832a.667.667,0,1,1,0-1.333h5.5a.668.668,0,0,1,.667.667V6.315A.654.654,0,0,1,118.065,6.965Z" transform="translate(-111.9 -0.2)" fill="#ce4e51"/>
        </g>
        <g id="グループ_238" data-name="グループ 238" transform="translate(0 18.712)">
          <path id="パス_233" data-name="パス 233" d="M6.115,119.132H.667A.668.668,0,0,1,0,118.465v-5.5a.667.667,0,1,1,1.333,0V117.8H6.115a.667.667,0,1,1,0,1.333Z" transform="translate(0 -112.3)" fill="#ce4e51"/>
        </g>
        <g id="グループ_239" data-name="グループ 239" transform="translate(18.646 18.729)">
          <path id="パス_234" data-name="パス 234" d="M118.065,119.182h-5.5a.667.667,0,1,1,0-1.333H117.4v-4.782a.667.667,0,1,1,1.333,0v5.449A.668.668,0,0,1,118.065,119.182Z" transform="translate(-111.9 -112.4)" fill="#ce4e51"/>
        </g>
        <g id="グループ_240" data-name="グループ 240" transform="translate(3.066 3.183)">
          <path id="パス_235" data-name="パス 235" d="M23.982,25.349H19.067a.668.668,0,0,1-.667-.667V19.767a.668.668,0,0,1,.667-.667h4.916a.668.668,0,0,1,.667.667v4.916A.668.668,0,0,1,23.982,25.349Zm-4.249-1.333h3.582V20.433H19.733Z" transform="translate(-18.4 -19.1)" fill="#ce4e51"/>
        </g>
        <g id="グループ_241" data-name="グループ 241" transform="translate(3.066 15.946)">
          <path id="パス_236" data-name="パス 236" d="M23.982,101.949H19.067a.668.668,0,0,1-.667-.667V96.367a.668.668,0,0,1,.667-.667h4.916a.668.668,0,0,1,.667.667v4.916A.668.668,0,0,1,23.982,101.949Zm-4.249-1.333h3.582V97.033H19.733Z" transform="translate(-18.4 -95.7)" fill="#ce4e51"/>
        </g>
        <g id="グループ_242" data-name="グループ 242" transform="translate(15.88 15.946)">
          <path id="パス_237" data-name="パス 237" d="M100.865,101.949h-4.9a.668.668,0,0,1-.667-.667V96.367a.668.668,0,0,1,.667-.667h4.915a.668.668,0,0,1,.667.667v4.916A.694.694,0,0,1,100.865,101.949Zm-4.232-1.333h3.582V97.033H96.633Z" transform="translate(-95.3 -95.7)" fill="#ce4e51"/>
        </g>
        <g id="グループ_243" data-name="グループ 243" transform="translate(15.88 3.183)">
          <path id="パス_238" data-name="パス 238" d="M100.865,25.349h-4.9a.668.668,0,0,1-.667-.667V19.767a.668.668,0,0,1,.667-.667h4.915a.668.668,0,0,1,.667.667v4.916A.694.694,0,0,1,100.865,25.349Zm-4.232-1.333h3.582V20.433H96.633Z" transform="translate(-95.3 -19.1)" fill="#ce4e51"/>
        </g>
        <g id="グループ_244" data-name="グループ 244" transform="translate(2.716 11.097)">
          <path id="パス_239" data-name="パス 239" d="M26.231,67.933H16.967a.667.667,0,0,1,0-1.333h9.264a.667.667,0,0,1,0,1.333Z" transform="translate(-16.3 -66.6)" fill="#ce4e51"/>
        </g>
        <g id="グループ_245" data-name="グループ 245" transform="translate(2.716 13.014)">
          <path id="パス_240" data-name="パス 240" d="M20.7,79.433H16.891a.671.671,0,0,1,0-1.333H20.7a.671.671,0,0,1,0,1.333Z" transform="translate(-16.3 -78.1)" fill="#ce4e51"/>
        </g>
        <g id="グループ_246" data-name="グループ 246" transform="translate(8.315 13.014)">
          <path id="パス_241" data-name="パス 241" d="M52.279,79.433H50.4c-.277,0-.5-.3-.5-.667s.227-.667.5-.667h1.863c.277,0,.5.3.5.667S52.556,79.433,52.279,79.433Z" transform="translate(-49.9 -78.1)" fill="#ce4e51"/>
        </g>
        <g id="グループ_247" data-name="グループ 247" transform="translate(15.796 13.014)">
          <path id="パス_242" data-name="パス 242" d="M100.265,79.433h-4.8a.667.667,0,1,1,0-1.333h4.8a.667.667,0,1,1,0,1.333Z" transform="translate(-94.8 -78.1)" fill="#ce4e51"/>
        </g>
        <g id="グループ_248" data-name="グループ 248" transform="translate(14.03 8.098)">
          <path id="パス_243" data-name="パス 243" d="M91.432,52.932H84.867a.668.668,0,0,1-.667-.667v-3a.667.667,0,0,1,1.333,0V51.6h5.9a.667.667,0,1,1,0,1.333Z" transform="translate(-84.2 -48.6)" fill="#ce4e51"/>
        </g>
        <g id="グループ_249" data-name="グループ 249" transform="translate(11.847 13.014)">
          <path id="パス_244" data-name="パス 244" d="M71.9,79.433h-.133a.667.667,0,1,1,0-1.333H71.9a.667.667,0,0,1,0,1.333Z" transform="translate(-71.1 -78.1)" fill="#ce4e51"/>
        </g>
        <g id="グループ_250" data-name="グループ 250" transform="translate(13.98 13.014)">
          <path id="パス_245" data-name="パス 245" d="M84.7,79.433h-.133a.667.667,0,1,1,0-1.333H84.7a.667.667,0,1,1,0,1.333Z" transform="translate(-83.9 -78.1)" fill="#ce4e51"/>
        </g>
        <g id="グループ_251" data-name="グループ 251" transform="translate(9.914 3.183)">
          <path id="パス_246" data-name="パス 246" d="M62.633,25.349H60.167a.668.668,0,0,1-.667-.667V19.767a.667.667,0,0,1,1.333,0v4.249h1.8a.667.667,0,1,1,0,1.333Z" transform="translate(-59.5 -19.1)" fill="#ce4e51"/>
        </g>
        <g id="グループ_252" data-name="グループ 252" transform="translate(9.914 14.88)">
          <path id="パス_247" data-name="パス 247" d="M60.167,96.865A.668.668,0,0,1,59.5,96.2V92.949a.668.668,0,0,1,.667-.667H63.7V89.966a.667.667,0,0,1,1.333,0v2.966a.668.668,0,0,1-.667.667H60.833v2.583A.672.672,0,0,1,60.167,96.865Z" transform="translate(-59.5 -89.3)" fill="#ce4e51"/>
        </g>
      </g>
    </g>
  </g>
</svg>
