<svg xmlns="http://www.w3.org/2000/svg" width="37.436" height="35.035" viewBox="0 0 37.436 35.035">
  <path id="合体_3" data-name="合体 3" d="M-1682.6-1020.673l-.186-.183-.186.183h0v-.368l-14.848-14.655a10.581,10.581,0,0,1-3.182-7.581,10.583,10.583,0,0,1,3.182-7.582,10.863,10.863,0,0,1,7.682-3.141,10.884,10.884,0,0,1,7.354,2.829,10.886,10.886,0,0,1,7.354-2.829,10.862,10.862,0,0,1,7.682,3.141,10.581,10.581,0,0,1,3.183,7.582,10.579,10.579,0,0,1-3.183,7.581l-14.848,14.655v.369Z" transform="translate(1701.5 1054.5)" fill="#e6373b" stroke="rgba(0,0,0,0)" stroke-miterlimit="10" stroke-width="1"/>
</svg>
