<svg xmlns="http://www.w3.org/2000/svg" xmlns:xlink="http://www.w3.org/1999/xlink" width="375" height="615" viewBox="0 0 375 615">
  <defs>
    <clipPath id="clip-path">
      <rect id="長方形_418" data-name="長方形 418" width="375" height="615" transform="translate(0 70)" fill="#fff" stroke="#707070" stroke-width="1"/>
    </clipPath>
    <radialGradient id="radial-gradient" cx="0.5" cy="0.5" r="0.5" gradientUnits="objectBoundingBox">
      <stop offset="0" stop-color="#ffeb00"/>
      <stop offset="0.616" stop-color="#fff0a9"/>
      <stop offset="1" stop-color="#feabaa" stop-opacity="0"/>
    </radialGradient>
    <filter id="楕円形_95" x="-6" y="134" width="382" height="383" filterUnits="userSpaceOnUse">
      <feOffset input="SourceAlpha"/>
      <feGaussianBlur stdDeviation="10" result="blur"/>
      <feFlood flood-color="#fff"/>
      <feComposite operator="in" in2="blur"/>
      <feComposite in="SourceGraphic"/>
    </filter>
    <clipPath id="clip-path-2">
      <path id="パス_515" data-name="パス 515" d="M104.2,0A104.2,104.2,0,1,1,0,104.2,104.2,104.2,0,0,1,104.2,0Z" transform="translate(0 0)" fill="#fff" opacity="0.83"/>
    </clipPath>
  </defs>
  <g id="マスクグループ_8" data-name="マスクグループ 8" transform="translate(0 -70)" clip-path="url(#clip-path)">
    <g id="グループ_740" data-name="グループ 740">
      <g id="グループ_560" data-name="グループ 560" transform="translate(-168.31 69.8)" opacity="0.65">
        <g id="グループ_559" data-name="グループ 559">
          <path id="パス_826" data-name="パス 826" d="M372.51,612.2a441.713,441.713,0,0,1-44.411-2.243L370.7,313.2h2.719l43.5,296.756A428.524,428.524,0,0,1,372.51,612.2ZM240.636,592.765a393.842,393.842,0,0,1-79.759-34.385l206.195-246.3a3.877,3.877,0,0,0,2.266.747Zm264.2-.374-128.7-279.564c.906-.374,1.36-.374,2.266-.747L584.6,558.006A440.842,440.842,0,0,1,504.837,592.391ZM94.26,509.419A306.6,306.6,0,0,1,43.052,448.5L363.446,308.716a5.4,5.4,0,0,0,1.36,1.495Zm557.405-.747L380.214,310.585a8.06,8.06,0,0,0,1.359-1.869L702.421,447.751A320.2,320.2,0,0,1,651.666,508.672ZM10.876,378.981A252.419,252.419,0,0,1,0,305.726l362.54-.747a4.008,4.008,0,0,0,.453,2.242Zm723.267-.374L382.026,307.221c0-.747.453-1.495.453-2.242v-.747h362.54v.374A253.692,253.692,0,0,1,734.143,378.607Zm-371.15-75.5L10.423,232.471a274.864,274.864,0,0,1,31.722-69.517l321.3,138.661C362.993,301.989,362.993,302.362,362.993,303.11Zm19.033,0a1.86,1.86,0,0,0-.906-1.495L701.515,161.459A280.161,280.161,0,0,1,733.69,230.6Zm-17.221-3.364L92.9,102.033a346.482,346.482,0,0,1,66.617-48.961L367.072,298.251C366.165,298.625,365.712,299.372,364.806,299.746Zm15.408,0-1.813-1.495L583.689,51.577a349.679,349.679,0,0,1,67.07,48.961ZM368.884,297.5,239.276,18.314A428.2,428.2,0,0,1,326.739.374L371.15,297.13A4.834,4.834,0,0,0,368.884,297.5Zm7.251,0a3.994,3.994,0,0,0-2.266-.374L416.015,0c29.91,2.99,59.366,8.6,87.463,17.566Z" fill="url(#radial-gradient)"/>
        </g>
      </g>
      <g id="グループ_399" data-name="グループ 399" transform="translate(-4.516 233.661)">
        <g id="グループ_398" data-name="グループ 398" transform="translate(28.877 0)">
          <g id="グループ_397" data-name="グループ 397" transform="translate(0 0)">
            <g transform="matrix(1, 0, 0, 1, -24.36, -163.66)" filter="url(#楕円形_95)">
              <ellipse id="楕円形_95-2" data-name="楕円形 95" cx="161" cy="161.5" rx="161" ry="161.5" transform="translate(24 164)" fill="#fff" opacity="0.217"/>
            </g>
            <ellipse id="楕円形_96" data-name="楕円形 96" cx="141.5" cy="142.5" rx="141.5" ry="142.5" transform="translate(19.64 19.339)" fill="#fff" opacity="0.572"/>
            <g id="マスクグループ_3" data-name="マスクグループ 3" transform="translate(58.929 57.783)" clip-path="url(#clip-path-2)">
              <rect id="画像_5" data-name="画像 5" width="416" height="208" transform="translate(-101.289 -0.444)" fill="#fff"/>
            </g>
          </g>
        </g>
        <g id="グループ_395" data-name="グループ 395" transform="translate(0 20.088)">
          <path id="パス_508" data-name="パス 508" d="M15.983,0c1.844,14.958,15.983,15.368,15.983,15.368s-14.138.41-15.983,15.368C14.138,15.983,0,15.368,0,15.368S14.138,14.958,15.983,0Z" transform="translate(272.13 237.69)" fill="#00adff"/>
          <path id="パス_511" data-name="パス 511" d="M7.853,0a8.306,8.306,0,0,0,7.853,7.551A8.306,8.306,0,0,0,7.853,15.1C6.947,7.853,0,7.551,0,7.551A8.306,8.306,0,0,0,7.853,0Z" transform="translate(233.787 0)" fill="#00adff"/>
          <path id="パス_510" data-name="パス 510" d="M11.221,0c1.295,10.5,11.221,10.789,11.221,10.789s-9.926.288-11.221,10.789C9.926,11.221,0,10.789,0,10.789S9.926,10.5,11.221,0Z" transform="translate(340.246 100.771)" fill="#00adff"/>
          <path id="パス_509" data-name="パス 509" d="M23.107,0c2.666,21.625,23.107,22.218,23.107,22.218s-20.44.592-23.107,22.218C20.44,23.107,0,22.218,0,22.218S20.44,21.625,23.107,0Z" transform="translate(5 105.775)" fill="#00adff"/>
          <path id="パス_512" data-name="パス 512" d="M19.4,0c2.238,18.157,19.4,18.654,19.4,18.654s-17.162.5-19.4,18.654C17.162,19.4,0,18.654,0,18.654S17.162,18.157,19.4,0Z" transform="translate(80.595 245.089)" fill="#00adff"/>
        </g>
      </g>
    </g>
  </g>
</svg>
