<svg xmlns="http://www.w3.org/2000/svg" width="22.474" height="30.816" viewBox="0 0 22.474 30.816">
  <g id="グループ_694" data-name="グループ 694" transform="translate(-63.063 -107.942)">
    <g id="グループ_258" data-name="グループ 258" transform="translate(85.637 138.758) rotate(180)">
      <circle id="楕円形_74" data-name="楕円形 74" cx="9.514" cy="9.514" r="9.514" transform="translate(1.755 11.789)" fill="#f7a0a0"/>
      <path id="パス_258" data-name="パス 258" d="M22.574,4.067a13.894,13.894,0,0,1-4.55,10.479A10.348,10.348,0,0,1,11.337,17.1,10.348,10.348,0,0,1,4.65,14.546,13.785,13.785,0,0,1,.1,4.067,15.659,15.659,0,0,1,.652,0H22.023A15.659,15.659,0,0,1,22.574,4.067Z" fill="#f7a0a0"/>
    </g>
    <text id="_" data-name="?" transform="translate(71 124)" fill="#fff" font-size="12" font-family="RobotoMono-Bold, Roboto Mono" font-weight="700" letter-spacing="0.1em"><tspan x="0" y="0">?</tspan></text>
  </g>
</svg>
