<svg xmlns="http://www.w3.org/2000/svg" width="35.212" height="42.941" viewBox="0 0 35.212 42.941">
  <g id="グループ_255" data-name="グループ 255" transform="matrix(0.883, -0.469, 0.469, 0.883, 0.044, 9.153)">
    <g id="グループ_254" data-name="グループ 254" transform="translate(-0.05)">
      <path id="パス_249" data-name="パス 249" d="M19.5,10.579c0,1.117-.131,2.168-.2,3.22l-.2,1.971c-.131.986-.2,1.971-.263,2.957v.329l-.2,3.154-.329,5.519-.2,3.614-.394,4.468A2.6,2.6,0,0,1,15.1,38.241h-.131a2.545,2.545,0,0,1-2.431-2.76l.2-3.154.131-1.971.46-7.1.131-2.168.131-2.431c.066-1.183.2-2.365.329-3.482v-.066c.066-.854.2-1.643.263-2.431.066-1.183.131-2.3.131-3.482a5.154,5.154,0,0,0-.131-.92,4,4,0,0,0-1.051-2.1,3.366,3.366,0,0,0-2.5-.92H10.5a2.464,2.464,0,0,0-.723.066,4.247,4.247,0,0,0-1.38.394A4.532,4.532,0,0,0,6.816,6.9a4.664,4.664,0,0,0-.657.92c-.131.263-.263.46-.394.723a7.158,7.158,0,0,0-.46,3.417,2.649,2.649,0,1,1-5.256.657,8.81,8.81,0,0,1,0-2.628A9.48,9.48,0,0,1,.64,7.359,11.019,11.019,0,0,1,2.808,3.417a12.142,12.142,0,0,1,.92-.92A8.95,8.95,0,0,1,6.291.854,11.173,11.173,0,0,1,10.5,0a8.878,8.878,0,0,1,4.6,1.183,9.486,9.486,0,0,1,2.563,2.3A10.426,10.426,0,0,1,19.5,9Q19.5,9.79,19.5,10.579Z" transform="translate(0.05)" fill="#ce4e51"/>
    </g>
    <path id="パス_250" data-name="パス 250" d="M24.885,42.1l-.2,3.614c-.131,0-.263.066-.394.066a7.156,7.156,0,0,0-1.708.329l-1.708.394-1.577.329.131-1.971.657-.394,1.511-.788c.526-.263.986-.591,1.511-.854a3.819,3.819,0,0,1,1.643-.591C24.819,42.1,24.885,42.1,24.885,42.1Z" transform="translate(-6.636 -14.438)" fill="#f7b6b7"/>
    <path id="パス_251" data-name="パス 251" d="M25.819,28.4v.329l-.2,3.154a4.84,4.84,0,0,1-.92.263,7.156,7.156,0,0,0-1.708.329l-1.708.394-.986.2.131-2.168.066-.066,1.511-.788c.526-.263.986-.591,1.511-.854a4.93,4.93,0,0,1,1.643-.591A1.11,1.11,0,0,1,25.819,28.4Z" transform="translate(-6.979 -9.74)" fill="#f7b6b7"/>
    <path id="パス_252" data-name="パス 252" d="M26.785,16.1c0,1.117-.131,2.168-.2,3.22h0a6.991,6.991,0,0,1-1.643.591,13.121,13.121,0,0,0-1.708.329l-1.708.394H21.2c.066-.854.2-1.643.263-2.431l.92-.46c.526-.263.986-.591,1.511-.854a3.819,3.819,0,0,1,1.643-.591A3.556,3.556,0,0,1,26.785,16.1Z" transform="translate(-7.288 -5.521)" fill="#f7b6b7"/>
    <path id="パス_253" data-name="パス 253" d="M24.5,4.1a5.481,5.481,0,0,1-.526.788c-.394.46-.788.92-1.117,1.38l-.986,1.38L20.951,8.9a4,4,0,0,0-1.051-2.1l.066-.131.657-1.643a15.854,15.854,0,0,0,.526-1.643A3.581,3.581,0,0,1,21.937,1.8h0A8.6,8.6,0,0,1,24.5,4.1Z" transform="translate(-6.842 -0.617)" fill="#f7b6b7"/>
    <path id="パス_254" data-name="パス 254" d="M11.745,5.768a4.247,4.247,0,0,0-1.38.394l-.591-.394L8.263,4.782,6.883,3.731,5.7,2.943A8.95,8.95,0,0,1,8.263,1.3c.131.2.263.329.394.526L9.774,3.14l1.051,1.38C11.154,4.98,11.482,5.374,11.745,5.768Z" transform="translate(-1.972 -0.446)" fill="#f7b6b7"/>
    <path id="パス_255" data-name="パス 255" d="M6.176,11.66c-.131.263-.263.46-.394.723-.788.2-1.511.394-2.3.657l-1.708.394-1.708.394H0A9.48,9.48,0,0,1,.591,11.2l.986.066,1.774.131C4.271,11.463,5.191,11.529,6.176,11.66Z" transform="translate(-0.017 -3.841)" fill="#f7b6b7"/>
  </g>
</svg>
