<svg id="グループ_216" data-name="グループ 216" xmlns="http://www.w3.org/2000/svg" width="23.557" height="23.558" viewBox="0 0 23.557 23.558">
  <path id="パス_203" data-name="パス 203" d="M23.05,14.079l-1.794-1.417a1.186,1.186,0,0,1-.446-.934v-.014a1.181,1.181,0,0,1,.446-.938L23.05,9.36A1.17,1.17,0,0,0,23.4,7.994l-.787-1.9A1.169,1.169,0,0,0,21.4,5.376l-2.272.267a1.2,1.2,0,0,1-.98-.35l-.009-.009a1.193,1.193,0,0,1-.35-.975l.267-2.272A1.175,1.175,0,0,0,17.341.817l-1.9-.787a1.17,1.17,0,0,0-1.366.354L12.663,2.179a1.186,1.186,0,0,1-.934.446h-.014a1.181,1.181,0,0,1-.938-.446L9.36.385A1.17,1.17,0,0,0,7.994.031l-1.9.787a1.169,1.169,0,0,0-.713,1.219l.267,2.272a1.2,1.2,0,0,1-.35.98L5.284,5.3a1.193,1.193,0,0,1-.975.35L2.036,5.381a1.175,1.175,0,0,0-1.219.713l-.787,1.9A1.17,1.17,0,0,0,.385,9.36l1.794,1.417a1.186,1.186,0,0,1,.446.934v.014a1.181,1.181,0,0,1-.446.938L.385,14.079a1.17,1.17,0,0,0-.354,1.366l.787,1.9a1.169,1.169,0,0,0,1.219.713L4.309,17.8a1.2,1.2,0,0,1,.98.35l.009.009a1.193,1.193,0,0,1,.35.975L5.381,21.4a1.175,1.175,0,0,0,.713,1.219l1.9.787a1.17,1.17,0,0,0,1.366-.354l1.417-1.794a1.186,1.186,0,0,1,.934-.446h.014a1.181,1.181,0,0,1,.938.446l1.417,1.794a1.17,1.17,0,0,0,1.366.354l1.9-.787a1.169,1.169,0,0,0,.713-1.219L17.8,19.13a1.2,1.2,0,0,1,.35-.98l.009-.009a1.193,1.193,0,0,1,.975-.35l2.272.267a1.175,1.175,0,0,0,1.219-.713l.787-1.9A1.175,1.175,0,0,0,23.05,14.079ZM12.883,15.11a3.577,3.577,0,1,1,1.937-4.674A3.577,3.577,0,0,1,12.883,15.11Z" transform="translate(0.059 0.059)" fill="#4c4c4c"/>
</svg>
