<svg xmlns="http://www.w3.org/2000/svg" width="35.213" height="42.942" viewBox="0 0 35.213 42.942">
  <g id="グループ_390" data-name="グループ 390" transform="matrix(0.883, -0.469, 0.469, 0.883, 0.045, 9.154)">
    <path id="前面オブジェクトで型抜き_8" data-name="前面オブジェクトで型抜き 8" d="M-608.174-3853.389h-.132a2.579,2.579,0,0,1-1.819-.876,2.5,2.5,0,0,1-.611-1.883l.194-3.1,1.514-.316,1.708-.394a7.182,7.182,0,0,1,1.7-.328h.009a.827.827,0,0,0,.2-.033.828.828,0,0,1,.2-.033l.2-3.614s-.067,0-.131.132a3.8,3.8,0,0,0-1.644.591c-.264.132-.514.282-.756.428l0,0c-.241.145-.489.294-.75.424l-1.511.788-.594.356,0-.028.46-7.1.132-2.169.131-2.431c.069-1.223.206-2.438.329-3.482v-.067h.328l1.708-.394a4.652,4.652,0,0,1,1.021-.216c.224-.03.455-.062.688-.114a6.938,6.938,0,0,0,1.642-.591q-.058.59-.117,1.178l-.08.792c-.129.97-.2,1.958-.26,2.912l0,.031v-.051h-.005a1.1,1.1,0,0,0-.652.2,4.97,4.97,0,0,0-1.64.59c-.263.131-.51.279-.748.422l-.011.007c-.242.145-.492.3-.755.427l-1.511.789-.065.065-.132,2.168.985-.2,1.708-.395a7.148,7.148,0,0,1,1.7-.328,4.853,4.853,0,0,0,.926-.263l.2-3.138v.05l-.2,3.154-.328,5.519-.2,3.614-.394,4.468A2.593,2.593,0,0,1-608.174-3853.389Zm-12.44-23.3a2.664,2.664,0,0,1-2.607-2.323,8.722,8.722,0,0,1,0-2.628l1.708-.395,1.708-.394c.866-.289,1.648-.494,2.3-.657a7.17,7.17,0,0,0-.458,3.416,2.567,2.567,0,0,1-.534,1.947,2.693,2.693,0,0,1-1.766,1.01A2.581,2.581,0,0,1-620.613-3876.691Zm11.52-2.258v0l.01-.178c.062-1.122.121-2.18.121-3.3a5.2,5.2,0,0,0-.131-.92l-.014-.072.867-1.177.985-1.38c.33-.464.731-.93,1.118-1.38l.009-.012a5.53,5.53,0,0,0,.516-.776,10.4,10.4,0,0,1,1.839,5.518v1.576h-.011a3.537,3.537,0,0,0-1.237.2,3.8,3.8,0,0,0-1.643.592c-.265.132-.515.282-.758.428s-.492.295-.754.426l-.917.459Zm-8.016-4.862h0c-1-.133-1.929-.2-2.825-.262l-1.774-.131-.922-.062a11.049,11.049,0,0,1,2.17-3.946,5.682,5.682,0,0,1,.585-.6c.1-.092.219-.2.335-.32l1.034.689.149.1,1.38,1.051,1.511.986.591.4a4.549,4.549,0,0,0-1.576,1.182,4.676,4.676,0,0,0-.654.914l0,.005Zm6.921-1.686h0a3.409,3.409,0,0,0-2.451-.876h-.132a2.489,2.489,0,0,0-.723.065c-.149-.224-.319-.447-.5-.683L-614-3887c-.135-.177-.274-.36-.413-.555l-1.052-1.38-1.116-1.314c-.065-.1-.13-.179-.194-.259l0,0c-.061-.076-.13-.163-.2-.263a11.159,11.159,0,0,1,4.2-.855,8.933,8.933,0,0,1,4.6,1.182,3.616,3.616,0,0,0-.788,1.578,15.818,15.818,0,0,1-.525,1.642l-.657,1.644-.043.087Z" transform="translate(623.269 3891.629)" fill="#fff"/>
  </g>
</svg>
