<svg xmlns="http://www.w3.org/2000/svg" width="19.446" height="19.008" viewBox="0 0 19.446 19.008">
  <path id="パス_918" data-name="パス 918" d="M9.818,1.785a2.131,2.131,0,0,1,.8.178c.446.357,1.517,1.339,2.766,2.5V2.945a.576.576,0,0,1,.535-.535h1.16a.576.576,0,0,1,.535.535V6.693A13.359,13.359,0,0,1,17.582,9.1c.268.892,0,1.606-.446,1.606H15.618v3.837a2.685,2.685,0,0,1-2.677,2.677h-.089c-.178,0-.625,0-.625-.268v-1.7a1.564,1.564,0,0,0-1.517-1.517H8.658A1.564,1.564,0,0,0,7.141,15.26v1.7c0,.268-.714.268-.714.268A2.685,2.685,0,0,1,3.75,14.546V10.708H2.322c-.446,0-.714-.714-.446-1.606.357-1.16,5.89-6.336,7.05-7.139a2.1,2.1,0,0,1,.714-.178h.178M9.818,0H9.639A3.143,3.143,0,0,0,8.033.446C6.962,1.16.8,6.6.27,8.478a3.242,3.242,0,0,0,.268,3.034,2.082,2.082,0,0,0,1.517.892v2.052a4.475,4.475,0,0,0,4.462,4.462c1.963,0,2.5-1.249,2.5-2.052V15.438h1.517v1.517a2.16,2.16,0,0,0,2.409,2.052h.089A4.4,4.4,0,0,0,17.4,14.546V12.493A2.411,2.411,0,0,0,18.92,11.6a3.362,3.362,0,0,0,.357-2.945A8.769,8.769,0,0,0,17.4,6.068V2.945a2.363,2.363,0,0,0-2.32-2.32h-1.16a2.423,2.423,0,0,0-1.517.535c-.357-.268-.625-.535-.892-.714A3.54,3.54,0,0,0,9.818,0Z" transform="translate(-0.017)" fill="#fff"/>
</svg>
