<svg xmlns="http://www.w3.org/2000/svg" width="39.695" height="65.875" viewBox="0 0 39.695 65.875">
  <g id="クエスチョンマーク" transform="translate(-101.741 0)" opacity="0.619">
    <path id="パス_866" data-name="パス 866" d="M139.619,10.975a20.074,20.074,0,0,0-7.635-7.852A22.732,22.732,0,0,0,120.428,0a25.907,25.907,0,0,0-13.041,3.284,14.578,14.578,0,0,0-4.781,4.129,2.5,2.5,0,0,0,.071,3.839l4.623,3.7a2.5,2.5,0,0,0,3.2-.067,6.276,6.276,0,0,1,2.348-2.043,14.835,14.835,0,0,1,7.579-1.834,11.5,11.5,0,0,1,7.464,2.665,8.363,8.363,0,0,1,1.972,2.4,4.389,4.389,0,0,1,.561,2,8.321,8.321,0,0,1-.85,3.917,7.985,7.985,0,0,1-1.51,2.026,16.927,16.927,0,0,1-3.684,2.635c-1.447.817-3.006,1.535-4.582,2.4a14.175,14.175,0,0,0-5.108,4.573,12.377,12.377,0,0,0-1.6,3.556,15.053,15.053,0,0,0-.512,4v2.664a2.5,2.5,0,0,0,2.5,2.5H121.1a2.5,2.5,0,0,0,2.5-2.5V41.191a4.182,4.182,0,0,1,.118-1.085,1.349,1.349,0,0,1,.318-.6,4.293,4.293,0,0,1,1.119-.815c.9-.508,2.354-1.193,4-2.081a26.6,26.6,0,0,0,7.973-6.184,18.27,18.27,0,0,0,3.129-5.4,19.941,19.941,0,0,0,1.187-6.943A15.346,15.346,0,0,0,139.619,10.975Z" fill="#fbb9bb"/>
    <path id="パス_867" data-name="パス 867" d="M182.813,406.44a6.791,6.791,0,1,0,6.789,6.792A6.793,6.793,0,0,0,182.813,406.44Z" transform="translate(-64.723 -354.146)" fill="#fbb9bb"/>
  </g>
</svg>
