<svg xmlns="http://www.w3.org/2000/svg" width="26.935" height="25.41" viewBox="0 0 26.935 25.41">
  <g id="メニューの無料アイコン9" transform="translate(0 -14.489)">
    <path id="パス_871" data-name="パス 871" d="M2.118,14.489a2.118,2.118,0,1,0,2.118,2.118A2.117,2.117,0,0,0,2.118,14.489Z" fill="#707070"/>
    <rect id="長方形_351" data-name="長方形 351" width="19.143" height="4.235" transform="translate(7.792 14.489)" fill="#707070"/>
    <path id="パス_872" data-name="パス 872" d="M2.118,215.748a2.118,2.118,0,1,0,2.118,2.118A2.117,2.117,0,0,0,2.118,215.748Z" transform="translate(0 -190.671)" fill="#707070"/>
    <rect id="長方形_352" data-name="長方形 352" width="19.143" height="4.235" transform="translate(7.792 25.077)" fill="#707070"/>
    <path id="パス_873" data-name="パス 873" d="M2.118,417.007a2.118,2.118,0,1,0,2.118,2.118A2.117,2.117,0,0,0,2.118,417.007Z" transform="translate(0 -381.343)" fill="#707070"/>
    <rect id="長方形_353" data-name="長方形 353" width="19.143" height="4.235" transform="translate(7.792 35.664)" fill="#707070"/>
  </g>
</svg>
