<svg xmlns="http://www.w3.org/2000/svg" viewBox="0 0 224.61 408.29"><defs><style>.cls-1{fill:#ffd06b;}.cls-2{fill:#fff;}.cls-3{fill:#ffbc6b;}.cls-4,.cls-5,.cls-6,.cls-7{fill:none;}.cls-4,.cls-5,.cls-6,.cls-7,.cls-8{stroke:#fff;stroke-linecap:round;stroke-miterlimit:10;}.cls-4{stroke-width:3.8px;}.cls-5{stroke-width:1.57px;}.cls-6{stroke-width:1.24px;}.cls-7{stroke-width:3px;}.cls-11,.cls-8{fill:#ce6e9e;}.cls-8{stroke-width:6px;}.cls-9{fill:#ed7ab0;}.cls-10{fill:#40bbf3;}</style></defs><title>logo</title><g id="レイヤー_2" data-name="レイヤー 2"><g id="レイヤー_8" data-name="レイヤー 8"><path class="cls-1" d="M17.94,156.28,17.39,154c-.38-1.58-9.07-39,11.2-64.76,12-15.24,31.51-23,58-23l2.91,0,3.5,0c22.25,0,35.62,5.79,46.75,12,22.66,12.74,47,36.18,74.41,71.67l3.68,4.76-99.58,1.27-84.61.54Z"/><path class="cls-2" d="M93,69.2c23.35,0,57.8,3.57,118.79,82.55l-93.57,1.19-84.56.54-13.33-.17S.12,69.34,86.58,69.24c2,0,4.17,0,6.4,0m0-6-3.52,0-2.89,0c-27.44,0-47.74,8.16-60.33,24.16-21.17,26.88-12.16,65.68-11.77,67.32l1.1,4.53,4.66.06,13.33.17h.12l84.56-.54,93.61-1.19,12-.16-7.35-9.51c-27.66-35.81-52.3-59.51-75.32-72.45C121.76,64.71,106.54,63.2,93,63.2Z"/><path class="cls-3" d="M211.77,151.75C177.86,107.83,152.15,87.24,132,77.61c-2.1,17.59-9.18,45.89-31.73,75.45l17.93-.12Z"/><line class="cls-4" x1="69.21" y1="112" x2="92" y2="112"/><line class="cls-4" x1="24.23" y1="112" x2="47.02" y2="112"/><path class="cls-5" d="M30.22,130.23c1.46,0,1.46,1.11,2.93,1.11s1.47-1.11,2.93-1.11,1.47,1.11,2.93,1.11,1.47-1.11,2.94-1.11,1.46,1.11,2.93,1.11,1.47-1.11,2.93-1.11,1.47,1.11,2.94,1.11,1.47-1.11,2.93-1.11,1.47,1.11,2.94,1.11,1.47-1.11,2.93-1.11,1.47,1.11,2.94,1.11,1.47-1.11,2.94-1.11,1.47,1.11,2.93,1.11,1.47-1.11,2.94-1.11,1.47,1.11,2.94,1.11,1.47-1.11,2.93-1.11,1.47,1.11,2.94,1.11,1.47-1.11,3-1.11,1.47,1.11,2.94,1.11"/><path class="cls-5" d="M86,135.77c-1.47,0-1.47-1.12-2.94-1.12s-1.46,1.12-2.93,1.12-1.46-1.12-2.93-1.12-1.46,1.12-2.93,1.12-1.47-1.12-2.93-1.12-1.47,1.12-2.94,1.12-1.46-1.12-2.93-1.12-1.47,1.12-2.94,1.12-1.46-1.12-2.93-1.12-1.47,1.12-2.94,1.12-1.47-1.12-2.93-1.12-1.47,1.12-2.94,1.12-1.47-1.12-2.94-1.12-1.47,1.12-2.93,1.12-1.47-1.12-2.94-1.12-1.47,1.12-2.94,1.12-1.47-1.12-2.94-1.12-1.47,1.12-2.94,1.12-1.47-1.12-2.94-1.12"/><path class="cls-6" d="M30.29,134.77c-.8,0-1.46-1-1.46-2.27s.66-2.27,1.46-2.27"/><path class="cls-6" d="M86,135.51c.81,0,1.46-1,1.46-2.27S86.81,131,86,131"/><path class="cls-7" d="M86,133.55c-1.47,0-1.47-1.12-2.94-1.12s-1.46,1.12-2.93,1.12-1.46-1.12-2.93-1.12-1.46,1.12-2.93,1.12-1.47-1.12-2.93-1.12-1.47,1.12-2.94,1.12-1.46-1.12-2.93-1.12-1.47,1.12-2.94,1.12-1.46-1.12-2.93-1.12-1.47,1.12-2.94,1.12-1.47-1.12-2.93-1.12-1.47,1.12-2.94,1.12-1.47-1.12-2.94-1.12-1.47,1.12-2.93,1.12-1.47-1.12-2.94-1.12-1.47,1.12-2.94,1.12-1.47-1.12-2.94-1.12-1.47,1.12-2.94,1.12-1.47-1.12-2.94-1.12"/><path class="cls-8" d="M166.41,152.48,215.3,16.28A7.08,7.08,0,0,0,211,7.21L200.46,3.42a7.1,7.1,0,0,0-9.07,4.27l-52,144.79"/><rect class="cls-2" x="199.99" y="5.13" width="5.84" height="16.09" rx="2.92" transform="translate(121.95 199.7) rotate(-70.25)"/><path class="cls-9" d="M53.09,404.14a27.46,27.46,0,0,1-27.43-24.9L3.3,149.23l218-1L201,378.47a27.44,27.44,0,0,1-27.34,25.14Z"/><path class="cls-2" d="M218.06,151.28h0m0,0L198,378.21a24.57,24.57,0,0,1-24.36,22.4l-120.46.53h-.11A24.57,24.57,0,0,1,28.64,379l-22-226.74,211.45-.93m6.55-6-6.58,0-211.45.93-6.58,0,.64,6.55,22,226.74a30.46,30.46,0,0,0,30.42,27.61h.14l120.46-.53A30.42,30.42,0,0,0,204,378.73l20-226.92.58-6.56Zm-6.55,0h0Zm0,12Z"/><path class="cls-10" d="M139.2,292.62a15.63,15.63,0,0,1-10.61-3.95l-.13-.11c-8.57-7.81-13.44-9-15.57-9a5.25,5.25,0,0,0-.92.08l-.26.05a31.59,31.59,0,0,1-5.75.61,23.92,23.92,0,0,1-2.55-.14c-1.1,1.9-2.28,3.77-3.52,5.59a7,7,0,0,1-10.65,1.08,7.16,7.16,0,0,1-.83-9.11c.86-1.25,1.67-2.53,2.44-3.82-.88-1.1-1.9-2.58-3.33-4.7-2,4-4.33,6.83-7,8.48A11.6,11.6,0,0,1,71,279a18.58,18.58,0,0,1-7.86-4.4,34.25,34.25,0,0,1-10.35,9.77A21.42,21.42,0,0,1,42,287.82a11.87,11.87,0,0,1-4.48-.84A7.21,7.21,0,0,1,33,280.11a25.68,25.68,0,0,1-4.07,1.81,13.85,13.85,0,0,1-4.59.81,11.68,11.68,0,0,1-8.08-3.19c-6.26-5.81-6.08-17-3.82-25.5C16,240.77,24.62,231.2,35.64,228.39a33.56,33.56,0,0,1,10.59-1.77,22.5,22.5,0,0,1,13.26,3.9c5.39,3.8,8.6,9.91,9.57,18.2a21.12,21.12,0,0,1,9.91-2.4h.67l.66-2.68c-.38,0-.7.07-1,.09H79a7,7,0,0,1-.5-14c.3,0,2.63-.58,8.84-4.48a8.6,8.6,0,0,1,4.29-1.23,6.57,6.57,0,0,1,5.56,3,7.09,7.09,0,0,1,.14,7.57c-.36,1-1.57,4.85-4.66,17.47,1.29,1.57,2.75,3.66,4.75,6.65,2.1-8,1.18-13,1.17-13.07a7,7,0,0,1,5.33-8.28,7.25,7.25,0,0,1,1.53-.17A7,7,0,0,1,111,240a6.89,6.89,0,0,1,1.88-1.54,7.12,7.12,0,0,1,3.4-.88l.54,0a21,21,0,0,1-5-6.93,7,7,0,0,1,3.72-9.18,7.16,7.16,0,0,1,2.73-.55,7,7,0,0,1,3.12.73c.5-2.45.87-4,.94-4.28a7,7,0,0,1,6.68-4.92,7,7,0,0,1,6.79,8.74c-.5,2.11-1.06,4.87-1.59,7.85a7,7,0,0,1,6.45,6.54,7.15,7.15,0,0,1-6.37,7.42c-.71.09-1.42.15-2.12.18-.09.84-.18,1.67-.26,2.49a7,7,0,0,1,6.8,6.56,7.16,7.16,0,0,1-6.38,7.42l-1.12.11c.11,9.19,1.63,12.8,2.59,14.17a6.79,6.79,0,0,1,.67,1.21c1.51,1.24,2.72,2.35,3.49,3l.12.11a1.86,1.86,0,0,0,1.17.31,5.79,5.79,0,0,0,2.14-.48c4.32-1.78,9.61-8.66,10.29-22.19l0-.35.08-2.92h.41a114.2,114.2,0,0,1,3.21-15.11c5.14-18.37,8.44-20.54,11.63-21.27a7,7,0,0,1,1.58-.18,7.24,7.24,0,0,1,6.94,5.37,7.06,7.06,0,0,1-2.29,7.22c-2.28,4.92-7.11,19.56-7.65,30.18a60.41,60.41,0,0,0,.65,8.94c.59-.73,1.27-1.65,2-2.78,6.19-9.12,11-13,16.19-13a10.51,10.51,0,0,1,2,.2c7.21,1.49,8.86,9.55,9.91,15.05a42.93,42.93,0,0,0,5.55-5.56,7.46,7.46,0,0,1,5.59-2.62,6.78,6.78,0,0,1,3.39.91,7,7,0,0,1,1.84,10.6C205.61,279,199.48,283,193.94,283h0a9.47,9.47,0,0,1-1.07-.05,10.35,10.35,0,0,1-8.09-5.38c-1.15-2-1.61-4.5-2.16-7.37l-.18-.92c-.74.94-1.62,2.13-2.63,3.63-2.16,3.19-7.91,11.65-15.35,11.65a9.84,9.84,0,0,1-4.42-1.05,10.36,10.36,0,0,1-2.27-1.52,25.89,25.89,0,0,1-11.12,9.09,19.48,19.48,0,0,1-7.45,1.53Zm-98.65-19.2a7.22,7.22,0,0,1,1.72.36,12.88,12.88,0,0,0,4.87-2.46,20.56,20.56,0,0,0,8.23-16.06c.13-6.78-1.22-11.37-3.92-13.28a8.84,8.84,0,0,0-5.19-1.37h-.34a73,73,0,0,1,.72,12.22C46.33,262.32,43.88,268.89,40.55,273.42Zm-8.12-27.63c-4.11,4.05-5.94,9.83-6.47,11.84-1.35,5.07-1,8.82-.55,10.63,4.53-2.18,7-7.51,7.23-15.89A53.74,53.74,0,0,0,32.43,245.79Zm80.45,19.8a22.32,22.32,0,0,1,4.6.5,90.13,90.13,0,0,1-.32-10,22.1,22.1,0,0,1-4.47-4.13,56.94,56.94,0,0,1-2.77,13.85A19.37,19.37,0,0,1,112.88,265.59Zm-37-4.6a6.38,6.38,0,0,0-1.56,1,3.76,3.76,0,0,0-1.51,2.45,2.48,2.48,0,0,0,1,.68A19.65,19.65,0,0,0,75.86,261Z"/><path class="cls-2" d="M128.94,215.47a3.86,3.86,0,0,1,1.2.19,4,4,0,0,1,2.68,4.8c-.66,2.78-1.48,6.91-2.24,11.69,0,0,0,0,0,0h.68a12.11,12.11,0,0,0,1.76-.12,3.6,3.6,0,0,1,.56,0,4,4,0,0,1,4,3.75,4.17,4.17,0,0,1-3.75,4.26,22,22,0,0,1-2.64.16c-.6,0-1.17,0-1.74-.07h0a0,0,0,0,0,0,0c-.35,2.83-.66,5.74-.88,8.63,0,0,0,0,0,0l.73,0a12.34,12.34,0,0,0,1.78-.13,5.46,5.46,0,0,1,.56,0,4,4,0,0,1,4,3.76,4.17,4.17,0,0,1-3.76,4.25,22,22,0,0,1-2.63.17c-.38,0-.74,0-1.1-.05-.16,8.13.61,15.29,3.11,18.86a3.83,3.83,0,0,1,.58,1.29c1.73,1.38,3.1,2.63,4,3.47l.12.11a4.66,4.66,0,0,0,3.19,1.09,8.71,8.71,0,0,0,3.28-.71c5.38-2.21,11.4-9.9,12.15-24.81,0-.23,0-.38,0-.45h0a5.79,5.79,0,0,1,.18-1.21L155,254a107.73,107.73,0,0,1,3.24-15.61c5.09-18.17,8-18.83,9.4-19.15a4.13,4.13,0,0,1,5,3,4,4,0,0,1-1.75,4.45h0c-2.15,4.24-7.68,20.17-8.27,32.07,0,5.49.76,12.56,2.18,14.56l0,0h0c.76-.43,2.7-1.87,6-6.66,5.48-8.08,9.68-11.69,13.7-11.69a6.49,6.49,0,0,1,1.39.14c5.37,1.11,6.62,7.69,7.63,13a38.19,38.19,0,0,0,.84,3.78s0,0,0,0h0c1.25-.31,4.62-2.15,9.85-8.27a4.43,4.43,0,0,1,3.31-1.57,3.73,3.73,0,0,1,1.88.5,4,4,0,0,1,1.06,6.07C204,276.2,198.48,280,193.94,280c-.26,0-.52,0-.77,0a7.33,7.33,0,0,1-5.78-3.87,22.38,22.38,0,0,1-1.82-6.46,35.86,35.86,0,0,0-1.57-6.22l0,0h0c-1,.69-3.09,2.6-6.62,7.81-1.88,2.77-7,10.34-12.88,10.34a6.79,6.79,0,0,1-3.08-.74,8.85,8.85,0,0,1-3.85-4l0,0,0,0c-2.94,5.46-7,9.45-12,11.49a16.62,16.62,0,0,1-6.31,1.3,12.62,12.62,0,0,1-8.59-3.16l-.13-.12c-8.57-7.81-14.16-9.75-17.59-9.75a8.09,8.09,0,0,0-1.46.13l-.26,0a27.9,27.9,0,0,1-5.21.56,19.14,19.14,0,0,1-4.11-.44h0a0,0,0,0,0,0,0,83,83,0,0,1-4.41,7.17,4,4,0,0,1-6.09.61,4.13,4.13,0,0,1-.43-5.25c1.39-2,2.59-4,3.65-5.91a0,0,0,0,0,0,0c-1.22-1.05-2.58-3-5.42-7.29-.6-.9-1.37-2.07-2.18-3.24l0,0,0,0c-1.6,4.65-4.15,9.87-7.93,12.19a8.72,8.72,0,0,1-4.59,1.34,8.59,8.59,0,0,1-2.49-.37c-5.24-1.55-7.74-4.4-8.94-6.84,0,0,0,0,0,0l0,0A32,32,0,0,1,51.24,281.8a18.55,18.55,0,0,1-9.22,3,8.75,8.75,0,0,1-3.34-.62,4.14,4.14,0,0,1-2.47-5.14A4,4,0,0,1,40,276.4a4.11,4.11,0,0,1,1.73.39h0a1.17,1.17,0,0,0,.29,0c1,0,3.64-.62,6.94-3.1a23.61,23.61,0,0,0,9.43-18.41c.16-7.92-1.59-13.23-5.19-15.78a11.84,11.84,0,0,0-6.92-1.92,21.5,21.5,0,0,0-3.77.35s0,0,0,0a71.21,71.21,0,0,1,1.18,14.73c-.57,17.48-8.85,24-15.7,26.36a11,11,0,0,1-3.61.64,8.71,8.71,0,0,1-6-2.39c-5.3-4.91-4.9-15.21-3-22.53,3.26-12.29,11.16-21.05,21.17-23.54h0a30.52,30.52,0,0,1,9.73-1.65A19.77,19.77,0,0,1,57.77,233c5.7,4,8.59,11.21,8.6,21.36.25-.23.5-.47.77-.69A18,18,0,0,1,79,249.32a19.59,19.59,0,0,1,2.94.22h0l0,0c1-4.17,1.85-7.51,2.55-10.18a0,0,0,0,0,0,0h0a14.63,14.63,0,0,1-5.28,1.44H79a4.05,4.05,0,0,1-3.89-2.67,4,4,0,0,1,3.61-5.32c.26,0,2.75-.25,10.22-4.94a5.7,5.7,0,0,1,2.69-.77,3.58,3.58,0,0,1,3.08,1.72,4.06,4.06,0,0,1-.09,4.55c-.31.8-1.55,4.49-5.22,19.58,0,0,0,0,0,0a79.27,79.27,0,0,1,6.4,8.84c.78,1.18,1.72,2.58,2.52,3.72l0,0a0,0,0,0,0,0,0c4.77-12.26,3.18-20.26,3.15-20.37a4,4,0,0,1,3-4.75,3.83,3.83,0,0,1,.88-.1,4,4,0,0,1,3.89,3.09c.12.55,2.32,10.76-3.84,25.93a0,0,0,0,0,0,.05h.44a20.72,20.72,0,0,0,3.78-.43l.28,0a15.69,15.69,0,0,1,2.89-.26,21.84,21.84,0,0,1,8.14,1.73h0s0,0,0,0a78.28,78.28,0,0,1-.86-15.78s0,0,0,0a18.65,18.65,0,0,1-7.53-8.14,4.1,4.1,0,0,1,1.65-5.25,4,4,0,0,1,5.62,1.91,9.83,9.83,0,0,0,1,1.58c.23-2.4.51-4.76.82-7a.05.05,0,0,0,0,0,18.5,18.5,0,0,1-7.15-8,4,4,0,0,1,2.12-5.24,3.93,3.93,0,0,1,1.56-.32,4,4,0,0,1,3.67,2.41,9.93,9.93,0,0,0,1.25,2c1-6,2-9.93,2-10.06a4,4,0,0,1,3.81-2.81M24.38,271.73a2.77,2.77,0,0,0,.93-.2c6.52-2.26,10-8.67,10.33-19.06a62.72,62.72,0,0,0-.87-12,0,0,0,0,0,0,0h0c-7.79,4.06-10.84,13.35-11.66,16.44-2,7.66-.8,13.25.67,14.62a.84.84,0,0,0,.65.25m50-3.24a.78.78,0,0,0,.42-.15c2.12-1.3,4.17-6.36,5.46-10.95-.41,0-.81-.06-1.21-.06a10.14,10.14,0,0,0-6.66,2.38c-1.83,1.57-2.83,3.72-2.48,5.35.4,1.88,2.54,2.88,4.27,3.39a.71.71,0,0,0,.2,0m54.61-59h0a10,10,0,0,0-9.54,7c-.06.19-.18.7-.36,1.48q-.42,0-.84,0a9.84,9.84,0,0,0-3.89.79,10,10,0,0,0-5.32,13.1,21.29,21.29,0,0,0,2.31,4.07,1.13,1.13,0,0,0-.21.12,10,10,0,0,0-11-.23,10.08,10.08,0,0,0-.45-10.38,9.61,9.61,0,0,0-8-4.36,11.54,11.54,0,0,0-5.8,1.64l-.05,0,0,0c-5,3.14-7.2,3.9-7.71,4a10.05,10.05,0,0,0-7.36,4.28,9.92,9.92,0,0,0-1.78,6,23.66,23.66,0,0,0-7.63-9,25.48,25.48,0,0,0-15-4.45,36.8,36.8,0,0,0-11.46,1.9c-12,3.11-21.45,13.47-25.24,27.75C7.05,262.63,7,275,14.21,281.74a14.64,14.64,0,0,0,10.12,4,17.16,17.16,0,0,0,5.58-1l.94-.35a10.37,10.37,0,0,0,5.55,5.34A14.65,14.65,0,0,0,42,290.82a24.42,24.42,0,0,0,12.32-3.88,37,37,0,0,0,9.32-8.07,23.17,23.17,0,0,0,6.49,3,14.72,14.72,0,0,0,4.2.61,14.88,14.88,0,0,0,7.73-2.22,17.07,17.07,0,0,0,2.76-2.14,10,10,0,0,0,17.53,9.34q1.39-2,2.68-4.16l.91,0a34.16,34.16,0,0,0,6.3-.66l.26-.05a1.47,1.47,0,0,1,.37,0c1.07,0,5.21.59,13.55,8.19l.12.1a18.63,18.63,0,0,0,12.64,4.74,22.52,22.52,0,0,0,8.6-1.75,28.13,28.13,0,0,0,10.6-7.82l.31.16a12.88,12.88,0,0,0,5.74,1.36c7.75,0,13.55-6.91,16.57-11.13a14.43,14.43,0,0,0,1.14,2.61,13.35,13.35,0,0,0,10.43,6.9c.43,0,.89.06,1.35.06,6.47,0,13.35-4.39,21-13.44a10,10,0,0,0-2.61-15.14,9.85,9.85,0,0,0-4.9-1.31,10.36,10.36,0,0,0-7.87,3.67c-.53.62-1,1.19-1.51,1.7-1.48-5.21-4.33-10.78-11.06-12.18a13.59,13.59,0,0,0-2.61-.26c-6.42,0-11.58,4.8-15.87,10.41V259c.52-9.89,4.88-23.35,7.13-28.46a10.05,10.05,0,0,0,2.7-9.8,10.24,10.24,0,0,0-9.83-7.58,10.09,10.09,0,0,0-2.25.26c-5,1.15-8.76,5.21-13.85,23.38a122.26,122.26,0,0,0-2.9,12.89h-.81l-.1,5.86,0,.29c-.65,13-5.61,18.4-8.44,19.57a3.29,3.29,0,0,1-.7.21c-.68-.61-1.58-1.42-2.64-2.31a10.86,10.86,0,0,0-.64-1c-.31-.45-1.63-2.73-2-9.91a10.09,10.09,0,0,0,7.41-10.26A10,10,0,0,0,138,245a10,10,0,0,0-.4-18.09c.35-1.87.71-3.57,1.05-5a10,10,0,0,0-9.71-12.42Zm-57.53,35c-.11-.49-.22-1-.34-1.45a10.11,10.11,0,0,0,1.16,1.2l-.82.25ZM47,267.54a47.54,47.54,0,0,0,2.69-14.61,71.86,71.86,0,0,0-.28-8.72,2.5,2.5,0,0,1,.35.21c1.77,1.26,2.77,5.29,2.66,10.78A17.32,17.32,0,0,1,47,267.54ZM28.49,260c.1-.51.22-1,.37-1.59.06-.22.15-.56.29-1a19.3,19.3,0,0,1-.66,2.59ZM114,262.61c.08-.31.16-.62.23-.93,0,.32,0,.63,0,.95l-.27,0Z"/><path class="cls-1" d="M74.46,143.71c.56,6.95,3.16,24.27,15.18,36a3.33,3.33,0,0,0,.26,6.65c1.22,0,1.73-1.52,2.86-1.65,0,0,.06,0,.07.07.06.23-.08.47-.08.71a3.34,3.34,0,1,0,6.67,0c0-.2-.13-.41-.06-.6a.18.18,0,0,1,.15-.13c.89,0,1.47,1.05,2.42,1.05a3.33,3.33,0,0,0,1.49-6.31c3.64-6.47-1.26-16.45.07-35.52Z"/><path class="cls-1" d="M26.24,178a3.32,3.32,0,0,0,.26,6.64c1.22,0,1.73-1.51,2.86-1.64,0,0,.06,0,.07.07.06.22-.08.46-.08.71a3.34,3.34,0,1,0,6.67,0c0-.21-.13-.41-.06-.6s.08-.14.15-.13c.88,0,1.46,1,2.42,1a3.32,3.32,0,0,0,1.49-6.3c3.43-6.09,2.77-19.64,10.21-34.28l-31.59-.3C19.69,151.62,22.18,168.34,26.24,178Z"/><path class="cls-11" d="M52.65,405.29a27.46,27.46,0,0,1-27.45-25L21.65,342l.48-.83c7.5-12.93,20.12-19.76,36.5-19.76,11.23,0,23.67,3.36,35,9.46,2.42,1.3,5.21,3.17,8.43,5.34,10.68,7.18,26.83,18,46.35,18h0c17.22,0,34.57-8.5,51.57-25.27l5.85-5.78-5.29,57.13a27.46,27.46,0,0,1-27.45,25Z"/><path class="cls-2" d="M58.63,324.37c11.3,0,23.28,3.56,33.6,9.1s30,23.72,56.2,23.72c15.7,0,33.78-6.51,53.68-26.14L197.57,380a24.56,24.56,0,0,1-24.46,22.3H52.65A24.56,24.56,0,0,1,28.19,380l-3.46-37.35c7.59-13.1,20.26-18.27,33.9-18.27m151-9.14-11.71,11.55c-16.42,16.2-33.06,24.41-49.46,24.41-18.6,0-33.67-10.12-44.68-17.51-3.29-2.21-6.13-4.12-8.68-5.49-11.78-6.33-24.72-9.82-36.44-9.82-17.26,0-31.14,7.55-39.09,21.26l-1,1.66.17,1.9,3.47,37.36a30.42,30.42,0,0,0,30.43,27.74H173.11a30.42,30.42,0,0,0,30.43-27.74l4.54-48.95,1.52-16.37Z"/><circle class="cls-2" cx="60.9" cy="341.34" r="13.87"/><circle class="cls-2" cx="83.36" cy="363.33" r="10.72"/><circle class="cls-2" cx="59.15" cy="382.91" r="8.11"/></g></g></svg>