<svg xmlns="http://www.w3.org/2000/svg" xmlns:xlink="http://www.w3.org/1999/xlink" width="303.451" height="153.581" viewBox="0 0 303.451 153.581">
  <defs>
    <clipPath id="clip-path">
      <path id="パス_295" data-name="パス 295" d="M46.8,49.463V74.02L22.241,56.4,21.9,31.5Z" transform="translate(-21.9 -31.5)"/>
    </clipPath>
    <clipPath id="clip-path-2">
      <rect id="長方形_163" data-name="長方形 163" width="13.074" height="13.074"/>
    </clipPath>
    <clipPath id="clip-path-41">
      <path id="パス_407" data-name="パス 407" d="M43.8,49.463V74.02L68.357,56.4,68.7,31.5Z" transform="translate(-43.8 -31.5)"/>
    </clipPath>
  </defs>
  <g id="グループ_642" data-name="グループ 642" transform="translate(-35.957 -435.869)">
    <g id="グループ_641" data-name="グループ 641">
      <g id="グループ_278" data-name="グループ 278" transform="translate(137.532 511.117)" opacity="0.698">
        <g id="グループ_278-2" data-name="グループ 278" transform="translate(19.441 34.789)">
          <path id="パス_276" data-name="パス 276" d="M77.811,52.429,47.456,74.144,17.1,52.429,47.456,30.6l11.483,8.3Z" transform="translate(-17.1 -30.6)" fill="#e37669"/>
        </g>
        <g id="グループ_279" data-name="グループ 279" transform="translate(49.797 43.089)">
          <path id="パス_277" data-name="パス 277" d="M74.156,51.429,43.8,73.144V37.9H55.283Z" transform="translate(-43.8 -37.9)" fill="#d55344"/>
        </g>
        <g id="グループ_280" data-name="グループ 280" transform="translate(24.898 17.963)">
          <path id="パス_278" data-name="パス 278" d="M46.8,15.8,71.7,33.649,46.8,51.613,21.9,33.649Z" transform="translate(-21.9 -15.8)" fill="#ffb4ab"/>
        </g>
        <g id="グループ_281" data-name="グループ 281" transform="translate(28.764 20.692)">
          <path id="パス_279" data-name="パス 279" d="M25.3,33.321,46.333,18.2,67.366,33.321,46.333,48.442Z" transform="translate(-25.3 -18.2)" fill="#d37e74"/>
        </g>
        <g id="グループ_282" data-name="グループ 282" transform="translate(49.797)">
          <path id="パス_280" data-name="パス 280" d="M68.7,0,93.6,17.963,68.7,35.813,43.8,17.963Z" transform="translate(-43.8)" fill="#ffe2de"/>
        </g>
        <g id="グループ_283" data-name="グループ 283">
          <path id="パス_281" data-name="パス 281" d="M24.9,0,49.8,17.963,24.9,35.813,0,17.963Z" fill="#ffe2de"/>
        </g>
        <g id="グループ_333" data-name="グループ 333" transform="translate(24.898 35.813)" opacity="0.3">
          <g id="グループ_332" data-name="グループ 332">
            <g id="グループ_289" data-name="グループ 289" clip-path="url(#clip-path)">
              <g id="グループ_288" data-name="グループ 288" transform="translate(12.62 -5.116)">
                <g id="グループ_284" data-name="グループ 284" clip-path="url(#clip-path-2)">
                  <path id="パス_282" data-name="パス 282" d="M44.764,40.029A1.364,1.364,0,1,0,43.4,38.664,1.314,1.314,0,0,0,44.764,40.029Z" transform="translate(-31.576 -25.59)" fill="#231815"/>
                  <path id="パス_283" data-name="パス 283" d="M38.964,40.029A1.364,1.364,0,1,0,37.6,38.664,1.382,1.382,0,0,0,38.964,40.029Z" transform="translate(-32.37 -25.59)" fill="#231815"/>
                  <path id="パス_284" data-name="パス 284" d="M44.764,34.229A1.364,1.364,0,1,0,43.4,32.864,1.314,1.314,0,0,0,44.764,34.229Z" transform="translate(-31.576 -26.384)" fill="#231815"/>
                  <path id="パス_285" data-name="パス 285" d="M38.964,34.229A1.364,1.364,0,1,0,37.6,32.864,1.382,1.382,0,0,0,38.964,34.229Z" transform="translate(-32.37 -26.384)" fill="#231815"/>
                  <path id="パス_286" data-name="パス 286" d="M36.064,37.129A1.364,1.364,0,1,0,34.7,35.764,1.463,1.463,0,0,0,36.064,37.129Z" transform="translate(-32.767 -25.987)" fill="#231815"/>
                  <path id="パス_287" data-name="パス 287" d="M41.864,37.129A1.364,1.364,0,1,0,40.5,35.764,1.314,1.314,0,0,0,41.864,37.129Z" transform="translate(-31.973 -25.987)" fill="#231815"/>
                  <path id="パス_288" data-name="パス 288" d="M36.064,31.429A1.364,1.364,0,1,0,34.7,30.064,1.568,1.568,0,0,0,36.064,31.429Z" transform="translate(-32.767 -26.767)" fill="#231815"/>
                  <path id="パス_289" data-name="パス 289" d="M41.864,31.429A1.364,1.364,0,1,0,40.5,30.064,1.382,1.382,0,0,0,41.864,31.429Z" transform="translate(-31.973 -26.767)" fill="#231815"/>
                </g>
                <g id="グループ_285" data-name="グループ 285" clip-path="url(#clip-path-2)">
                  <path id="パス_290" data-name="パス 290" d="M33.164,40.029A1.364,1.364,0,1,0,31.8,38.664,1.463,1.463,0,0,0,33.164,40.029Z" transform="translate(-33.164 -25.59)" fill="#231815"/>
                  <path id="パス_291" data-name="パス 291" d="M33.164,34.229A1.364,1.364,0,1,0,31.8,32.864,1.463,1.463,0,0,0,33.164,34.229Z" transform="translate(-33.164 -26.384)" fill="#231815"/>
                </g>
                <g id="グループ_286" data-name="グループ 286" clip-path="url(#clip-path-2)">
                  <path id="パス_292" data-name="パス 292" d="M44.764,28.529A1.364,1.364,0,1,0,43.4,27.164,1.314,1.314,0,0,0,44.764,28.529Z" transform="translate(-31.576 -27.164)" fill="#231815"/>
                  <path id="パス_293" data-name="パス 293" d="M38.964,28.529A1.364,1.364,0,1,0,37.6,27.164,1.382,1.382,0,0,0,38.964,28.529Z" transform="translate(-32.37 -27.164)" fill="#231815"/>
                </g>
                <g id="グループ_287" data-name="グループ 287" clip-path="url(#clip-path-2)">
                  <path id="パス_294" data-name="パス 294" d="M33.164,28.529A1.364,1.364,0,1,0,31.8,27.164,1.463,1.463,0,0,0,33.164,28.529Z" transform="translate(-33.164 -27.164)" fill="#231815"/>
                </g>
              </g>
            </g>
            <g id="グループ_295" data-name="グループ 295" clip-path="url(#clip-path)">
              <g id="グループ_294" data-name="グループ 294" transform="translate(12.62 7.958)">
                <g id="グループ_290" data-name="グループ 290" clip-path="url(#clip-path-2)">
                  <path id="パス_296" data-name="パス 296" d="M44.764,51.529A1.364,1.364,0,1,0,43.4,50.164,1.314,1.314,0,0,0,44.764,51.529Z" transform="translate(-31.576 -37.09)" fill="#231815"/>
                  <path id="パス_297" data-name="パス 297" d="M38.964,51.529A1.364,1.364,0,1,0,37.6,50.164,1.382,1.382,0,0,0,38.964,51.529Z" transform="translate(-32.37 -37.09)" fill="#231815"/>
                  <path id="パス_298" data-name="パス 298" d="M44.764,45.829A1.364,1.364,0,1,0,43.4,44.464,1.382,1.382,0,0,0,44.764,45.829Z" transform="translate(-31.576 -37.87)" fill="#231815"/>
                  <path id="パス_299" data-name="パス 299" d="M38.964,45.829A1.364,1.364,0,1,0,37.6,44.464,1.467,1.467,0,0,0,38.964,45.829Z" transform="translate(-32.37 -37.87)" fill="#231815"/>
                  <path id="パス_300" data-name="パス 300" d="M36.064,48.629A1.364,1.364,0,1,0,34.7,47.264,1.463,1.463,0,0,0,36.064,48.629Z" transform="translate(-32.767 -37.487)" fill="#231815"/>
                  <path id="パス_301" data-name="パス 301" d="M41.864,48.629A1.364,1.364,0,1,0,40.5,47.264,1.314,1.314,0,0,0,41.864,48.629Z" transform="translate(-31.973 -37.487)" fill="#231815"/>
                  <path id="パス_302" data-name="パス 302" d="M36.064,42.929A1.364,1.364,0,1,0,34.7,41.564,1.463,1.463,0,0,0,36.064,42.929Z" transform="translate(-32.767 -38.267)" fill="#231815"/>
                  <path id="パス_303" data-name="パス 303" d="M41.864,42.929A1.364,1.364,0,1,0,40.5,41.564,1.314,1.314,0,0,0,41.864,42.929Z" transform="translate(-31.973 -38.267)" fill="#231815"/>
                </g>
                <g id="グループ_291" data-name="グループ 291" clip-path="url(#clip-path-2)">
                  <path id="パス_304" data-name="パス 304" d="M33.164,51.529A1.364,1.364,0,1,0,31.8,50.164,1.463,1.463,0,0,0,33.164,51.529Z" transform="translate(-33.164 -37.09)" fill="#231815"/>
                  <path id="パス_305" data-name="パス 305" d="M33.164,45.829A1.364,1.364,0,1,0,31.8,44.464,1.568,1.568,0,0,0,33.164,45.829Z" transform="translate(-33.164 -37.87)" fill="#231815"/>
                </g>
                <g id="グループ_292" data-name="グループ 292" clip-path="url(#clip-path-2)">
                  <path id="パス_306" data-name="パス 306" d="M44.764,40.029A1.364,1.364,0,1,0,43.4,38.664,1.314,1.314,0,0,0,44.764,40.029Z" transform="translate(-31.576 -38.664)" fill="#231815"/>
                  <path id="パス_307" data-name="パス 307" d="M38.964,40.029A1.364,1.364,0,1,0,37.6,38.664,1.382,1.382,0,0,0,38.964,40.029Z" transform="translate(-32.37 -38.664)" fill="#231815"/>
                </g>
                <g id="グループ_293" data-name="グループ 293" clip-path="url(#clip-path-2)">
                  <path id="パス_308" data-name="パス 308" d="M33.164,40.029A1.364,1.364,0,1,0,31.8,38.664,1.463,1.463,0,0,0,33.164,40.029Z" transform="translate(-33.164 -38.664)" fill="#231815"/>
                </g>
              </g>
            </g>
            <g id="グループ_301" data-name="グループ 301" clip-path="url(#clip-path)">
              <g id="グループ_300" data-name="グループ 300" transform="translate(12.62 21.147)">
                <g id="グループ_296" data-name="グループ 296" clip-path="url(#clip-path-2)">
                  <path id="パス_310" data-name="パス 310" d="M44.764,63.029A1.364,1.364,0,1,0,43.4,61.664,1.314,1.314,0,0,0,44.764,63.029Z" transform="translate(-31.576 -48.704)" fill="#231815"/>
                  <path id="パス_311" data-name="パス 311" d="M38.964,63.029A1.364,1.364,0,1,0,37.6,61.664,1.382,1.382,0,0,0,38.964,63.029Z" transform="translate(-32.37 -48.704)" fill="#231815"/>
                  <path id="パス_312" data-name="パス 312" d="M44.764,57.329A1.364,1.364,0,1,0,43.4,55.964,1.314,1.314,0,0,0,44.764,57.329Z" transform="translate(-31.576 -49.484)" fill="#231815"/>
                  <path id="パス_313" data-name="パス 313" d="M38.964,57.329A1.364,1.364,0,1,0,37.6,55.964,1.382,1.382,0,0,0,38.964,57.329Z" transform="translate(-32.37 -49.484)" fill="#231815"/>
                  <path id="パス_314" data-name="パス 314" d="M36.064,60.229A1.364,1.364,0,1,0,34.7,58.864,1.568,1.568,0,0,0,36.064,60.229Z" transform="translate(-32.767 -49.087)" fill="#231815"/>
                  <path id="パス_315" data-name="パス 315" d="M41.864,60.229A1.364,1.364,0,1,0,40.5,58.864,1.382,1.382,0,0,0,41.864,60.229Z" transform="translate(-31.973 -49.087)" fill="#231815"/>
                  <path id="パス_316" data-name="パス 316" d="M36.064,54.429A1.364,1.364,0,1,0,34.7,53.064,1.463,1.463,0,0,0,36.064,54.429Z" transform="translate(-32.767 -49.881)" fill="#231815"/>
                  <path id="パス_317" data-name="パス 317" d="M41.864,54.429A1.364,1.364,0,1,0,40.5,53.064,1.314,1.314,0,0,0,41.864,54.429Z" transform="translate(-31.973 -49.881)" fill="#231815"/>
                </g>
                <g id="グループ_297" data-name="グループ 297" clip-path="url(#clip-path-2)">
                  <path id="パス_318" data-name="パス 318" d="M33.164,63.029A1.364,1.364,0,1,0,31.8,61.664,1.463,1.463,0,0,0,33.164,63.029Z" transform="translate(-33.164 -48.704)" fill="#231815"/>
                  <path id="パス_319" data-name="パス 319" d="M33.164,57.329A1.364,1.364,0,1,0,31.8,55.964,1.463,1.463,0,0,0,33.164,57.329Z" transform="translate(-33.164 -49.484)" fill="#231815"/>
                </g>
                <g id="グループ_298" data-name="グループ 298" clip-path="url(#clip-path-2)">
                  <path id="パス_320" data-name="パス 320" d="M44.764,51.529A1.364,1.364,0,1,0,43.4,50.164,1.314,1.314,0,0,0,44.764,51.529Z" transform="translate(-31.576 -50.278)" fill="#231815"/>
                  <path id="パス_321" data-name="パス 321" d="M38.964,51.529A1.364,1.364,0,1,0,37.6,50.164,1.382,1.382,0,0,0,38.964,51.529Z" transform="translate(-32.37 -50.278)" fill="#231815"/>
                </g>
                <g id="グループ_299" data-name="グループ 299" clip-path="url(#clip-path-2)">
                  <path id="パス_322" data-name="パス 322" d="M33.164,51.529A1.364,1.364,0,1,0,31.8,50.164,1.463,1.463,0,0,0,33.164,51.529Z" transform="translate(-33.164 -50.278)" fill="#231815"/>
                </g>
              </g>
            </g>
            <g id="グループ_307" data-name="グループ 307" clip-path="url(#clip-path)">
              <g id="グループ_306" data-name="グループ 306" transform="translate(12.62 34.221)">
                <g id="グループ_302" data-name="グループ 302" clip-path="url(#clip-path-2)">
                  <path id="パス_324" data-name="パス 324" d="M44.764,74.629A1.364,1.364,0,1,0,43.4,73.264,1.382,1.382,0,0,0,44.764,74.629Z" transform="translate(-31.576 -60.19)" fill="#231815"/>
                  <path id="パス_325" data-name="パス 325" d="M38.964,74.629A1.364,1.364,0,1,0,37.6,73.264,1.467,1.467,0,0,0,38.964,74.629Z" transform="translate(-32.37 -60.19)" fill="#231815"/>
                  <path id="パス_326" data-name="パス 326" d="M44.764,68.829A1.364,1.364,0,1,0,43.4,67.464,1.314,1.314,0,0,0,44.764,68.829Z" transform="translate(-31.576 -60.984)" fill="#231815"/>
                  <path id="パス_327" data-name="パス 327" d="M38.964,68.829A1.364,1.364,0,1,0,37.6,67.464,1.382,1.382,0,0,0,38.964,68.829Z" transform="translate(-32.37 -60.984)" fill="#231815"/>
                  <path id="パス_328" data-name="パス 328" d="M36.064,71.729A1.364,1.364,0,1,0,34.7,70.364,1.463,1.463,0,0,0,36.064,71.729Z" transform="translate(-32.767 -60.587)" fill="#231815"/>
                  <path id="パス_329" data-name="パス 329" d="M41.864,71.729A1.364,1.364,0,1,0,40.5,70.364,1.314,1.314,0,0,0,41.864,71.729Z" transform="translate(-31.973 -60.587)" fill="#231815"/>
                  <path id="パス_330" data-name="パス 330" d="M36.064,65.929A1.364,1.364,0,1,0,34.7,64.564,1.463,1.463,0,0,0,36.064,65.929Z" transform="translate(-32.767 -61.381)" fill="#231815"/>
                  <path id="パス_331" data-name="パス 331" d="M41.864,65.929A1.364,1.364,0,1,0,40.5,64.564,1.314,1.314,0,0,0,41.864,65.929Z" transform="translate(-31.973 -61.381)" fill="#231815"/>
                </g>
                <g id="グループ_303" data-name="グループ 303" clip-path="url(#clip-path-2)">
                  <path id="パス_332" data-name="パス 332" d="M33.164,74.629A1.364,1.364,0,1,0,31.8,73.264,1.568,1.568,0,0,0,33.164,74.629Z" transform="translate(-33.164 -60.19)" fill="#231815"/>
                  <path id="パス_333" data-name="パス 333" d="M33.164,68.829A1.364,1.364,0,1,0,31.8,67.464,1.463,1.463,0,0,0,33.164,68.829Z" transform="translate(-33.164 -60.984)" fill="#231815"/>
                </g>
                <g id="グループ_304" data-name="グループ 304" clip-path="url(#clip-path-2)">
                  <path id="パス_334" data-name="パス 334" d="M44.764,63.029A1.364,1.364,0,1,0,43.4,61.664,1.314,1.314,0,0,0,44.764,63.029Z" transform="translate(-31.576 -61.778)" fill="#231815"/>
                  <path id="パス_335" data-name="パス 335" d="M38.964,63.029A1.364,1.364,0,1,0,37.6,61.664,1.382,1.382,0,0,0,38.964,63.029Z" transform="translate(-32.37 -61.778)" fill="#231815"/>
                </g>
                <g id="グループ_305" data-name="グループ 305" clip-path="url(#clip-path-2)">
                  <path id="パス_336" data-name="パス 336" d="M33.164,63.029A1.364,1.364,0,1,0,31.8,61.664,1.463,1.463,0,0,0,33.164,63.029Z" transform="translate(-33.164 -61.778)" fill="#231815"/>
                </g>
              </g>
            </g>
            <g id="グループ_313" data-name="グループ 313" clip-path="url(#clip-path)">
              <g id="グループ_312" data-name="グループ 312" transform="translate(-0.455 -5.116)">
                <g id="グループ_308" data-name="グループ 308" clip-path="url(#clip-path-2)">
                  <path id="パス_338" data-name="パス 338" d="M33.164,40.029A1.364,1.364,0,1,0,31.8,38.664,1.463,1.463,0,0,0,33.164,40.029Z" transform="translate(-20.09 -25.59)" fill="#231815"/>
                  <path id="パス_339" data-name="パス 339" d="M27.464,40.029A1.364,1.364,0,1,0,26.1,38.664,1.314,1.314,0,0,0,27.464,40.029Z" transform="translate(-20.87 -25.59)" fill="#231815"/>
                  <path id="パス_340" data-name="パス 340" d="M33.164,34.229A1.364,1.364,0,1,0,31.8,32.864,1.463,1.463,0,0,0,33.164,34.229Z" transform="translate(-20.09 -26.384)" fill="#231815"/>
                  <path id="パス_341" data-name="パス 341" d="M27.464,34.229A1.364,1.364,0,1,0,26.1,32.864,1.314,1.314,0,0,0,27.464,34.229Z" transform="translate(-20.87 -26.384)" fill="#231815"/>
                  <path id="パス_342" data-name="パス 342" d="M24.564,37.129A1.364,1.364,0,1,0,23.2,35.764,1.382,1.382,0,0,0,24.564,37.129Z" transform="translate(-21.267 -25.987)" fill="#231815"/>
                  <path id="パス_343" data-name="パス 343" d="M30.364,37.129A1.364,1.364,0,1,0,29,35.764,1.314,1.314,0,0,0,30.364,37.129Z" transform="translate(-20.473 -25.987)" fill="#231815"/>
                  <path id="パス_344" data-name="パス 344" d="M24.564,31.429A1.364,1.364,0,1,0,23.2,30.064,1.467,1.467,0,0,0,24.564,31.429Z" transform="translate(-21.267 -26.767)" fill="#231815"/>
                  <path id="パス_345" data-name="パス 345" d="M30.364,31.429A1.364,1.364,0,1,0,29,30.064,1.382,1.382,0,0,0,30.364,31.429Z" transform="translate(-20.473 -26.767)" fill="#231815"/>
                </g>
                <g id="グループ_309" data-name="グループ 309" clip-path="url(#clip-path-2)">
                  <path id="パス_346" data-name="パス 346" d="M21.664,40.029A1.364,1.364,0,1,0,20.3,38.664,1.463,1.463,0,0,0,21.664,40.029Z" transform="translate(-21.664 -25.59)" fill="#231815"/>
                  <path id="パス_347" data-name="パス 347" d="M21.664,34.229A1.364,1.364,0,1,0,20.3,32.864,1.463,1.463,0,0,0,21.664,34.229Z" transform="translate(-21.664 -26.384)" fill="#231815"/>
                </g>
                <g id="グループ_310" data-name="グループ 310" clip-path="url(#clip-path-2)">
                  <path id="パス_348" data-name="パス 348" d="M33.164,28.529A1.364,1.364,0,1,0,31.8,27.164,1.463,1.463,0,0,0,33.164,28.529Z" transform="translate(-20.09 -27.164)" fill="#231815"/>
                  <path id="パス_349" data-name="パス 349" d="M27.464,28.529A1.364,1.364,0,1,0,26.1,27.164,1.314,1.314,0,0,0,27.464,28.529Z" transform="translate(-20.87 -27.164)" fill="#231815"/>
                </g>
                <g id="グループ_311" data-name="グループ 311" clip-path="url(#clip-path-2)">
                  <path id="パス_350" data-name="パス 350" d="M21.664,28.529A1.364,1.364,0,1,0,20.3,27.164,1.463,1.463,0,0,0,21.664,28.529Z" transform="translate(-21.664 -27.164)" fill="#231815"/>
                </g>
              </g>
            </g>
            <g id="グループ_319" data-name="グループ 319" clip-path="url(#clip-path)">
              <g id="グループ_318" data-name="グループ 318" transform="translate(-0.455 7.958)">
                <g id="グループ_314" data-name="グループ 314" clip-path="url(#clip-path-2)">
                  <path id="パス_352" data-name="パス 352" d="M33.164,51.529A1.364,1.364,0,1,0,31.8,50.164,1.463,1.463,0,0,0,33.164,51.529Z" transform="translate(-20.09 -37.09)" fill="#231815"/>
                  <path id="パス_353" data-name="パス 353" d="M27.464,51.529A1.364,1.364,0,1,0,26.1,50.164,1.314,1.314,0,0,0,27.464,51.529Z" transform="translate(-20.87 -37.09)" fill="#231815"/>
                  <path id="パス_354" data-name="パス 354" d="M33.164,45.829A1.364,1.364,0,1,0,31.8,44.464,1.568,1.568,0,0,0,33.164,45.829Z" transform="translate(-20.09 -37.87)" fill="#231815"/>
                  <path id="パス_355" data-name="パス 355" d="M27.464,45.829A1.364,1.364,0,1,0,26.1,44.464,1.382,1.382,0,0,0,27.464,45.829Z" transform="translate(-20.87 -37.87)" fill="#231815"/>
                  <path id="パス_356" data-name="パス 356" d="M24.564,48.629A1.364,1.364,0,1,0,23.2,47.264,1.382,1.382,0,0,0,24.564,48.629Z" transform="translate(-21.267 -37.487)" fill="#231815"/>
                  <path id="パス_357" data-name="パス 357" d="M30.364,48.629A1.364,1.364,0,1,0,29,47.264,1.314,1.314,0,0,0,30.364,48.629Z" transform="translate(-20.473 -37.487)" fill="#231815"/>
                  <path id="パス_358" data-name="パス 358" d="M24.564,42.929A1.364,1.364,0,1,0,23.2,41.564,1.382,1.382,0,0,0,24.564,42.929Z" transform="translate(-21.267 -38.267)" fill="#231815"/>
                  <path id="パス_359" data-name="パス 359" d="M30.364,42.929A1.364,1.364,0,1,0,29,41.564,1.314,1.314,0,0,0,30.364,42.929Z" transform="translate(-20.473 -38.267)" fill="#231815"/>
                </g>
                <g id="グループ_315" data-name="グループ 315" clip-path="url(#clip-path-2)">
                  <path id="パス_360" data-name="パス 360" d="M21.664,51.529A1.364,1.364,0,1,0,20.3,50.164,1.463,1.463,0,0,0,21.664,51.529Z" transform="translate(-21.664 -37.09)" fill="#231815"/>
                  <path id="パス_361" data-name="パス 361" d="M21.664,45.829A1.364,1.364,0,1,0,20.3,44.464,1.568,1.568,0,0,0,21.664,45.829Z" transform="translate(-21.664 -37.87)" fill="#231815"/>
                </g>
                <g id="グループ_316" data-name="グループ 316" clip-path="url(#clip-path-2)">
                  <path id="パス_362" data-name="パス 362" d="M33.164,40.029A1.364,1.364,0,1,0,31.8,38.664,1.463,1.463,0,0,0,33.164,40.029Z" transform="translate(-20.09 -38.664)" fill="#231815"/>
                  <path id="パス_363" data-name="パス 363" d="M27.464,40.029A1.364,1.364,0,1,0,26.1,38.664,1.314,1.314,0,0,0,27.464,40.029Z" transform="translate(-20.87 -38.664)" fill="#231815"/>
                </g>
                <g id="グループ_317" data-name="グループ 317" clip-path="url(#clip-path-2)">
                  <path id="パス_364" data-name="パス 364" d="M21.664,40.029A1.364,1.364,0,1,0,20.3,38.664,1.463,1.463,0,0,0,21.664,40.029Z" transform="translate(-21.664 -38.664)" fill="#231815"/>
                </g>
              </g>
            </g>
            <g id="グループ_325" data-name="グループ 325" clip-path="url(#clip-path)">
              <g id="グループ_324" data-name="グループ 324" transform="translate(-0.455 21.147)">
                <g id="グループ_320" data-name="グループ 320" clip-path="url(#clip-path-2)">
                  <path id="パス_366" data-name="パス 366" d="M33.164,63.029A1.364,1.364,0,1,0,31.8,61.664,1.463,1.463,0,0,0,33.164,63.029Z" transform="translate(-20.09 -48.704)" fill="#231815"/>
                  <path id="パス_367" data-name="パス 367" d="M27.464,63.029A1.364,1.364,0,1,0,26.1,61.664,1.314,1.314,0,0,0,27.464,63.029Z" transform="translate(-20.87 -48.704)" fill="#231815"/>
                  <path id="パス_368" data-name="パス 368" d="M33.164,57.329A1.364,1.364,0,1,0,31.8,55.964,1.463,1.463,0,0,0,33.164,57.329Z" transform="translate(-20.09 -49.484)" fill="#231815"/>
                  <path id="パス_369" data-name="パス 369" d="M27.464,57.329A1.364,1.364,0,1,0,26.1,55.964,1.314,1.314,0,0,0,27.464,57.329Z" transform="translate(-20.87 -49.484)" fill="#231815"/>
                  <path id="パス_370" data-name="パス 370" d="M24.564,60.229A1.364,1.364,0,1,0,23.2,58.864,1.467,1.467,0,0,0,24.564,60.229Z" transform="translate(-21.267 -49.087)" fill="#231815"/>
                  <path id="パス_371" data-name="パス 371" d="M30.364,60.229A1.364,1.364,0,1,0,29,58.864,1.382,1.382,0,0,0,30.364,60.229Z" transform="translate(-20.473 -49.087)" fill="#231815"/>
                  <path id="パス_372" data-name="パス 372" d="M24.564,54.429A1.364,1.364,0,1,0,23.2,53.064,1.382,1.382,0,0,0,24.564,54.429Z" transform="translate(-21.267 -49.881)" fill="#231815"/>
                  <path id="パス_373" data-name="パス 373" d="M30.364,54.429A1.364,1.364,0,1,0,29,53.064,1.314,1.314,0,0,0,30.364,54.429Z" transform="translate(-20.473 -49.881)" fill="#231815"/>
                </g>
                <g id="グループ_321" data-name="グループ 321" clip-path="url(#clip-path-2)">
                  <path id="パス_374" data-name="パス 374" d="M21.664,63.029A1.364,1.364,0,1,0,20.3,61.664,1.463,1.463,0,0,0,21.664,63.029Z" transform="translate(-21.664 -48.704)" fill="#231815"/>
                  <path id="パス_375" data-name="パス 375" d="M21.664,57.329A1.364,1.364,0,1,0,20.3,55.964,1.463,1.463,0,0,0,21.664,57.329Z" transform="translate(-21.664 -49.484)" fill="#231815"/>
                </g>
                <g id="グループ_322" data-name="グループ 322" clip-path="url(#clip-path-2)">
                  <path id="パス_376" data-name="パス 376" d="M33.164,51.529A1.364,1.364,0,1,0,31.8,50.164,1.463,1.463,0,0,0,33.164,51.529Z" transform="translate(-20.09 -50.278)" fill="#231815"/>
                  <path id="パス_377" data-name="パス 377" d="M27.464,51.529A1.364,1.364,0,1,0,26.1,50.164,1.314,1.314,0,0,0,27.464,51.529Z" transform="translate(-20.87 -50.278)" fill="#231815"/>
                </g>
                <g id="グループ_323" data-name="グループ 323" clip-path="url(#clip-path-2)">
                  <path id="パス_378" data-name="パス 378" d="M21.664,51.529A1.364,1.364,0,1,0,20.3,50.164,1.463,1.463,0,0,0,21.664,51.529Z" transform="translate(-21.664 -50.278)" fill="#231815"/>
                </g>
              </g>
            </g>
            <g id="グループ_331" data-name="グループ 331" clip-path="url(#clip-path)">
              <g id="グループ_330" data-name="グループ 330" transform="translate(-0.455 34.221)">
                <g id="グループ_326" data-name="グループ 326" clip-path="url(#clip-path-2)">
                  <path id="パス_380" data-name="パス 380" d="M33.164,74.629A1.364,1.364,0,1,0,31.8,73.264,1.568,1.568,0,0,0,33.164,74.629Z" transform="translate(-20.09 -60.19)" fill="#231815"/>
                  <path id="パス_381" data-name="パス 381" d="M27.464,74.629A1.364,1.364,0,1,0,26.1,73.264,1.382,1.382,0,0,0,27.464,74.629Z" transform="translate(-20.87 -60.19)" fill="#231815"/>
                  <path id="パス_382" data-name="パス 382" d="M33.164,68.829A1.364,1.364,0,1,0,31.8,67.464,1.463,1.463,0,0,0,33.164,68.829Z" transform="translate(-20.09 -60.984)" fill="#231815"/>
                  <path id="パス_383" data-name="パス 383" d="M27.464,68.829A1.364,1.364,0,1,0,26.1,67.464,1.314,1.314,0,0,0,27.464,68.829Z" transform="translate(-20.87 -60.984)" fill="#231815"/>
                  <path id="パス_384" data-name="パス 384" d="M24.564,71.729A1.364,1.364,0,1,0,23.2,70.364,1.382,1.382,0,0,0,24.564,71.729Z" transform="translate(-21.267 -60.587)" fill="#231815"/>
                  <path id="パス_385" data-name="パス 385" d="M30.364,71.729A1.364,1.364,0,1,0,29,70.364,1.314,1.314,0,0,0,30.364,71.729Z" transform="translate(-20.473 -60.587)" fill="#231815"/>
                  <path id="パス_386" data-name="パス 386" d="M24.564,65.929A1.364,1.364,0,1,0,23.2,64.564,1.382,1.382,0,0,0,24.564,65.929Z" transform="translate(-21.267 -61.381)" fill="#231815"/>
                  <path id="パス_387" data-name="パス 387" d="M30.364,65.929A1.364,1.364,0,1,0,29,64.564,1.314,1.314,0,0,0,30.364,65.929Z" transform="translate(-20.473 -61.381)" fill="#231815"/>
                </g>
                <g id="グループ_327" data-name="グループ 327" clip-path="url(#clip-path-2)">
                  <path id="パス_388" data-name="パス 388" d="M21.664,74.629A1.364,1.364,0,1,0,20.3,73.264,1.568,1.568,0,0,0,21.664,74.629Z" transform="translate(-21.664 -60.19)" fill="#231815"/>
                  <path id="パス_389" data-name="パス 389" d="M21.664,68.829A1.364,1.364,0,1,0,20.3,67.464,1.463,1.463,0,0,0,21.664,68.829Z" transform="translate(-21.664 -60.984)" fill="#231815"/>
                </g>
                <g id="グループ_328" data-name="グループ 328" clip-path="url(#clip-path-2)">
                  <path id="パス_390" data-name="パス 390" d="M33.164,63.029A1.364,1.364,0,1,0,31.8,61.664,1.463,1.463,0,0,0,33.164,63.029Z" transform="translate(-20.09 -61.778)" fill="#231815"/>
                  <path id="パス_391" data-name="パス 391" d="M27.464,63.029A1.364,1.364,0,1,0,26.1,61.664,1.314,1.314,0,0,0,27.464,63.029Z" transform="translate(-20.87 -61.778)" fill="#231815"/>
                </g>
                <g id="グループ_329" data-name="グループ 329" clip-path="url(#clip-path-2)">
                  <path id="パス_392" data-name="パス 392" d="M21.664,63.029A1.364,1.364,0,1,0,20.3,61.664,1.463,1.463,0,0,0,21.664,63.029Z" transform="translate(-21.664 -61.778)" fill="#231815"/>
                </g>
              </g>
            </g>
          </g>
        </g>
        <g id="グループ_383" data-name="グループ 383" transform="translate(49.797 35.813)" opacity="0.468">
          <g id="グループ_382" data-name="グループ 382">
            <g id="グループ_339" data-name="グループ 339" clip-path="url(#clip-path-41)">
              <g id="グループ_338" data-name="グループ 338" transform="translate(-0.91 -5.116)">
                <g id="グループ_334" data-name="グループ 334" clip-path="url(#clip-path-2)">
                  <path id="パス_394" data-name="パス 394" d="M43.164,40.029a1.364,1.364,0,1,1,1.364-1.364A1.314,1.314,0,0,1,43.164,40.029Z" transform="translate(-43.164 -25.59)" fill="#231815"/>
                  <path id="パス_395" data-name="パス 395" d="M48.964,40.029a1.364,1.364,0,1,1,1.364-1.364A1.382,1.382,0,0,1,48.964,40.029Z" transform="translate(-42.37 -25.59)" fill="#231815"/>
                  <path id="パス_396" data-name="パス 396" d="M43.164,34.229a1.364,1.364,0,1,1,1.364-1.364A1.314,1.314,0,0,1,43.164,34.229Z" transform="translate(-43.164 -26.384)" fill="#231815"/>
                  <path id="パス_397" data-name="パス 397" d="M48.964,34.229a1.364,1.364,0,1,1,1.364-1.364A1.382,1.382,0,0,1,48.964,34.229Z" transform="translate(-42.37 -26.384)" fill="#231815"/>
                  <path id="パス_398" data-name="パス 398" d="M51.864,37.129a1.364,1.364,0,1,1,1.364-1.364A1.463,1.463,0,0,1,51.864,37.129Z" transform="translate(-41.973 -25.987)" fill="#231815"/>
                  <path id="パス_399" data-name="パス 399" d="M46.064,37.129a1.364,1.364,0,1,1,1.364-1.364A1.314,1.314,0,0,1,46.064,37.129Z" transform="translate(-42.767 -25.987)" fill="#231815"/>
                  <path id="パス_400" data-name="パス 400" d="M51.864,31.429a1.364,1.364,0,1,1,1.364-1.364A1.568,1.568,0,0,1,51.864,31.429Z" transform="translate(-41.973 -26.767)" fill="#231815"/>
                  <path id="パス_401" data-name="パス 401" d="M46.064,31.429a1.364,1.364,0,1,1,1.364-1.364A1.382,1.382,0,0,1,46.064,31.429Z" transform="translate(-42.767 -26.767)" fill="#231815"/>
                </g>
                <g id="グループ_335" data-name="グループ 335" clip-path="url(#clip-path-2)">
                  <path id="パス_402" data-name="パス 402" d="M54.764,40.029a1.364,1.364,0,1,1,1.364-1.364A1.463,1.463,0,0,1,54.764,40.029Z" transform="translate(-41.576 -25.59)" fill="#231815"/>
                  <path id="パス_403" data-name="パス 403" d="M54.764,34.229a1.364,1.364,0,1,1,1.364-1.364A1.463,1.463,0,0,1,54.764,34.229Z" transform="translate(-41.576 -26.384)" fill="#231815"/>
                </g>
                <g id="グループ_336" data-name="グループ 336" clip-path="url(#clip-path-2)">
                  <path id="パス_404" data-name="パス 404" d="M43.164,28.529a1.364,1.364,0,1,1,1.364-1.364A1.314,1.314,0,0,1,43.164,28.529Z" transform="translate(-43.164 -27.164)" fill="#231815"/>
                  <path id="パス_405" data-name="パス 405" d="M48.964,28.529a1.364,1.364,0,1,1,1.364-1.364A1.382,1.382,0,0,1,48.964,28.529Z" transform="translate(-42.37 -27.164)" fill="#231815"/>
                </g>
                <g id="グループ_337" data-name="グループ 337" clip-path="url(#clip-path-2)">
                  <path id="パス_406" data-name="パス 406" d="M54.764,28.529a1.364,1.364,0,1,1,1.364-1.364A1.463,1.463,0,0,1,54.764,28.529Z" transform="translate(-41.576 -27.164)" fill="#231815"/>
                </g>
              </g>
            </g>
            <g id="グループ_345" data-name="グループ 345" clip-path="url(#clip-path-41)">
              <g id="グループ_344" data-name="グループ 344" transform="translate(-0.91 7.958)">
                <g id="グループ_340" data-name="グループ 340" clip-path="url(#clip-path-2)">
                  <path id="パス_408" data-name="パス 408" d="M43.164,51.529a1.364,1.364,0,1,1,1.364-1.364A1.314,1.314,0,0,1,43.164,51.529Z" transform="translate(-43.164 -37.09)" fill="#231815"/>
                  <path id="パス_409" data-name="パス 409" d="M48.964,51.529a1.364,1.364,0,1,1,1.364-1.364A1.382,1.382,0,0,1,48.964,51.529Z" transform="translate(-42.37 -37.09)" fill="#231815"/>
                  <path id="パス_410" data-name="パス 410" d="M43.164,45.829a1.364,1.364,0,1,1,1.364-1.364A1.382,1.382,0,0,1,43.164,45.829Z" transform="translate(-43.164 -37.87)" fill="#231815"/>
                  <path id="パス_411" data-name="パス 411" d="M48.964,45.829a1.364,1.364,0,1,1,1.364-1.364A1.467,1.467,0,0,1,48.964,45.829Z" transform="translate(-42.37 -37.87)" fill="#231815"/>
                  <path id="パス_412" data-name="パス 412" d="M51.864,48.629a1.364,1.364,0,1,1,1.364-1.364A1.463,1.463,0,0,1,51.864,48.629Z" transform="translate(-41.973 -37.487)" fill="#231815"/>
                  <path id="パス_413" data-name="パス 413" d="M46.064,48.629a1.364,1.364,0,1,1,1.364-1.364A1.314,1.314,0,0,1,46.064,48.629Z" transform="translate(-42.767 -37.487)" fill="#231815"/>
                  <path id="パス_414" data-name="パス 414" d="M51.864,42.929a1.364,1.364,0,1,1,1.364-1.364A1.463,1.463,0,0,1,51.864,42.929Z" transform="translate(-41.973 -38.267)" fill="#231815"/>
                  <path id="パス_415" data-name="パス 415" d="M46.064,42.929a1.364,1.364,0,1,1,1.364-1.364A1.314,1.314,0,0,1,46.064,42.929Z" transform="translate(-42.767 -38.267)" fill="#231815"/>
                </g>
                <g id="グループ_341" data-name="グループ 341" clip-path="url(#clip-path-2)">
                  <path id="パス_416" data-name="パス 416" d="M54.764,51.529a1.364,1.364,0,1,1,1.364-1.364A1.463,1.463,0,0,1,54.764,51.529Z" transform="translate(-41.576 -37.09)" fill="#231815"/>
                  <path id="パス_417" data-name="パス 417" d="M54.764,45.829a1.364,1.364,0,1,1,1.364-1.364A1.568,1.568,0,0,1,54.764,45.829Z" transform="translate(-41.576 -37.87)" fill="#231815"/>
                </g>
                <g id="グループ_342" data-name="グループ 342" clip-path="url(#clip-path-2)">
                  <path id="パス_418" data-name="パス 418" d="M43.164,40.029a1.364,1.364,0,1,1,1.364-1.364A1.314,1.314,0,0,1,43.164,40.029Z" transform="translate(-43.164 -38.664)" fill="#231815"/>
                  <path id="パス_419" data-name="パス 419" d="M48.964,40.029a1.364,1.364,0,1,1,1.364-1.364A1.382,1.382,0,0,1,48.964,40.029Z" transform="translate(-42.37 -38.664)" fill="#231815"/>
                </g>
                <g id="グループ_343" data-name="グループ 343" clip-path="url(#clip-path-2)">
                  <path id="パス_420" data-name="パス 420" d="M54.764,40.029a1.364,1.364,0,1,1,1.364-1.364A1.463,1.463,0,0,1,54.764,40.029Z" transform="translate(-41.576 -38.664)" fill="#231815"/>
                </g>
              </g>
            </g>
            <g id="グループ_351" data-name="グループ 351" clip-path="url(#clip-path-41)">
              <g id="グループ_350" data-name="グループ 350" transform="translate(-0.91 21.147)">
                <g id="グループ_346" data-name="グループ 346" clip-path="url(#clip-path-2)">
                  <path id="パス_422" data-name="パス 422" d="M43.164,63.029a1.364,1.364,0,1,1,1.364-1.364A1.314,1.314,0,0,1,43.164,63.029Z" transform="translate(-43.164 -48.704)" fill="#231815"/>
                  <path id="パス_423" data-name="パス 423" d="M48.964,63.029a1.364,1.364,0,1,1,1.364-1.364A1.382,1.382,0,0,1,48.964,63.029Z" transform="translate(-42.37 -48.704)" fill="#231815"/>
                  <path id="パス_424" data-name="パス 424" d="M43.164,57.329a1.364,1.364,0,1,1,1.364-1.364A1.314,1.314,0,0,1,43.164,57.329Z" transform="translate(-43.164 -49.484)" fill="#231815"/>
                  <path id="パス_425" data-name="パス 425" d="M48.964,57.329a1.364,1.364,0,1,1,1.364-1.364A1.382,1.382,0,0,1,48.964,57.329Z" transform="translate(-42.37 -49.484)" fill="#231815"/>
                  <path id="パス_426" data-name="パス 426" d="M51.864,60.229a1.364,1.364,0,1,1,1.364-1.364A1.568,1.568,0,0,1,51.864,60.229Z" transform="translate(-41.973 -49.087)" fill="#231815"/>
                  <path id="パス_427" data-name="パス 427" d="M46.064,60.229a1.364,1.364,0,1,1,1.364-1.364A1.382,1.382,0,0,1,46.064,60.229Z" transform="translate(-42.767 -49.087)" fill="#231815"/>
                  <path id="パス_428" data-name="パス 428" d="M51.864,54.429a1.364,1.364,0,1,1,1.364-1.364A1.463,1.463,0,0,1,51.864,54.429Z" transform="translate(-41.973 -49.881)" fill="#231815"/>
                  <path id="パス_429" data-name="パス 429" d="M46.064,54.429a1.364,1.364,0,1,1,1.364-1.364A1.314,1.314,0,0,1,46.064,54.429Z" transform="translate(-42.767 -49.881)" fill="#231815"/>
                </g>
                <g id="グループ_347" data-name="グループ 347" clip-path="url(#clip-path-2)">
                  <path id="パス_430" data-name="パス 430" d="M54.764,63.029a1.364,1.364,0,1,1,1.364-1.364A1.463,1.463,0,0,1,54.764,63.029Z" transform="translate(-41.576 -48.704)" fill="#231815"/>
                  <path id="パス_431" data-name="パス 431" d="M54.764,57.329a1.364,1.364,0,1,1,1.364-1.364A1.463,1.463,0,0,1,54.764,57.329Z" transform="translate(-41.576 -49.484)" fill="#231815"/>
                </g>
                <g id="グループ_348" data-name="グループ 348" clip-path="url(#clip-path-2)">
                  <path id="パス_432" data-name="パス 432" d="M43.164,51.529a1.364,1.364,0,1,1,1.364-1.364A1.314,1.314,0,0,1,43.164,51.529Z" transform="translate(-43.164 -50.278)" fill="#231815"/>
                  <path id="パス_433" data-name="パス 433" d="M48.964,51.529a1.364,1.364,0,1,1,1.364-1.364A1.382,1.382,0,0,1,48.964,51.529Z" transform="translate(-42.37 -50.278)" fill="#231815"/>
                </g>
                <g id="グループ_349" data-name="グループ 349" clip-path="url(#clip-path-2)">
                  <path id="パス_434" data-name="パス 434" d="M54.764,51.529a1.364,1.364,0,1,1,1.364-1.364A1.463,1.463,0,0,1,54.764,51.529Z" transform="translate(-41.576 -50.278)" fill="#231815"/>
                </g>
              </g>
            </g>
            <g id="グループ_357" data-name="グループ 357" clip-path="url(#clip-path-41)">
              <g id="グループ_356" data-name="グループ 356" transform="translate(-0.91 34.221)">
                <g id="グループ_352" data-name="グループ 352" clip-path="url(#clip-path-2)">
                  <path id="パス_436" data-name="パス 436" d="M43.164,74.629a1.364,1.364,0,1,1,1.364-1.364A1.382,1.382,0,0,1,43.164,74.629Z" transform="translate(-43.164 -60.19)" fill="#231815"/>
                  <path id="パス_437" data-name="パス 437" d="M48.964,74.629a1.364,1.364,0,1,1,1.364-1.364A1.467,1.467,0,0,1,48.964,74.629Z" transform="translate(-42.37 -60.19)" fill="#231815"/>
                  <path id="パス_438" data-name="パス 438" d="M43.164,68.829a1.364,1.364,0,1,1,1.364-1.364A1.314,1.314,0,0,1,43.164,68.829Z" transform="translate(-43.164 -60.984)" fill="#231815"/>
                  <path id="パス_439" data-name="パス 439" d="M48.964,68.829a1.364,1.364,0,1,1,1.364-1.364A1.382,1.382,0,0,1,48.964,68.829Z" transform="translate(-42.37 -60.984)" fill="#231815"/>
                  <path id="パス_440" data-name="パス 440" d="M51.864,71.729a1.364,1.364,0,1,1,1.364-1.364A1.463,1.463,0,0,1,51.864,71.729Z" transform="translate(-41.973 -60.587)" fill="#231815"/>
                  <path id="パス_441" data-name="パス 441" d="M46.064,71.729a1.364,1.364,0,1,1,1.364-1.364A1.314,1.314,0,0,1,46.064,71.729Z" transform="translate(-42.767 -60.587)" fill="#231815"/>
                  <path id="パス_442" data-name="パス 442" d="M51.864,65.929a1.364,1.364,0,1,1,1.364-1.364A1.463,1.463,0,0,1,51.864,65.929Z" transform="translate(-41.973 -61.381)" fill="#231815"/>
                  <path id="パス_443" data-name="パス 443" d="M46.064,65.929a1.364,1.364,0,1,1,1.364-1.364A1.314,1.314,0,0,1,46.064,65.929Z" transform="translate(-42.767 -61.381)" fill="#231815"/>
                </g>
                <g id="グループ_353" data-name="グループ 353" clip-path="url(#clip-path-2)">
                  <path id="パス_444" data-name="パス 444" d="M54.764,74.629a1.364,1.364,0,1,1,1.364-1.364A1.568,1.568,0,0,1,54.764,74.629Z" transform="translate(-41.576 -60.19)" fill="#231815"/>
                  <path id="パス_445" data-name="パス 445" d="M54.764,68.829a1.364,1.364,0,1,1,1.364-1.364A1.463,1.463,0,0,1,54.764,68.829Z" transform="translate(-41.576 -60.984)" fill="#231815"/>
                </g>
                <g id="グループ_354" data-name="グループ 354" clip-path="url(#clip-path-2)">
                  <path id="パス_446" data-name="パス 446" d="M43.164,63.029a1.364,1.364,0,1,1,1.364-1.364A1.314,1.314,0,0,1,43.164,63.029Z" transform="translate(-43.164 -61.778)" fill="#231815"/>
                  <path id="パス_447" data-name="パス 447" d="M48.964,63.029a1.364,1.364,0,1,1,1.364-1.364A1.382,1.382,0,0,1,48.964,63.029Z" transform="translate(-42.37 -61.778)" fill="#231815"/>
                </g>
                <g id="グループ_355" data-name="グループ 355" clip-path="url(#clip-path-2)">
                  <path id="パス_448" data-name="パス 448" d="M54.764,63.029a1.364,1.364,0,1,1,1.364-1.364A1.463,1.463,0,0,1,54.764,63.029Z" transform="translate(-41.576 -61.778)" fill="#231815"/>
                </g>
              </g>
            </g>
            <g id="グループ_363" data-name="グループ 363" clip-path="url(#clip-path-41)">
              <g id="グループ_362" data-name="グループ 362" transform="translate(12.279 -5.116)">
                <g id="グループ_358" data-name="グループ 358" clip-path="url(#clip-path-2)">
                  <path id="パス_450" data-name="パス 450" d="M54.764,40.029a1.364,1.364,0,1,1,1.364-1.364A1.463,1.463,0,0,1,54.764,40.029Z" transform="translate(-54.764 -25.59)" fill="#231815"/>
                  <path id="パス_451" data-name="パス 451" d="M60.464,40.029a1.364,1.364,0,1,1,1.364-1.364A1.314,1.314,0,0,1,60.464,40.029Z" transform="translate(-53.984 -25.59)" fill="#231815"/>
                  <path id="パス_452" data-name="パス 452" d="M54.764,34.229a1.364,1.364,0,1,1,1.364-1.364A1.463,1.463,0,0,1,54.764,34.229Z" transform="translate(-54.764 -26.384)" fill="#231815"/>
                  <path id="パス_453" data-name="パス 453" d="M60.464,34.229a1.364,1.364,0,1,1,1.364-1.364A1.314,1.314,0,0,1,60.464,34.229Z" transform="translate(-53.984 -26.384)" fill="#231815"/>
                  <path id="パス_454" data-name="パス 454" d="M63.364,37.129a1.364,1.364,0,1,1,1.364-1.364A1.382,1.382,0,0,1,63.364,37.129Z" transform="translate(-53.587 -25.987)" fill="#231815"/>
                  <path id="パス_455" data-name="パス 455" d="M57.564,37.129a1.364,1.364,0,1,1,1.364-1.364A1.314,1.314,0,0,1,57.564,37.129Z" transform="translate(-54.381 -25.987)" fill="#231815"/>
                  <path id="パス_456" data-name="パス 456" d="M63.364,31.429a1.364,1.364,0,1,1,1.364-1.364A1.467,1.467,0,0,1,63.364,31.429Z" transform="translate(-53.587 -26.767)" fill="#231815"/>
                  <path id="パス_457" data-name="パス 457" d="M57.564,31.429a1.364,1.364,0,1,1,1.364-1.364A1.382,1.382,0,0,1,57.564,31.429Z" transform="translate(-54.381 -26.767)" fill="#231815"/>
                </g>
                <g id="グループ_359" data-name="グループ 359" clip-path="url(#clip-path-2)">
                  <path id="パス_458" data-name="パス 458" d="M66.264,40.029a1.364,1.364,0,1,1,1.364-1.364A1.463,1.463,0,0,1,66.264,40.029Z" transform="translate(-53.19 -25.59)" fill="#231815"/>
                  <path id="パス_459" data-name="パス 459" d="M66.264,34.229a1.364,1.364,0,1,1,1.364-1.364A1.463,1.463,0,0,1,66.264,34.229Z" transform="translate(-53.19 -26.384)" fill="#231815"/>
                </g>
                <g id="グループ_360" data-name="グループ 360" clip-path="url(#clip-path-2)">
                  <path id="パス_460" data-name="パス 460" d="M54.764,28.529a1.364,1.364,0,1,1,1.364-1.364A1.463,1.463,0,0,1,54.764,28.529Z" transform="translate(-54.764 -27.164)" fill="#231815"/>
                  <path id="パス_461" data-name="パス 461" d="M60.464,28.529a1.364,1.364,0,1,1,1.364-1.364A1.314,1.314,0,0,1,60.464,28.529Z" transform="translate(-53.984 -27.164)" fill="#231815"/>
                </g>
                <g id="グループ_361" data-name="グループ 361" clip-path="url(#clip-path-2)">
                  <path id="パス_462" data-name="パス 462" d="M66.264,28.529a1.364,1.364,0,1,1,1.364-1.364A1.463,1.463,0,0,1,66.264,28.529Z" transform="translate(-53.19 -27.164)" fill="#231815"/>
                </g>
              </g>
            </g>
            <g id="グループ_369" data-name="グループ 369" clip-path="url(#clip-path-41)">
              <g id="グループ_368" data-name="グループ 368" transform="translate(12.279 7.958)">
                <g id="グループ_364" data-name="グループ 364" clip-path="url(#clip-path-2)">
                  <path id="パス_464" data-name="パス 464" d="M54.764,51.529a1.364,1.364,0,1,1,1.364-1.364A1.463,1.463,0,0,1,54.764,51.529Z" transform="translate(-54.764 -37.09)" fill="#231815"/>
                  <path id="パス_465" data-name="パス 465" d="M60.464,51.529a1.364,1.364,0,1,1,1.364-1.364A1.314,1.314,0,0,1,60.464,51.529Z" transform="translate(-53.984 -37.09)" fill="#231815"/>
                  <path id="パス_466" data-name="パス 466" d="M54.764,45.829a1.364,1.364,0,1,1,1.364-1.364A1.568,1.568,0,0,1,54.764,45.829Z" transform="translate(-54.764 -37.87)" fill="#231815"/>
                  <path id="パス_467" data-name="パス 467" d="M60.464,45.829a1.364,1.364,0,1,1,1.364-1.364A1.382,1.382,0,0,1,60.464,45.829Z" transform="translate(-53.984 -37.87)" fill="#231815"/>
                  <path id="パス_468" data-name="パス 468" d="M63.364,48.629a1.364,1.364,0,1,1,1.364-1.364A1.382,1.382,0,0,1,63.364,48.629Z" transform="translate(-53.587 -37.487)" fill="#231815"/>
                  <path id="パス_469" data-name="パス 469" d="M57.564,48.629a1.364,1.364,0,1,1,1.364-1.364A1.314,1.314,0,0,1,57.564,48.629Z" transform="translate(-54.381 -37.487)" fill="#231815"/>
                  <path id="パス_470" data-name="パス 470" d="M63.364,42.929a1.364,1.364,0,1,1,1.364-1.364A1.382,1.382,0,0,1,63.364,42.929Z" transform="translate(-53.587 -38.267)" fill="#231815"/>
                  <path id="パス_471" data-name="パス 471" d="M57.564,42.929a1.364,1.364,0,1,1,1.364-1.364A1.314,1.314,0,0,1,57.564,42.929Z" transform="translate(-54.381 -38.267)" fill="#231815"/>
                </g>
                <g id="グループ_365" data-name="グループ 365" clip-path="url(#clip-path-2)">
                  <path id="パス_472" data-name="パス 472" d="M66.264,51.529a1.364,1.364,0,1,1,1.364-1.364A1.463,1.463,0,0,1,66.264,51.529Z" transform="translate(-53.19 -37.09)" fill="#231815"/>
                  <path id="パス_473" data-name="パス 473" d="M66.264,45.829a1.364,1.364,0,1,1,1.364-1.364A1.568,1.568,0,0,1,66.264,45.829Z" transform="translate(-53.19 -37.87)" fill="#231815"/>
                </g>
                <g id="グループ_366" data-name="グループ 366" clip-path="url(#clip-path-2)">
                  <path id="パス_474" data-name="パス 474" d="M54.764,40.029a1.364,1.364,0,1,1,1.364-1.364A1.463,1.463,0,0,1,54.764,40.029Z" transform="translate(-54.764 -38.664)" fill="#231815"/>
                  <path id="パス_475" data-name="パス 475" d="M60.464,40.029a1.364,1.364,0,1,1,1.364-1.364A1.314,1.314,0,0,1,60.464,40.029Z" transform="translate(-53.984 -38.664)" fill="#231815"/>
                </g>
                <g id="グループ_367" data-name="グループ 367" clip-path="url(#clip-path-2)">
                  <path id="パス_476" data-name="パス 476" d="M66.264,40.029a1.364,1.364,0,1,1,1.364-1.364A1.463,1.463,0,0,1,66.264,40.029Z" transform="translate(-53.19 -38.664)" fill="#231815"/>
                </g>
              </g>
            </g>
            <g id="グループ_375" data-name="グループ 375" clip-path="url(#clip-path-41)">
              <g id="グループ_374" data-name="グループ 374" transform="translate(12.279 21.147)">
                <g id="グループ_370" data-name="グループ 370" clip-path="url(#clip-path-2)">
                  <path id="パス_478" data-name="パス 478" d="M54.764,63.029a1.364,1.364,0,1,1,1.364-1.364A1.463,1.463,0,0,1,54.764,63.029Z" transform="translate(-54.764 -48.704)" fill="#231815"/>
                  <path id="パス_479" data-name="パス 479" d="M60.464,63.029a1.364,1.364,0,1,1,1.364-1.364A1.314,1.314,0,0,1,60.464,63.029Z" transform="translate(-53.984 -48.704)" fill="#231815"/>
                  <path id="パス_480" data-name="パス 480" d="M54.764,57.329a1.364,1.364,0,1,1,1.364-1.364A1.463,1.463,0,0,1,54.764,57.329Z" transform="translate(-54.764 -49.484)" fill="#231815"/>
                  <path id="パス_481" data-name="パス 481" d="M60.464,57.329a1.364,1.364,0,1,1,1.364-1.364A1.314,1.314,0,0,1,60.464,57.329Z" transform="translate(-53.984 -49.484)" fill="#231815"/>
                  <path id="パス_482" data-name="パス 482" d="M63.364,60.229a1.364,1.364,0,1,1,1.364-1.364A1.467,1.467,0,0,1,63.364,60.229Z" transform="translate(-53.587 -49.087)" fill="#231815"/>
                  <path id="パス_483" data-name="パス 483" d="M57.564,60.229a1.364,1.364,0,1,1,1.364-1.364A1.382,1.382,0,0,1,57.564,60.229Z" transform="translate(-54.381 -49.087)" fill="#231815"/>
                  <path id="パス_484" data-name="パス 484" d="M63.364,54.429a1.364,1.364,0,1,1,1.364-1.364A1.382,1.382,0,0,1,63.364,54.429Z" transform="translate(-53.587 -49.881)" fill="#231815"/>
                  <path id="パス_485" data-name="パス 485" d="M57.564,54.429a1.364,1.364,0,1,1,1.364-1.364A1.314,1.314,0,0,1,57.564,54.429Z" transform="translate(-54.381 -49.881)" fill="#231815"/>
                </g>
                <g id="グループ_371" data-name="グループ 371" clip-path="url(#clip-path-2)">
                  <path id="パス_486" data-name="パス 486" d="M66.264,63.029a1.364,1.364,0,1,1,1.364-1.364A1.463,1.463,0,0,1,66.264,63.029Z" transform="translate(-53.19 -48.704)" fill="#231815"/>
                  <path id="パス_487" data-name="パス 487" d="M66.264,57.329a1.364,1.364,0,1,1,1.364-1.364A1.463,1.463,0,0,1,66.264,57.329Z" transform="translate(-53.19 -49.484)" fill="#231815"/>
                </g>
                <g id="グループ_372" data-name="グループ 372" clip-path="url(#clip-path-2)">
                  <path id="パス_488" data-name="パス 488" d="M54.764,51.529a1.364,1.364,0,1,1,1.364-1.364A1.463,1.463,0,0,1,54.764,51.529Z" transform="translate(-54.764 -50.278)" fill="#231815"/>
                  <path id="パス_489" data-name="パス 489" d="M60.464,51.529a1.364,1.364,0,1,1,1.364-1.364A1.314,1.314,0,0,1,60.464,51.529Z" transform="translate(-53.984 -50.278)" fill="#231815"/>
                </g>
                <g id="グループ_373" data-name="グループ 373" clip-path="url(#clip-path-2)">
                  <path id="パス_490" data-name="パス 490" d="M66.264,51.529a1.364,1.364,0,1,1,1.364-1.364A1.463,1.463,0,0,1,66.264,51.529Z" transform="translate(-53.19 -50.278)" fill="#231815"/>
                </g>
              </g>
            </g>
            <g id="グループ_381" data-name="グループ 381" clip-path="url(#clip-path-41)">
              <g id="グループ_380" data-name="グループ 380" transform="translate(12.279 34.221)">
                <g id="グループ_376" data-name="グループ 376" clip-path="url(#clip-path-2)">
                  <path id="パス_492" data-name="パス 492" d="M54.764,74.629a1.364,1.364,0,1,1,1.364-1.364A1.568,1.568,0,0,1,54.764,74.629Z" transform="translate(-54.764 -60.19)" fill="#231815"/>
                  <path id="パス_493" data-name="パス 493" d="M60.464,74.629a1.364,1.364,0,1,1,1.364-1.364A1.382,1.382,0,0,1,60.464,74.629Z" transform="translate(-53.984 -60.19)" fill="#231815"/>
                  <path id="パス_494" data-name="パス 494" d="M54.764,68.829a1.364,1.364,0,1,1,1.364-1.364A1.463,1.463,0,0,1,54.764,68.829Z" transform="translate(-54.764 -60.984)" fill="#231815"/>
                  <path id="パス_495" data-name="パス 495" d="M60.464,68.829a1.364,1.364,0,1,1,1.364-1.364A1.314,1.314,0,0,1,60.464,68.829Z" transform="translate(-53.984 -60.984)" fill="#231815"/>
                  <path id="パス_496" data-name="パス 496" d="M63.364,71.729a1.364,1.364,0,1,1,1.364-1.364A1.382,1.382,0,0,1,63.364,71.729Z" transform="translate(-53.587 -60.587)" fill="#231815"/>
                  <path id="パス_497" data-name="パス 497" d="M57.564,71.729a1.364,1.364,0,1,1,1.364-1.364A1.314,1.314,0,0,1,57.564,71.729Z" transform="translate(-54.381 -60.587)" fill="#231815"/>
                  <path id="パス_498" data-name="パス 498" d="M63.364,65.929a1.364,1.364,0,1,1,1.364-1.364A1.382,1.382,0,0,1,63.364,65.929Z" transform="translate(-53.587 -61.381)" fill="#231815"/>
                  <path id="パス_499" data-name="パス 499" d="M57.564,65.929a1.364,1.364,0,1,1,1.364-1.364A1.314,1.314,0,0,1,57.564,65.929Z" transform="translate(-54.381 -61.381)" fill="#231815"/>
                </g>
                <g id="グループ_377" data-name="グループ 377" clip-path="url(#clip-path-2)">
                  <path id="パス_500" data-name="パス 500" d="M66.264,74.629a1.364,1.364,0,1,1,1.364-1.364A1.568,1.568,0,0,1,66.264,74.629Z" transform="translate(-53.19 -60.19)" fill="#231815"/>
                  <path id="パス_501" data-name="パス 501" d="M66.264,68.829a1.364,1.364,0,1,1,1.364-1.364A1.463,1.463,0,0,1,66.264,68.829Z" transform="translate(-53.19 -60.984)" fill="#231815"/>
                </g>
                <g id="グループ_378" data-name="グループ 378" clip-path="url(#clip-path-2)">
                  <path id="パス_502" data-name="パス 502" d="M54.764,63.029a1.364,1.364,0,1,1,1.364-1.364A1.463,1.463,0,0,1,54.764,63.029Z" transform="translate(-54.764 -61.778)" fill="#231815"/>
                  <path id="パス_503" data-name="パス 503" d="M60.464,63.029a1.364,1.364,0,1,1,1.364-1.364A1.314,1.314,0,0,1,60.464,63.029Z" transform="translate(-53.984 -61.778)" fill="#231815"/>
                </g>
                <g id="グループ_379" data-name="グループ 379" clip-path="url(#clip-path-2)">
                  <path id="パス_504" data-name="パス 504" d="M66.264,63.029a1.364,1.364,0,1,1,1.364-1.364A1.463,1.463,0,0,1,66.264,63.029Z" transform="translate(-53.19 -61.778)" fill="#231815"/>
                </g>
              </g>
            </g>
          </g>
        </g>
        <g id="グループ_384" data-name="グループ 384" transform="translate(0 35.813)">
          <path id="パス_506" data-name="パス 506" d="M24.9,31.5,49.8,49.463,24.9,67.313,0,49.463Z" transform="translate(0 -31.5)" fill="#ffe2de"/>
        </g>
        <g id="グループ_385" data-name="グループ 385" transform="translate(49.797 35.813)">
          <path id="パス_507" data-name="パス 507" d="M68.7,31.5,93.6,49.463,68.7,67.313,43.8,49.463Z" transform="translate(-43.8 -31.5)" fill="#ffe2de"/>
        </g>
      </g>
    </g>
    <g id="グループ_388" data-name="グループ 388" transform="translate(61.761 427.948)" opacity="0.705">
      <g id="グループ_386" data-name="グループ 386" transform="translate(171.515 4.815) rotate(14)">
        <path id="パス_263" data-name="パス 263" d="M2154.083,1368.339c31.044-83.545,96.54-105.686,96.54-105.686v21.8S2208.882,1280.338,2154.083,1368.339Z" transform="translate(-2141.242 -1262.653)" fill="#ffeb00"/>
        <path id="パス_264" data-name="パス 264" d="M0,78.135C22.952,16.369,71.373,0,71.373,0V16.12S40.513,13.075,0,78.135Z" transform="translate(17.577 45.538) rotate(13)" fill="#ffeb00"/>
      </g>
      <g id="グループ_558" data-name="グループ 558" transform="translate(113.647 139.45) rotate(166)">
        <path id="パス_263-2" data-name="パス 263" d="M0,0C31.044,83.545,96.54,105.686,96.54,105.686v-21.8S54.8,88,0,0Z" transform="translate(12.841 32.04)" fill="#ffeb00"/>
        <path id="パス_264-2" data-name="パス 264" d="M0,0C22.952,61.766,71.373,78.135,71.373,78.135V62.015S40.513,65.06,0,0Z" transform="translate(0 16.055) rotate(-13)" fill="#ffeb00"/>
      </g>
    </g>
  </g>
</svg>
