<svg xmlns="http://www.w3.org/2000/svg" width="483" height="292" viewBox="0 0 483 292">
  <g id="グループ_738" data-name="グループ 738" transform="translate(54 69)">
    <path id="合体_5" data-name="合体 5" d="M77.8,93.694a50.775,50.775,0,0,1-19.255,3.669,48.312,48.312,0,0,1-25.363-6.783q-1.653.144-3.357.146C13.354,90.725,0,80.321,0,67.49,0,59.5,5.175,52.455,13.057,48.273A33.877,33.877,0,0,1,26.542,37.6c.821-14.756,17.8-26.54,38.633-26.54q1.689,0,3.343.1C75.473,4.428,87.213,0,100.524,0c17.727,0,32.668,7.853,37.23,18.563a36.471,36.471,0,0,1,14.688-3.073C173.185,15.49,190,32.826,190,54.212s-16.816,38.725-37.558,38.725a36.732,36.732,0,0,1-5.544-.419c-9.01,7.09-21.51,11.482-35.329,11.482C98.531,104,86.667,100.091,77.8,93.694Z" transform="translate(-54 9)" fill="#fff" opacity="0.251"/>
    <path id="合体_9" data-name="合体 9" d="M77.8,93.694a50.775,50.775,0,0,1-19.255,3.669,48.312,48.312,0,0,1-25.363-6.783q-1.653.144-3.357.146C13.354,90.725,0,80.321,0,67.49,0,59.5,5.175,52.455,13.057,48.273A33.877,33.877,0,0,1,26.542,37.6c.821-14.756,17.8-26.54,38.633-26.54q1.689,0,3.343.1C75.473,4.428,87.213,0,100.524,0c17.727,0,32.668,7.853,37.23,18.563a36.471,36.471,0,0,1,14.688-3.073C173.185,15.49,190,32.826,190,54.212s-16.816,38.725-37.558,38.725a36.732,36.732,0,0,1-5.544-.419c-9.01,7.09-21.51,11.482-35.329,11.482C98.531,104,86.667,100.091,77.8,93.694Z" transform="translate(188 -69)" fill="#fff" opacity="0.155"/>
    <path id="合体_6" data-name="合体 6" d="M77.8,93.694a50.775,50.775,0,0,1-19.255,3.669,48.312,48.312,0,0,1-25.363-6.783q-1.653.144-3.357.146C13.354,90.725,0,80.321,0,67.49,0,59.5,5.175,52.455,13.057,48.273A33.877,33.877,0,0,1,26.542,37.6c.821-14.756,17.8-26.54,38.633-26.54q1.689,0,3.343.1C75.473,4.428,87.213,0,100.524,0c17.727,0,32.668,7.853,37.23,18.563a36.471,36.471,0,0,1,14.688-3.073C173.185,15.49,190,32.826,190,54.212s-16.816,38.725-37.558,38.725a36.732,36.732,0,0,1-5.544-.419c-9.01,7.09-21.51,11.482-35.329,11.482C98.531,104,86.667,100.091,77.8,93.694Z" transform="translate(239 76)" fill="#fff" opacity="0.251"/>
    <path id="合体_7" data-name="合体 7" d="M37.672,45.045a24.74,24.74,0,0,1-9.323,1.764,23.521,23.521,0,0,1-12.281-3.261q-.8.069-1.626.07C6.466,43.617,0,38.616,0,32.447c0-3.84,2.506-7.228,6.322-9.239a16.384,16.384,0,0,1,6.53-5.129c.4-7.094,8.621-12.759,18.706-12.759q.818,0,1.619.049C36.545,2.129,42.23,0,48.675,0,57.258,0,64.493,3.776,66.7,8.925a17.768,17.768,0,0,1,7.112-1.477A18.4,18.4,0,0,1,92,26.064,18.406,18.406,0,0,1,73.814,44.681a17.911,17.911,0,0,1-2.684-.2A27.884,27.884,0,0,1,54.023,50,28.179,28.179,0,0,1,37.672,45.045Z" transform="translate(-46 78)" fill="#fff"/>
    <path id="合体_8" data-name="合体 8" d="M37.672,45.045a24.74,24.74,0,0,1-9.323,1.764,23.521,23.521,0,0,1-12.281-3.261q-.8.069-1.626.07C6.466,43.617,0,38.616,0,32.447c0-3.84,2.506-7.228,6.322-9.239a16.384,16.384,0,0,1,6.53-5.129c.4-7.094,8.621-12.759,18.706-12.759q.818,0,1.619.049C36.545,2.129,42.23,0,48.675,0,57.258,0,64.493,3.776,66.7,8.925a17.768,17.768,0,0,1,7.112-1.477A18.4,18.4,0,0,1,92,26.064,18.406,18.406,0,0,1,73.814,44.681a17.911,17.911,0,0,1-2.684-.2A27.884,27.884,0,0,1,54.023,50,28.179,28.179,0,0,1,37.672,45.045Z" transform="translate(303 173)" fill="#fff"/>
  </g>
</svg>
