<svg xmlns="http://www.w3.org/2000/svg" width="132.144" height="115.11" viewBox="0 0 132.144 115.11">
  <g id="グループ_167" data-name="グループ 167" transform="translate(1 1)">
    <path id="パス_113" data-name="パス 113" d="M117.313,44.3H13.6v97.282H119.022Z" transform="translate(-0.435 -40.481)" fill="#96d1d1"/>
    <line id="線_3" data-name="線 3" y1="13.869" x2="15.477" transform="translate(65.826 7.939)" fill="none" stroke="#fff" stroke-miterlimit="10" stroke-width="2"/>
    <line id="線_4" data-name="線 4" y1="13.869" x2="15.477" transform="translate(65.826 87.835)" fill="none" stroke="#fff" stroke-miterlimit="10" stroke-width="1.5"/>
    <line id="線_5" data-name="線 5" y1="13.869" x2="15.376" transform="translate(50.45 78.388)" fill="none" stroke="#fff" stroke-miterlimit="10" stroke-width="1.5"/>
    <rect id="長方形_130" data-name="長方形 130" width="103.713" height="2.814" transform="translate(13.165 101.101)" fill="#9d3033"/>
    <line id="線_6" data-name="線 6" y1="13.869" x2="15.477" transform="translate(65.826 12.462)" fill="none" stroke="#fff" stroke-miterlimit="10" stroke-width="1.5"/>
    <line id="線_7" data-name="線 7" y1="13.869" x2="15.477" transform="translate(65.826 58.691)" fill="none" stroke="#fff" stroke-miterlimit="10" stroke-width="1.5"/>
    <line id="線_8" data-name="線 8" y1="13.869" x2="15.477" transform="translate(65.826 74.368)" fill="none" stroke="#fff" stroke-miterlimit="10" stroke-width="1.5"/>
    <line id="線_10" data-name="線 10" y1="13.869" x2="15.477" transform="translate(65.826 24.923)" fill="none" stroke="#fff" stroke-miterlimit="10" stroke-width="2"/>
    <line id="線_11" data-name="線 11" y1="13.869" x2="15.477" transform="translate(65.826 39.797)" fill="none" stroke="#fff" stroke-miterlimit="10" stroke-width="2"/>
    <line id="線_12" data-name="線 12" y1="13.869" x2="15.477" transform="translate(65.826 45.726)" fill="none" stroke="#fff" stroke-miterlimit="10" stroke-width="2"/>
    <g id="グループ_164" data-name="グループ 164" transform="translate(17.185 3.819)">
      <line id="線_9" data-name="線 9" x1="97.382" transform="translate(0 69.846)" fill="none" stroke="#9d3033" stroke-miterlimit="10" stroke-width="2"/>
      <line id="線_13" data-name="線 13" x1="97.382" transform="translate(0 34.973)" fill="none" stroke="#9d3033" stroke-miterlimit="10" stroke-width="2"/>
      <line id="線_14" data-name="線 14" y2="97.282" transform="translate(48.641)" fill="none" stroke="#9d3033" stroke-miterlimit="10" stroke-width="2"/>
    </g>
    <ellipse id="楕円形_53" data-name="楕円形 53" cx="3.819" cy="3.819" rx="3.819" ry="3.819" transform="translate(0 0)" fill="none" stroke="#b97d4d" stroke-miterlimit="10" stroke-width="2"/>
    <ellipse id="楕円形_54" data-name="楕円形 54" cx="3.819" cy="3.819" rx="3.819" ry="3.819" transform="translate(122.506 0)" fill="none" stroke="#b97d4d" stroke-miterlimit="10" stroke-width="2"/>
    <path id="パス_150" data-name="パス 150" d="M0,0H114.768" transform="translate(7.236 3.819)" fill="none" stroke="#b97d4d" stroke-width="2"/>
    <path id="パス_114" data-name="パス 114" d="M54.342,154.132s-2.11.2-5.226.4c-1.206,0-2.713.1-4.221,0-1,0-2.01,0-3.115-.1a14.994,14.994,0,0,1-2.11-.2c-1.407-.2-2.814-.5-4.221-.8a24.282,24.282,0,0,0-4.723-.5h-.5a27.414,27.414,0,0,0-4.12.3c-1.809.2-3.517.4-5.226.7-1.407.2-2.814.4-4.221.5-4.02.3-7.738,0-11.256-2.412,0,0,4.422-19.7,5.829-33.064C12.535,105.592,13.54,46.7,13.54,46.7H50.222Z" transform="translate(-0.476 -40.469)" fill="#d39d75"/>
    <path id="パス_132" data-name="パス 132" d="M76.2,154.132s2.11.2,5.226.4c1.206,0,2.713.1,4.221,0,1,0,2.01,0,3.115-.1a14.994,14.994,0,0,0,2.11-.2c1.407-.2,2.814-.5,4.221-.8a24.282,24.282,0,0,1,4.723-.5h.5a27.414,27.414,0,0,1,4.12.3c1.809.2,3.517.4,5.226.7,1.407.2,2.814.4,4.221.5,4.02.3,7.738,0,11.256-2.412,0,0-4.422-19.7-5.829-33.064C118.007,105.592,117,46.7,117,46.7H80.32Z" transform="translate(-0.123 -40.469)" fill="#d39d75"/>
    <rect id="長方形_132" data-name="長方形 132" width="36.581" height="2.814" transform="translate(13.165 6.13)" fill="#953d3f"/>
    <path id="合体_2" data-name="合体 2" d="M31.254,110.246V8.162A5.91,5.91,0,0,0,30.5,6.131H26.98a6.779,6.779,0,0,0-.85,2.713v101.1c-1.407-.2-2.815-.5-4.221-.8V8.844a6.788,6.788,0,0,0-.851-2.713H17.533a6.771,6.771,0,0,0-.851,2.713v99.794a27.316,27.316,0,0,0-4.12.3V8.844a6.779,6.779,0,0,0-.852-2.713H8.187a6.771,6.771,0,0,0-.851,2.713v100.7c-1.407.2-2.814.4-4.221.5V8.844a6.787,6.787,0,0,0-.851-2.713H0V0H103.713V6.131h-2.365a5.9,5.9,0,0,0-.75,2.028V110.045c-1.407-.1-2.814-.3-4.221-.5V8.822l-.1.022a6.78,6.78,0,0,0-.852-2.713H91.9a6.777,6.777,0,0,0-.851,2.713v100.1a27.445,27.445,0,0,0-4.121-.3V8.844a6.777,6.777,0,0,0-.851-2.713H82.555A5.9,5.9,0,0,0,81.8,8.162V109.141c-1.407.3-2.814.6-4.221.8V8.844a6.777,6.777,0,0,0-.851-2.713H73.209a6.779,6.779,0,0,0-.852,2.713v101.4c-1.507.1-3.015,0-4.22,0V6.131H35.475V110.246c-.8,0-1.742.045-2.725.045C32.259,110.291,31.756,110.279,31.254,110.246Z" transform="translate(13.166 3.818)" fill="#b97c4d"/>
    <path id="パス_143" data-name="パス 143" d="M81.4,53.118s1.708-3.718-.5-3.718h1.407v3.517Z" transform="translate(-0.1 -40.456)" fill="#953d3f"/>
    <g id="グループ_165" data-name="グループ 165" transform="translate(17.185 1.206)">
      <path id="パス_127" data-name="パス 127" d="M18.806,50.443h0A1.222,1.222,0,0,1,17.6,49.237V42.906A1.222,1.222,0,0,1,18.806,41.7h0a1.222,1.222,0,0,1,1.206,1.206v6.331A1.159,1.159,0,0,1,18.806,50.443Z" transform="translate(-17.6 -41.7)" fill="#d5d5d5"/>
      <path id="パス_128" data-name="パス 128" d="M25.806,50.443h0A1.222,1.222,0,0,1,24.6,49.237V42.906A1.222,1.222,0,0,1,25.806,41.7h0a1.222,1.222,0,0,1,1.206,1.206v6.331A1.159,1.159,0,0,1,25.806,50.443Z" transform="translate(-17.565 -41.7)" fill="#d5d5d5"/>
      <path id="パス_129" data-name="パス 129" d="M32.806,50.443h0A1.222,1.222,0,0,1,31.6,49.237V42.906A1.222,1.222,0,0,1,32.806,41.7h0a1.222,1.222,0,0,1,1.206,1.206v6.331A1.159,1.159,0,0,1,32.806,50.443Z" transform="translate(-17.53 -41.7)" fill="#d5d5d5"/>
      <path id="パス_130" data-name="パス 130" d="M39.806,50.443h0A1.222,1.222,0,0,1,38.6,49.237V42.906A1.222,1.222,0,0,1,39.806,41.7h0a1.222,1.222,0,0,1,1.206,1.206v6.331A1.159,1.159,0,0,1,39.806,50.443Z" transform="translate(-17.496 -41.7)" fill="#d5d5d5"/>
      <path id="パス_131" data-name="パス 131" d="M46.906,50.443h0A1.222,1.222,0,0,1,45.7,49.237V42.906A1.222,1.222,0,0,1,46.906,41.7h0a1.222,1.222,0,0,1,1.206,1.206v6.331A1.3,1.3,0,0,1,46.906,50.443Z" transform="translate(-17.46 -41.7)" fill="#d5d5d5"/>
      <path id="パス_145" data-name="パス 145" d="M111.506,50.443h0a1.222,1.222,0,0,0,1.206-1.206V42.906a1.222,1.222,0,0,0-1.206-1.206h0a1.222,1.222,0,0,0-1.206,1.206v6.331A1.222,1.222,0,0,0,111.506,50.443Z" transform="translate(-17.139 -41.7)" fill="#d5d5d5"/>
      <path id="パス_146" data-name="パス 146" d="M104.506,50.443h0a1.222,1.222,0,0,0,1.206-1.206V42.906a1.222,1.222,0,0,0-1.206-1.206h0a1.222,1.222,0,0,0-1.206,1.206v6.331A1.222,1.222,0,0,0,104.506,50.443Z" transform="translate(-17.174 -41.7)" fill="#d5d5d5"/>
      <path id="パス_147" data-name="パス 147" d="M97.506,50.443h0a1.222,1.222,0,0,0,1.206-1.206V42.906A1.222,1.222,0,0,0,97.506,41.7h0A1.222,1.222,0,0,0,96.3,42.906v6.331A1.222,1.222,0,0,0,97.506,50.443Z" transform="translate(-17.208 -41.7)" fill="#d5d5d5"/>
      <path id="パス_148" data-name="パス 148" d="M90.506,50.443h0a1.222,1.222,0,0,0,1.206-1.206V42.906A1.222,1.222,0,0,0,90.506,41.7h0A1.222,1.222,0,0,0,89.3,42.906v6.331A1.159,1.159,0,0,0,90.506,50.443Z" transform="translate(-17.243 -41.7)" fill="#d5d5d5"/>
      <path id="パス_149" data-name="パス 149" d="M83.506,50.443h0a1.222,1.222,0,0,0,1.206-1.206V42.906A1.222,1.222,0,0,0,83.506,41.7h0A1.222,1.222,0,0,0,82.3,42.906v6.331A1.159,1.159,0,0,0,83.506,50.443Z" transform="translate(-17.278 -41.7)" fill="#d5d5d5"/>
    </g>
  </g>
</svg>
