<svg xmlns="http://www.w3.org/2000/svg" width="49.601" height="67.322" viewBox="0 0 49.601 67.322">
  <g id="グループ_207" data-name="グループ 207" transform="translate(0 -1)">
    <g id="グループ_209" data-name="グループ 209" transform="translate(17.277 5.606)">
      <path id="パス_166" data-name="パス 166" d="M23.646,15.283H8.6L16.123,3ZM11.364,13.747h9.519l-4.76-7.677Z" transform="translate(-8.6 -3)" fill="#8e5c36"/>
    </g>
    <g id="グループ_210" data-name="グループ 210" transform="translate(20.962 1)">
      <ellipse id="楕円形_68" data-name="楕円形 68" cx="3.071" cy="3.071" rx="3.071" ry="3.071" transform="translate(0.768 0.768)" fill="#8e5c36"/>
      <path id="パス_167" data-name="パス 167" d="M14.838,7.677A3.8,3.8,0,0,1,11,3.838a3.838,3.838,0,1,1,7.677,0A3.8,3.8,0,0,1,14.838,7.677Zm0-6.141a2.361,2.361,0,0,0-2.3,2.3,2.3,2.3,0,1,0,4.606,0A2.361,2.361,0,0,0,14.838,1.535Z" transform="translate(-11)" fill="#8e5c36"/>
    </g>
    <g id="グループ_207-2" data-name="グループ 207" transform="translate(0 16.121)">
      <rect id="長方形_159" data-name="長方形 159" width="49.601" height="52.201" rx="1" fill="#b78157"/>
    </g>
    <g id="グループ_208" data-name="グループ 208" transform="translate(1.996 18.424)">
      <path id="パス_165" data-name="パス 165" d="M46.909,59.6H1.3V12H46.722V59.6ZM5.038,56.524H42.984V15.071H5.038Z" transform="translate(-1.3 -12)" fill="#fff"/>
    </g>
    <rect id="長方形_368" data-name="長方形 368" width="39" height="43" transform="translate(5.463 20.883)" fill="#f6f0ed"/>
    <g id="グループ_211" data-name="グループ 211" transform="translate(10.44 28.844)">
      <path id="パス_168" data-name="パス 168" d="M11.124,29.247c7.37,2.3.154,8.137,2.3,14.279,3.378,7.83,12.59,1.075,9.058-8.291-1.842-4.3-5.834-2.149-4.76-7.063C23.867,7.906-7.761,26.33,11.124,29.247Z" transform="translate(-5.033 -18.787)" fill="#d0bfb6"/>
    </g>
    <g id="グループ_212" data-name="グループ 212" transform="translate(32.383 36.606)">
      <path id="パス_169" data-name="パス 169" d="M19.847,34.678c-2-2.149-3.071-6.6-2.61-8.444C19.386,17.022,28.138,37.6,19.847,34.678Z" transform="translate(-17.131 -23.842)" fill="#d0bfb6"/>
    </g>
  </g>
</svg>
