<svg id="グループ_175" data-name="グループ 175" xmlns="http://www.w3.org/2000/svg" width="89.67" height="159.555" viewBox="0 0 89.67 159.555">
  <g id="グループ_175-2" data-name="グループ 175" transform="translate(0.627 48.565)">
    <rect id="長方形_152" data-name="長方形 152" width="89.043" height="106.6" fill="#d39e75"/>
  </g>
  <g id="グループ_176" data-name="グループ 176" transform="translate(80.264 159.555)">
    <path id="パス_153" data-name="パス 153" d="M64,127.2" transform="translate(-64 -127.2)" fill="none" stroke="#450d00" stroke-miterlimit="10" stroke-width="1"/>
  </g>
  <g id="グループ_177" data-name="グループ 177" transform="translate(80.264 48.565)">
    <rect id="長方形_153" data-name="長方形 153" width="9.406" height="106.6" fill="#aa8260"/>
  </g>
  <g id="グループ_178" data-name="グループ 178" transform="translate(0 48.565)">
    <rect id="長方形_154" data-name="長方形 154" width="9.406" height="106.6" fill="#aa8260"/>
  </g>
  <g id="グループ_179" data-name="グループ 179" transform="translate(8.779 48.565)">
    <path id="パス_154" data-name="パス 154" d="M11.139,132.132h-.125V145.3H7V38.7h4.013V49.36Z" transform="translate(-7 -38.7)" fill="#724825"/>
  </g>
  <g id="グループ_180" data-name="グループ 180" transform="translate(76.125 48.565)">
    <path id="パス_155" data-name="パス 155" d="M64.839,132.132h-.125V145.3H60.7V38.7h4.013V49.36Z" transform="translate(-60.7 -38.7)" fill="#724825"/>
  </g>
  <g id="グループ_183" data-name="グループ 183" transform="translate(14.799 16.535)">
    <path id="パス_158" data-name="パス 158" d="M28.1,45.817a28.663,28.663,0,0,1-3.135-.251,16.369,16.369,0,0,1,0-32.106,18.871,18.871,0,0,1,4.515-.251,16.242,16.242,0,0,1,0,32.356A2.7,2.7,0,0,1,28.1,45.817Zm0-31.353a24.487,24.487,0,0,0-2.884.251,15.084,15.084,0,0,0,0,29.6,25.055,25.055,0,0,0,4.264.251,15.119,15.119,0,0,0,0-30.1Z" transform="translate(-11.8 -13.161)" fill="#dd6a6e"/>
  </g>
  <g id="グループ_184" data-name="グループ 184" transform="translate(18.059 17.212)">
    <path id="パス_159" data-name="パス 159" d="M42.994,29.377A15.792,15.792,0,0,1,28.7,45.053h0a12.876,12.876,0,0,1-3.01-.627h0a15.677,15.677,0,0,1,0-30.1h0A25.687,25.687,0,0,1,28.7,13.7h0A15.783,15.783,0,0,1,42.994,29.377Z" transform="translate(-14.4 -13.7)" fill="#cc5054"/>
  </g>
  <g id="グループ_185" data-name="グループ 185" transform="translate(25.337 65.495)">
    <ellipse id="楕円形_58" data-name="楕円形 58" cx="3.512" cy="3.512" rx="3.512" ry="3.512" fill="#4e3e30"/>
  </g>
  <g id="グループ_186" data-name="グループ 186" transform="translate(57.568 65.495)">
    <ellipse id="楕円形_59" data-name="楕円形 59" cx="3.512" cy="3.512" rx="3.512" ry="3.512" fill="#4e3e30"/>
  </g>
  <g id="グループ_187" data-name="グループ 187" transform="translate(25.337 93.086)">
    <ellipse id="楕円形_60" data-name="楕円形 60" cx="3.512" cy="3.512" rx="3.512" ry="3.512" fill="#4e3e30"/>
  </g>
  <g id="グループ_188" data-name="グループ 188" transform="translate(57.568 93.086)">
    <ellipse id="楕円形_61" data-name="楕円形 61" cx="3.512" cy="3.512" rx="3.512" ry="3.512" fill="#4e3e30"/>
  </g>
  <g id="グループ_189" data-name="グループ 189" transform="translate(25.337 120.551)">
    <ellipse id="楕円形_62" data-name="楕円形 62" cx="3.512" cy="3.512" rx="3.512" ry="3.512" fill="#4e3e30"/>
  </g>
  <g id="グループ_190" data-name="グループ 190" transform="translate(57.568 120.551)">
    <ellipse id="楕円形_63" data-name="楕円形 63" cx="3.512" cy="3.512" rx="3.512" ry="3.512" fill="#4e3e30"/>
  </g>
  <g id="グループ_191" data-name="グループ 191" transform="translate(0 47.87)">
    <rect id="長方形_155" data-name="長方形 155" width="89.67" height="10.104" fill="#724825"/>
  </g>
  <g id="グループ_192" data-name="グループ 192" transform="translate(0 145.505)">
    <rect id="長方形_156" data-name="長方形 156" width="89.043" height="10.033" fill="#724825"/>
  </g>
  <g id="グループ_193" data-name="グループ 193" transform="translate(0 113.779)">
    <rect id="長方形_157" data-name="長方形 157" width="89.67" height="1.254" fill="#724825"/>
  </g>
  <g id="グループ_194" data-name="グループ 194" transform="translate(0 86.063)">
    <rect id="長方形_158" data-name="長方形 158" width="89.67" height="1.254" fill="#724825"/>
  </g>
  <g id="グループ_195" data-name="グループ 195" transform="translate(15.426 17.463)">
    <path id="パス_160" data-name="パス 160" d="M37.633,29.326A15.65,15.65,0,0,1,26.346,44.375c-.5.125-1,.251-1.38.376a15.726,15.726,0,0,1,0-30.851c.5.125,1,.251,1.38.376A15.65,15.65,0,0,1,37.633,29.326Z" transform="translate(-12.3 -13.9)" fill="#dd6a6e"/>
  </g>
  <g id="グループ_198" data-name="グループ 198" transform="translate(6.557 8.414)">
    <path id="パス_163" data-name="パス 163" d="M18.4,19.351c0,3.762-2.007,4.139-3.512,4.139s-3.512-1.63-3.135-3.386a7.479,7.479,0,0,1,.5-1.881s-5.894,0-5.142-3.888,4.766-1,4.766-1S6.486,8.691,10.75,6.308s5.518,4.013,5.518,4.013,2.007-5.769,5.769-3.261-.627,5.267-.627,5.267,5.644,1.5,4.264,5.142-4.64.878-5.518.627C19.153,17.72,18.4,19.351,18.4,19.351Z" transform="translate(-7.047 -5.776)" fill="#ffba00"/>
  </g>
  <g id="グループ_206" data-name="グループ 206" transform="translate(22.143 12.917)">
    <g id="グループ_196" data-name="グループ 196" transform="translate(0 0)">
      <path id="パス_161" data-name="パス 161" d="M28.1,23.976c0,3.762-2.007,4.139-3.512,4.139s-3.512-1.63-3.135-3.386a7.479,7.479,0,0,1,.5-1.881s-5.894,0-5.142-3.888c.878-3.888,4.766-1,4.766-1s-5.267-4.766-1-7.148,5.518,4.013,5.518,4.013S28.1,9.052,31.863,11.56s-.627,5.267-.627,5.267,5.644,1.5,4.264,5.142-4.64.878-5.518.627C28.853,22.346,28.1,23.976,28.1,23.976Z" transform="translate(-16.747 -10.276)" fill="#ffba00"/>
    </g>
    <g id="グループ_200" data-name="グループ 200" transform="translate(7.215 8.433)">
      <ellipse id="楕円形_64" data-name="楕円形 64" cx="2.007" cy="1.38" rx="2.007" ry="1.38" fill="#fff"/>
    </g>
  </g>
  <g id="グループ_205" data-name="グループ 205" transform="translate(36.087 7.752)">
    <g id="グループ_197" data-name="グループ 197" transform="translate(0 0)">
      <path id="パス_162" data-name="パス 162" d="M37.4,21.676c0,3.762-2.007,4.139-3.512,4.139s-3.512-1.63-3.135-3.386a7.479,7.479,0,0,1,.5-1.881s-5.894,0-5.142-3.888c.878-3.888,4.766-1,4.766-1s-5.267-4.766-1-7.149,5.518,4.013,5.518,4.013S37.4,6.752,41.163,9.26s-.627,5.267-.627,5.267,5.644,1.5,4.264,5.142-4.64.878-5.518.627C38.278,20.046,37.4,21.676,37.4,21.676Z" transform="translate(-26.047 -7.976)" fill="#ffba00"/>
    </g>
    <g id="グループ_201" data-name="グループ 201" transform="translate(7.215 8.433)">
      <ellipse id="楕円形_65" data-name="楕円形 65" cx="2.007" cy="1.38" rx="2.007" ry="1.38" fill="#fff"/>
    </g>
  </g>
  <g id="グループ_204" data-name="グループ 204" transform="translate(21.63 0)">
    <g id="グループ_199" data-name="グループ 199">
      <path id="パス_164" data-name="パス 164" d="M28.6,13.676c0,3.762-2.007,4.139-3.512,4.139s-3.512-1.63-3.135-3.386a7.479,7.479,0,0,1,.5-1.881s-5.894,0-5.142-3.888,4.766-1,4.766-1-5.267-4.766-1-7.149,5.518,4.013,5.518,4.013,1.881-5.769,5.644-3.261-.627,5.267-.627,5.267,5.644,1.5,4.264,5.142-4.64.878-5.518.627C29.353,11.92,28.6,13.676,28.6,13.676Z" transform="translate(-17.247 0.024)" fill="#ffba00"/>
    </g>
    <g id="グループ_202" data-name="グループ 202" transform="translate(6.713 8.307)">
      <ellipse id="楕円形_66" data-name="楕円形 66" cx="2.007" cy="1.38" rx="2.007" ry="1.38" fill="#fff"/>
    </g>
  </g>
  <g id="グループ_203" data-name="グループ 203" transform="translate(13.772 16.722)">
    <ellipse id="楕円形_67" data-name="楕円形 67" cx="2.007" cy="1.38" rx="2.007" ry="1.38" fill="#fff"/>
  </g>
</svg>
