<svg xmlns="http://www.w3.org/2000/svg" xmlns:xlink="http://www.w3.org/1999/xlink" width="378" height="812" viewBox="0 0 378 812">
  <defs>
    <clipPath id="clip-path">
      <rect width="378" height="812" fill="none"/>
    </clipPath>
  </defs>
  <g id="グループ_603" data-name="グループ 603" transform="translate(42 -635)">
    <rect id="長方形_346" data-name="長方形 346" width="375" height="812" transform="translate(-42 635)" fill="#fcd0d2"/>
    <g id="リピートグリッド_1" data-name="リピートグリッド 1" transform="translate(-42 635)" opacity="0.339" clip-path="url(#clip-path)">
      <g transform="translate(-21)">
        <rect id="長方形_147" data-name="長方形 147" width="16" height="585" transform="translate(21)" fill="#fff"/>
      </g>
      <g transform="translate(10)">
        <rect id="長方形_147-2" data-name="長方形 147" width="16" height="585" transform="translate(21)" fill="#fff"/>
      </g>
      <g transform="translate(41)">
        <rect id="長方形_147-3" data-name="長方形 147" width="16" height="585" transform="translate(21)" fill="#fff"/>
      </g>
      <g transform="translate(72)">
        <rect id="長方形_147-4" data-name="長方形 147" width="16" height="585" transform="translate(21)" fill="#fff"/>
      </g>
      <g transform="translate(103)">
        <rect id="長方形_147-5" data-name="長方形 147" width="16" height="585" transform="translate(21)" fill="#fff"/>
      </g>
      <g transform="translate(134)">
        <rect id="長方形_147-6" data-name="長方形 147" width="16" height="585" transform="translate(21)" fill="#fff"/>
      </g>
      <g transform="translate(165)">
        <rect id="長方形_147-7" data-name="長方形 147" width="16" height="585" transform="translate(21)" fill="#fff"/>
      </g>
      <g transform="translate(196)">
        <rect id="長方形_147-8" data-name="長方形 147" width="16" height="585" transform="translate(21)" fill="#fff"/>
      </g>
      <g transform="translate(227)">
        <rect id="長方形_147-9" data-name="長方形 147" width="16" height="585" transform="translate(21)" fill="#fff"/>
      </g>
      <g transform="translate(258)">
        <rect id="長方形_147-10" data-name="長方形 147" width="16" height="585" transform="translate(21)" fill="#fff"/>
      </g>
      <g transform="translate(289)">
        <rect id="長方形_147-11" data-name="長方形 147" width="16" height="585" transform="translate(21)" fill="#fff"/>
      </g>
      <g transform="translate(320)">
        <rect id="長方形_147-12" data-name="長方形 147" width="16" height="585" transform="translate(21)" fill="#fff"/>
      </g>
      <g transform="translate(351)">
        <rect id="長方形_147-13" data-name="長方形 147" width="16" height="585" transform="translate(21)" fill="#fff"/>
      </g>
      <g transform="translate(-21 566)">
        <rect id="長方形_147-14" data-name="長方形 147" width="16" height="585" transform="translate(21)" fill="#fff"/>
      </g>
      <g transform="translate(10 566)">
        <rect id="長方形_147-15" data-name="長方形 147" width="16" height="585" transform="translate(21)" fill="#fff"/>
      </g>
      <g transform="translate(41 566)">
        <rect id="長方形_147-16" data-name="長方形 147" width="16" height="585" transform="translate(21)" fill="#fff"/>
      </g>
      <g transform="translate(72 566)">
        <rect id="長方形_147-17" data-name="長方形 147" width="16" height="585" transform="translate(21)" fill="#fff"/>
      </g>
      <g transform="translate(103 566)">
        <rect id="長方形_147-18" data-name="長方形 147" width="16" height="585" transform="translate(21)" fill="#fff"/>
      </g>
      <g transform="translate(134 566)">
        <rect id="長方形_147-19" data-name="長方形 147" width="16" height="585" transform="translate(21)" fill="#fff"/>
      </g>
      <g transform="translate(165 566)">
        <rect id="長方形_147-20" data-name="長方形 147" width="16" height="585" transform="translate(21)" fill="#fff"/>
      </g>
      <g transform="translate(196 566)">
        <rect id="長方形_147-21" data-name="長方形 147" width="16" height="585" transform="translate(21)" fill="#fff"/>
      </g>
      <g transform="translate(227 566)">
        <rect id="長方形_147-22" data-name="長方形 147" width="16" height="585" transform="translate(21)" fill="#fff"/>
      </g>
      <g transform="translate(258 566)">
        <rect id="長方形_147-23" data-name="長方形 147" width="16" height="585" transform="translate(21)" fill="#fff"/>
      </g>
      <g transform="translate(289 566)">
        <rect id="長方形_147-24" data-name="長方形 147" width="16" height="585" transform="translate(21)" fill="#fff"/>
      </g>
      <g transform="translate(320 566)">
        <rect id="長方形_147-25" data-name="長方形 147" width="16" height="585" transform="translate(21)" fill="#fff"/>
      </g>
      <g transform="translate(351 566)">
        <rect id="長方形_147-26" data-name="長方形 147" width="16" height="585" transform="translate(21)" fill="#fff"/>
      </g>
    </g>
  </g>
</svg>
