<svg xmlns="http://www.w3.org/2000/svg" width="23.879" height="23.88" viewBox="0 0 23.879 23.88">
  <g id="無料の設定歯車アイコン" transform="translate(-0.004)">
    <path id="パス_870" data-name="パス 870" d="M23.3,9.795l-2.6-.12a.612.612,0,0,1-.539-.378L19.618,8a.615.615,0,0,1,.115-.649l1.757-1.928a.616.616,0,0,0-.02-.848L19.3,2.414a.615.615,0,0,0-.849-.019L16.529,4.151a.614.614,0,0,1-.649.114l-1.292-.536a.612.612,0,0,1-.378-.539l-.121-2.6A.614.614,0,0,0,13.476,0H10.412A.615.615,0,0,0,9.8.586l-.12,2.6a.612.612,0,0,1-.378.539l-1.292.536a.613.613,0,0,1-.649-.114L5.432,2.395a.615.615,0,0,0-.849.019L2.418,4.58a.614.614,0,0,0-.02.848L4.155,7.356A.612.612,0,0,1,4.268,8L3.733,9.3a.613.613,0,0,1-.539.378l-2.6.12A.614.614,0,0,0,0,10.408v3.064a.615.615,0,0,0,.586.613l2.6.12a.613.613,0,0,1,.539.378l.535,1.292a.612.612,0,0,1-.113.649L2.4,18.451a.615.615,0,0,0,.019.849l2.167,2.166a.615.615,0,0,0,.848.02L7.36,19.728a.614.614,0,0,1,.649-.114L9.3,20.15a.613.613,0,0,1,.378.54l.12,2.6a.615.615,0,0,0,.614.586h3.065a.614.614,0,0,0,.613-.586l.121-2.6a.613.613,0,0,1,.378-.54l1.292-.535a.615.615,0,0,1,.649.114l1.927,1.757a.616.616,0,0,0,.849-.02L21.47,19.3a.617.617,0,0,0,.02-.849l-1.757-1.927a.613.613,0,0,1-.115-.649l.537-1.292a.612.612,0,0,1,.539-.378l2.6-.12a.614.614,0,0,0,.585-.613V10.408A.613.613,0,0,0,23.3,9.795ZM11.944,15.84a3.9,3.9,0,1,1,3.9-3.9A3.9,3.9,0,0,1,11.944,15.84Z" fill="#fff"/>
  </g>
</svg>
