<svg xmlns="http://www.w3.org/2000/svg" xmlns:xlink="http://www.w3.org/1999/xlink" width="296.521" height="29.726" viewBox="0 0 296.521 29.726">
  <defs>
    <linearGradient id="linear-gradient" x1="0.5" x2="0.5" y2="1" gradientUnits="objectBoundingBox">
      <stop offset="0" stop-color="#f559b1"/>
      <stop offset="1" stop-color="#fb7a82"/>
    </linearGradient>
  </defs>
  <g id="グループ_777" data-name="グループ 777" transform="translate(0 -0.1)">
    <g id="グループ_761" data-name="グループ 761" transform="translate(0 0.1)">
      <g id="グループ_749" data-name="グループ 749" transform="translate(49.543 2.108)">
        <path id="パス_1695" data-name="パス 1695" d="M54.59,28.664a3.259,3.259,0,0,1-3.057-2.214l-.949-3.057a3.026,3.026,0,0,1,.211-2.53,3.342,3.342,0,0,1,2-1.581,8.936,8.936,0,0,0,2.846-1.054H50.162A3.106,3.106,0,0,1,47,15.066V12.009a3.223,3.223,0,0,1,3.057-3.162c0-.211-.105-.422-.105-.632V5.262A3.106,3.106,0,0,1,53.114,2.1H68.925a3.106,3.106,0,0,1,3.162,3.162V8.319a1.337,1.337,0,0,1-.105.632,3.223,3.223,0,0,1,3.057,3.162v3.057a3.106,3.106,0,0,1-3.162,3.162H66.5a12.218,12.218,0,0,1-2.635,5.8c-1.9,2.214-4.743,3.689-8.538,4.533Z" transform="translate(-47 -2.1)" fill="#fff"/>
      </g>
      <g id="グループ_750" data-name="グループ 750" transform="translate(0 2.53)">
        <path id="パス_1696" data-name="パス 1696" d="M6.114,28.431a3.005,3.005,0,0,1-2.635-1.476L1.687,24.215a3.257,3.257,0,0,1-.422-2.635,3.165,3.165,0,0,1,1.687-2,5.618,5.618,0,0,0,2.741-2.319c.316-.632.738-2.108.843-5.481H3.162A3.106,3.106,0,0,1,0,8.614V5.662A3.106,3.106,0,0,1,3.162,2.5h20.45a3.106,3.106,0,0,1,3.162,3.162V8.614a2.918,2.918,0,0,1-.105.949,17.428,17.428,0,0,1-3.162,5.8,18.894,18.894,0,0,1-5.165,4.427,2.975,2.975,0,0,1-1.581.422,4.419,4.419,0,0,1-1.687-.422,11.666,11.666,0,0,1-2.53,4.638A15.8,15.8,0,0,1,7.273,28.22,2.821,2.821,0,0,1,6.114,28.431Z" transform="translate(0 -2.5)" fill="#fff"/>
      </g>
      <g id="グループ_751" data-name="グループ 751" transform="translate(24.639 1.897)">
        <path id="パス_1697" data-name="パス 1697" d="M36.578,28.569a3.106,3.106,0,0,1-3.162-3.162v-6.43a29.54,29.54,0,0,1-5.9,1.265h-.422a3.252,3.252,0,0,1-3.162-2.635L23.4,14.444a3.919,3.919,0,0,1,.527-2.424,2.8,2.8,0,0,1,2.108-1.265,29.21,29.21,0,0,0,9.592-2.741,27.441,27.441,0,0,0,7.59-5.165A3.034,3.034,0,0,1,45.432,1.9h.105a3.386,3.386,0,0,1,2.319,1.054l2.108,2.424A3.227,3.227,0,0,1,49.86,9.7a33.391,33.391,0,0,1-6.325,4.849V25.407a3.106,3.106,0,0,1-3.162,3.162Z" transform="translate(-23.375 -1.9)" fill="#fff"/>
      </g>
      <g id="グループ_752" data-name="グループ 752" transform="translate(74.631 1.581)">
        <path id="パス_1698" data-name="パス 1698" d="M93.252,28.269a3.244,3.244,0,0,1-2.952-1.9c0-.105-.105-.105-.105-.211a147.287,147.287,0,0,1-16.022,1.37h-.105a3.4,3.4,0,0,1-2.214-.843,2.871,2.871,0,0,1-.949-2.214L70.8,21.417a3.32,3.32,0,0,1,3.057-3.268h.316A104.433,104.433,0,0,0,78.495,4.024,3.14,3.14,0,0,1,81.552,1.6h.527l3.479.632A3.13,3.13,0,0,1,87.666,3.6a2.849,2.849,0,0,1,.422,2.424,37.877,37.877,0,0,1-1.265,4.954l2.952-1.37a7.254,7.254,0,0,1,1.37-.211,3.107,3.107,0,0,1,2.846,1.792c1.792,3.689,3.584,7.484,5.271,11.384a3.217,3.217,0,0,1,0,2.424,3.316,3.316,0,0,1-1.792,1.792l-3.162,1.265A3.745,3.745,0,0,1,93.252,28.269Zm-7.8-12.438c-.105.527-.316.949-.422,1.476.422,0,.738-.105,1.16-.105A8.713,8.713,0,0,1,85.452,15.83Z" transform="translate(-70.8 -1.6)" fill="#fff"/>
      </g>
      <g id="グループ_753" data-name="グループ 753" transform="translate(100.165 0.316)">
        <path id="パス_1699" data-name="パス 1699" d="M111.232,28.65a18.98,18.98,0,0,1-8.327-1.476,6.954,6.954,0,0,1-3.795-6.008l-2.53-1.581a3.249,3.249,0,0,1-.949-4.638c.738-.949,1.37-2,2-2.952A3.2,3.2,0,0,1,95.42,8.938V6.408a3.106,3.106,0,0,1,3.162-3.162h3.162c.105-.211.105-.422.211-.632A3.13,3.13,0,0,1,104.907.4a1.337,1.337,0,0,1,.632.105l3.268.632a3.141,3.141,0,0,1,2.108,1.476l.316.632h6.746a3.106,3.106,0,0,1,3.162,3.162V9.044a2.943,2.943,0,0,1-.632,1.9,4.159,4.159,0,0,1,.632,1.581l.211,2.741a3.252,3.252,0,0,1-2.741,3.479c-.316,0-.632.105-.949.105a2.943,2.943,0,0,1,1.9.632,2.75,2.75,0,0,1,1.16,2.214l.316,2.846a3.237,3.237,0,0,1-2.635,3.479A43.037,43.037,0,0,1,111.232,28.65Z" transform="translate(-95.023 -0.4)" fill="#fff"/>
      </g>
      <g id="グループ_754" data-name="グループ 754" transform="translate(124.875 0.105)">
        <path id="パス_1700" data-name="パス 1700" d="M125.775,29.61a17.279,17.279,0,0,1-3.584-.527,3.159,3.159,0,0,1-2.424-2.952l-.105-2.741a3.093,3.093,0,0,1,.422-1.687c-.105-.105-.105-.211-.211-.316l-1.16-2.635a3.137,3.137,0,0,1,1.265-3.9c.105-.105.211-.105.316-.211a2.206,2.206,0,0,1-.422-.632l-1.16-2.741a3.239,3.239,0,0,1,1.37-4.006.1.1,0,0,0,.105-.105c0-.105-.105-.211-.105-.316a3.5,3.5,0,0,1-.316-2.53,3.14,3.14,0,0,1,1.581-1.9l2.846-1.37a3.246,3.246,0,0,1,1.37-.316,5.291,5.291,0,0,1,1.265.211,3.244,3.244,0,0,1,2-.632,3.554,3.554,0,0,1,1.792.527l.316.211A2.943,2.943,0,0,1,133.049.2H136a3.553,3.553,0,0,1,1.792.527A3.554,3.554,0,0,1,139.584.2h2.951a3.142,3.142,0,0,1,2.53,1.265h.422a3.106,3.106,0,0,1,3.162,3.162v2.53a3.744,3.744,0,0,1-.211,1.054V10.53a2.975,2.975,0,0,1-.422,1.581V14.43a3.492,3.492,0,0,1,.422,1.581V17.8a3.554,3.554,0,0,1-.527,1.792v1.16a2.32,2.32,0,0,1-.105.843c.211.211.527.422.632.738a3.257,3.257,0,0,1,.422,2.635l-.632,2.53a3.259,3.259,0,0,1-3.057,2.319h-.316a34.449,34.449,0,0,1-7.484-1.687,50.661,50.661,0,0,1-7.59,1.581h-.422a3.72,3.72,0,0,1-1.476-.316C127.462,29.4,126.724,29.61,125.775,29.61Z" transform="translate(-118.465 -0.2)" fill="#fff"/>
      </g>
      <g id="グループ_755" data-name="グループ 755" transform="translate(152.638)">
        <path id="パス_1701" data-name="パス 1701" d="M150.7,29.72a3.106,3.106,0,0,1-3.162-3.162V22.236a3.254,3.254,0,0,1-1.792-2.108l-.843-3.373a3.005,3.005,0,0,1,1.16-3.268c.316-.211.632-.527.949-.738a2.305,2.305,0,0,1-.316-.527l-1.265-2.741A3.194,3.194,0,0,1,146.7,5.476a18.99,18.99,0,0,0,2.635-1.9c.632-.632,1.37-1.37,2.108-2.214A3.144,3.144,0,0,1,153.971.1a3.554,3.554,0,0,1,1.792.527l.632.422h14.23a3.106,3.106,0,0,1,3.162,3.162v7.168a3.142,3.142,0,0,1,1.265,2.53v2.53a2.918,2.918,0,0,1,.105.949v2.635a3.164,3.164,0,0,1-2.424,3.057v1.054a10.176,10.176,0,0,1-.316,1.9,5.286,5.286,0,0,1-1.16,2,4.09,4.09,0,0,1-2.108,1.16,5.969,5.969,0,0,1-1.9.316h-1.9c-.316,0-.949,0-3.057-.105a3.524,3.524,0,0,1-2.53-1.476,3.233,3.233,0,0,1-1.476-.949c-.422-.422-.738-.843-1.16-1.265v.632a3.106,3.106,0,0,1-3.162,3.162H150.7Z" transform="translate(-144.803 -0.1)" fill="#fff"/>
      </g>
      <g id="グループ_756" data-name="グループ 756" transform="translate(182.045 1.265)">
        <path id="パス_1702" data-name="パス 1702" d="M183.452,28.707c-3.9,0-6.746-1.16-8.433-3.268-1.581-2-2.319-5.06-2.319-9.7,0-3.689.105-7.484.316-11.49A3.131,3.131,0,0,1,176.179,1.3l3.584.105a2.967,2.967,0,0,1,2.214,1.054,3.684,3.684,0,0,1,.843,2.319q-.316,5.85-.316,11.068a12.246,12.246,0,0,0,.316,3.268v.105h.632c1.792,0,3.373-1.792,4.743-5.271a3.176,3.176,0,0,1,2.951-2,4.483,4.483,0,0,1,1.16.211l3.057,1.16a3.117,3.117,0,0,1,1.792,4.006C193.571,26.809,187.774,28.707,183.452,28.707Z" transform="translate(-172.7 -1.3)" fill="#fff"/>
      </g>
      <g id="グループ_757" data-name="グループ 757" transform="translate(205.446 0.738)">
        <path id="パス_1703" data-name="パス 1703" d="M205.125,28.839a9.194,9.194,0,0,1-6.219-2,7.64,7.64,0,0,1-1.581-9.909,3.056,3.056,0,0,1-1.476-2.741V11.446a3.287,3.287,0,0,1-.949-2.214V6.387a3.106,3.106,0,0,1,3.162-3.162h6.957A3.164,3.164,0,0,1,208.076.8h3.162A3.164,3.164,0,0,1,214.3,3.224h3.373a3.106,3.106,0,0,1,3.162,3.162V9.233a2.871,2.871,0,0,1-.949,2.214v2.741a3.106,3.106,0,0,1-3.162,3.162h-1.265a43.365,43.365,0,0,1,3.689,3.057,3.153,3.153,0,0,1,.211,4.427l-2,2.214a2.967,2.967,0,0,1-2.214,1.054h-.105a3.4,3.4,0,0,1-2.214-.843c-.316-.316-.632-.527-.949-.843a7.386,7.386,0,0,1-1.054.843C209.658,28.418,207.655,28.839,205.125,28.839Z" transform="translate(-194.9 -0.8)" fill="#fff"/>
      </g>
      <g id="グループ_758" data-name="グループ 758" transform="translate(233.696 1.265)">
        <path id="パス_1704" data-name="パス 1704" d="M232.452,28.707c-3.9,0-6.746-1.16-8.433-3.268-1.581-2-2.319-5.06-2.319-9.7,0-3.689.105-7.484.316-11.49A3.131,3.131,0,0,1,225.179,1.3l3.584.105a2.967,2.967,0,0,1,2.214,1.054,3.684,3.684,0,0,1,.843,2.319q-.316,5.85-.316,11.068a12.247,12.247,0,0,0,.316,3.268v.105h.632c1.792,0,3.373-1.792,4.743-5.271a3.176,3.176,0,0,1,2.952-2,4.483,4.483,0,0,1,1.16.211l3.057,1.16a3.117,3.117,0,0,1,1.792,4.006C242.571,26.809,236.774,28.707,232.452,28.707Z" transform="translate(-221.7 -1.3)" fill="#fff"/>
      </g>
      <g id="グループ_759" data-name="グループ 759" transform="translate(257.229 0.316)">
        <path id="パス_1705" data-name="パス 1705" d="M250.323,28.861a2.058,2.058,0,0,1-.738-.105l-3.162-.738a3.006,3.006,0,0,1-2-1.581,3.059,3.059,0,0,1-.211-2.53c1.265-3.689,2.319-7.484,3.268-11.279a3.185,3.185,0,0,1-2.635-3.162V6.619A3.106,3.106,0,0,1,248,3.457h1.37a.634.634,0,0,1,.105-.422A3.092,3.092,0,0,1,252.642.4h.316l3.162.316a3.507,3.507,0,0,1,2.214,1.16,3.571,3.571,0,0,1,.633,1.581h5.165a3.106,3.106,0,0,1,3.162,3.162V8.411h.632a3.106,3.106,0,0,1,3.162,3.162V14.42a3.106,3.106,0,0,1-3.162,3.162c-1.476,0-3.057,0-4.427.105V18a3.951,3.951,0,0,1-.105,1.16,33.482,33.482,0,0,0,4.216-.422c.211,0,.422-.105.632-.105a3.4,3.4,0,0,1,1.9.632,2.989,2.989,0,0,1,1.265,2.108l.422,2.846A3.1,3.1,0,0,1,269.3,27.7a28.581,28.581,0,0,1-5.9.527,13.759,13.759,0,0,1-7.273-1.792,7.749,7.749,0,0,1-2-1.687,10.365,10.365,0,0,0-.527,1.687A3.642,3.642,0,0,1,250.323,28.861Z" transform="translate(-244.026 -0.4)" fill="#fff"/>
      </g>
      <g id="グループ_760" data-name="グループ 760" transform="translate(281.974 14.968)">
        <path id="パス_1706" data-name="パス 1706" d="M274.773,28.847a7.3,7.3,0,0,1-5.165-12.438,7.3,7.3,0,0,1,10.33,10.33A7.163,7.163,0,0,1,274.773,28.847Z" transform="translate(-267.5 -14.3)" fill="#fff"/>
      </g>
    </g>
    <path id="合体_21" data-name="合体 21" d="M155.376,23.3V14.125a16.079,16.079,0,0,1-1.9,1.9l-.842-3.373A17.961,17.961,0,0,0,155.9,9.7a21.145,21.145,0,0,0,2.635-3.584L161.173,7.7a19.787,19.787,0,0,1-2.53,3.794V23.3Zm126.809-1.371a4.076,4.076,0,0,1,0-5.9,4.076,4.076,0,0,1,5.9,0,4.074,4.074,0,0,1,0,5.9,4.074,4.074,0,0,1-5.9,0Zm1.582-4.111a1.783,1.783,0,1,0,1.265-.527A1.669,1.669,0,0,0,283.766,17.815ZM169.922,23.191c-.422,0-1.371,0-2.846-.105l-.211-2.635c1.265.105,2.108.105,2.424.105a2.357,2.357,0,0,0,1.265-.211,1.955,1.955,0,0,0,.211-1.054v-2.53h-6.22a39.059,39.059,0,0,1,2.951,2.951l-2.108,2c-1.159-1.265-2.425-2.529-3.69-3.689l1.371-1.37h-2.846V13.915h10.541V12.861H160.225V10.542h16.233v2.318h-2.319v1.054h2.425v2.846h-2.425v3.9a4.479,4.479,0,0,1-.211,1.159c-.105.317-.211.633-.421.738a2.273,2.273,0,0,1-.738.421,3.768,3.768,0,0,1-1.159.212Zm-43.851-.422-.106-2.74a8.415,8.415,0,0,0,2.214.421c.738,0,1.054-1.687,1.054-5.061V14.336a12.4,12.4,0,0,1-3.268,2.53l-1.159-2.636a15.729,15.729,0,0,0,4.112-3.478,17.945,17.945,0,0,0-.633-2.951,22.112,22.112,0,0,1-2.32,1.58l-1.159-2.741a12.423,12.423,0,0,0,2.53-1.792c-.421-.949-.843-2-1.371-2.952l2.846-1.37a19.63,19.63,0,0,1,1.055,2.108,16.811,16.811,0,0,0,2.108-2.53l1.9,1.265H136.3V0h2.951V1.266h3.584V0h2.951V1.266h3.163V3.9h-3.057v.949h-1.16a.387.387,0,0,1-.105.317.387.387,0,0,0-.105.316h4.216V7.274h-4.743v.738h4.322V9.592h-4.322v.738h4.322v1.581h-4.322v.738h4.743v1.792H133.555v-3.8l-1.58-.316a36.763,36.763,0,0,1,.316,4.955,20.527,20.527,0,0,1-.421,4.954,5.292,5.292,0,0,1-1.054,2.319,2.581,2.581,0,0,1-1.9.633A10.865,10.865,0,0,1,126.071,22.769ZM137.034,12.65h3.689v-.738h-3.689Zm0-2.319h3.689V9.592h-3.689Zm-6.008-4.743a16.382,16.382,0,0,1,.843,3.795,27.292,27.292,0,0,0,2.424-5.059l2.109.105V3.9H133.45V2.951A28.684,28.684,0,0,1,131.026,5.587Zm6.008,2.425h3.689V7.274h-3.689Zm.317-2.846c0,.105-.106.21-.106.316h4.006c.105-.316.211-.738.316-1.159l1.37.105V3.9h-3.583v.949h-1.9A.387.387,0,0,1,137.351,5.166Zm3.478,16.128a51.685,51.685,0,0,1-8.116,1.792l-.633-2.53a50.681,50.681,0,0,0,5.059-.844c-1.265-.633-2.213-1.159-2.951-1.581l1.054-.948h-2.213V15.074h15.179v2.214a12.467,12.467,0,0,1-3.584,2.424,43.255,43.255,0,0,0,4.743.844l-.738,2.53A39.21,39.21,0,0,1,140.829,21.294Zm.317-2.53a15.883,15.883,0,0,0,3.267-1.475h-6.746A18.149,18.149,0,0,0,141.145,18.764Zm67.146,2.425a4.212,4.212,0,0,1-1.581-3.479,4.079,4.079,0,0,1,1.37-3.267,6.409,6.409,0,0,1,4.322-1.266,9.083,9.083,0,0,1,2.951.422V10.963h-9.066V8.117h9.066V6.009H205.34V3.163h10.12V.738h3.162V3.163h6.536V6.009h-6.536V8.222h5.587v2.846h-5.587v4.111a43.044,43.044,0,0,1,6.008,4.427l-2,2.213a38.607,38.607,0,0,0-4.111-3.373,4.322,4.322,0,0,1-1.792,3.056,7.557,7.557,0,0,1-4.216.949A6.49,6.49,0,0,1,208.291,21.188Zm2.53-4.744a1.378,1.378,0,0,0-.633,1.265,1.563,1.563,0,0,0,.633,1.37,3.009,3.009,0,0,0,1.792.527,3.208,3.208,0,0,0,2.319-.633,3.208,3.208,0,0,0,.633-2.318,6.8,6.8,0,0,0-2.636-.633A3.706,3.706,0,0,0,210.822,16.445ZM257.1,21.61a133.308,133.308,0,0,0,4.216-15.39h-3.373V3.374h4.005c.211-1.371.421-2.318.527-3.057l3.163.316a18.094,18.094,0,0,1-.527,2.741h8.854V6.22h-9.381a129.285,129.285,0,0,1-4.322,16.128Zm-21.715-1.37c-1.054-1.371-1.687-4.006-1.687-7.695,0-3.584.105-7.379.316-11.279l3.479.105c-.21,3.9-.316,7.7-.316,11.174a14,14,0,0,0,.421,4.111,3.34,3.34,0,0,0,1.265,1.9,4.874,4.874,0,0,0,2.425.527c3.162,0,5.8-2.424,7.695-7.273l3.057,1.159c-2.319,6.22-5.9,9.382-10.751,9.382C238.439,22.348,236.436,21.61,235.382,20.24Zm-51.652,0c-1.054-1.371-1.686-4.006-1.686-7.695,0-3.584.105-7.379.316-11.279l3.479.105c-.212,3.9-.317,7.7-.317,11.174a13.964,13.964,0,0,0,.422,4.111,3.336,3.336,0,0,0,1.265,1.9,4.875,4.875,0,0,0,2.425.527c3.162,0,5.8-2.424,7.695-7.273l3.057,1.159c-2.319,6.22-5.9,9.382-10.751,9.382C186.788,22.348,184.785,21.61,183.731,20.24Zm-130.6-.949a8.789,8.789,0,0,0,4.954-2.53,7.4,7.4,0,0,0,1.475-4.849H49.543V8.961H71.258v3.056H63.035a9.922,9.922,0,0,1-2.213,6.852,11.78,11.78,0,0,1-6.746,3.479Zm53.338,1.792a3.729,3.729,0,0,1-2.108-3.479,4.72,4.72,0,0,1,1.792-3.479,14.41,14.41,0,0,1,5.27-2.741,2.117,2.117,0,0,0-2.108-1.265c-1.792,0-3.9,1.687-6.325,5.166L100.14,13.6a48.711,48.711,0,0,0,4.638-7.8h-4.321V3.163h5.481q.475-1.265.949-2.846l3.268.632a15.231,15.231,0,0,1-.843,2.214h10.541V5.8H108.257c-.211.421-.527,1.159-.949,2.108a6.177,6.177,0,0,1,2.635-.528,4.473,4.473,0,0,1,4.532,3.057,47.645,47.645,0,0,1,5.376-.843l.211,2.741c-1.475.211-3.162.422-4.954.843.105,1.16.211,2.425.211,3.9h-3.373a24.847,24.847,0,0,0-.105-3.057,11.116,11.116,0,0,0-3.163,1.476,2.032,2.032,0,0,0-1.054,1.58,1.582,1.582,0,0,0,.422,1.159,3.135,3.135,0,0,0,1.686.738,15.346,15.346,0,0,0,3.584.317,35.838,35.838,0,0,0,6.22-.422l.316,2.846a46.664,46.664,0,0,1-6.535.528C110.154,22.242,107.835,21.82,106.465,21.083Zm-71.68,1.159V11.279A39.9,39.9,0,0,1,25.3,13.915l-.632-3.057A37.255,37.255,0,0,0,35.1,7.7,31.987,31.987,0,0,0,43.64,1.9l2.108,2.425a29.322,29.322,0,0,1-7.274,5.27v12.65ZM1.159,19.291a8.1,8.1,0,0,0,4.216-3.9c.843-1.475,1.16-4.216,1.16-7.906H9.908a32.759,32.759,0,0,1-.632,7.169,10.831,10.831,0,0,1-2.109,4.427,11.055,11.055,0,0,1-4.216,2.952Zm266.373,1.37a3.767,3.767,0,0,1-2.109-3.267c0-1.266.843-2.636,2.53-3.9l2.32,1.476a6.951,6.951,0,0,0-1.266,1.265,1.406,1.406,0,0,0-.316.843c0,.633.421,1.054,1.159,1.476a7.33,7.33,0,0,0,3.268.527,21.486,21.486,0,0,0,4.954-.527L278.5,21.4a31,31,0,0,1-5.375.527A10.7,10.7,0,0,1,267.533,20.661ZM92.972,19.5a170.941,170.941,0,0,1-18.131,1.687l-.105-3.058c.527,0,1.37-.105,2.529-.105A156.943,156.943,0,0,0,82.22,1.582l3.479.633a121.66,121.66,0,0,1-4.638,15.6c3.163-.316,6.641-.633,10.436-1.159-.949-2.213-1.9-4.111-2.741-5.9l3.163-1.371c1.792,3.584,3.478,7.379,5.27,11.279l-3.162,1.265C93.6,20.977,93.288,20.133,92.972,19.5ZM11.7,11.174c2.635-1.581,4.427-3.479,5.165-5.692H0V2.53H20.449V5.482a14.767,14.767,0,0,1-2.529,4.743A13.666,13.666,0,0,1,13.7,13.809ZM267.428,8.961a81.5,81.5,0,0,1,10.436-.633v2.846a79.35,79.35,0,0,0-10.225.633ZM161.279,9.7V.843h13.914V9.592H164.441V9.7Zm3.162-2.109h7.379V6.43h-7.379Zm0-3.057h7.379V3.479h-7.379Zm-11.384.316a25.516,25.516,0,0,0,3.057-2.213A19.456,19.456,0,0,0,158.538,0l2.424,1.582a32.323,32.323,0,0,1-2.951,3.374,42.8,42.8,0,0,1-3.689,2.634ZM52.494,5.166V2.109H68.306V5.166Z" transform="translate(3.163 3.262)" fill="url(#linear-gradient)"/>
  </g>
</svg>
